<svg xmlns="http://www.w3.org/2000/svg" width="64" height="64" fill="none">
  <path stroke="#D2A24F" stroke-linecap="round" stroke-linejoin="round" stroke-width="2" d="M35.944 48.487H28.31m7.633 0c3.12-5.154 5.415-8.527 6.997-12.859m-6.997 12.859v5.256m-7.633-5.256c-3.183-5.134-5.437-8.515-6.966-12.859m6.966 12.859v5.256M18.77 11.735h26.715m-26.715 0L14.953 10.3m3.817 1.434c-.476 9.894.094 16.843 2.575 23.893m24.14-23.893L49.3 10.3m-3.816 1.434c.713 9.953.023 16.868-2.544 23.893m6.36-25.327-.853-1.923A4 4 0 0 0 44.79 6H19.463a4 4 0 0 0-3.657 2.378l-.853 1.923m34.348 0C60.086 6 66.5 26 42.94 35.628M14.953 10.301C4.825 4-3.563 25 21.345 35.628m14.599 18.115h4.77c2.635 0 4.77 2.14 4.77 4.78V59H18.77v-.478a4.775 4.775 0 0 1 4.77-4.779h4.77m7.634 0H28.31"/>
</svg>