<svg xmlns="http://www.w3.org/2000/svg" width="64" height="64" fill="none">
  <path stroke="#D2A24F" stroke-linecap="round" stroke-linejoin="round" stroke-width="2" d="M8.5 25.5H4V56h56V25.5h-4m-47.5 0 20.901-14M8.5 25.5H56m-26.599-14a2.999 2.999 0 0 0 5.099.159m-5.099-.159a3 3 0 1 1 5.099.159m0 0L56 25.5m-40 12-.58-.695a2.5 2.5 0 0 0-4.42 1.6v5.56a2.5 2.5 0 0 0 4.268 1.767L16 45m5-9.5v8a3 3 0 0 0 3 3h1M38.5 45l1.08.9a3 3 0 0 0 3.84 0l.204-.17a2.435 2.435 0 0 0-.918-4.22l-1.742-.474A2.665 2.665 0 0 1 39 38.465v-.06a2.5 2.5 0 0 1 4.42-1.6l.58.695m9.5 9H52a3 3 0 0 1-3-3V41m4.5-5.5H52a3 3 0 0 0-3 3V41m0 0h3m-18 2.965v-5.93a2.5 2.5 0 0 0-5 0v5.93a2.5 2.5 0 0 0 5 0Z"/>
</svg>