<svg width="776" height="256" viewBox="0 0 776 256" fill="none" xmlns="http://www.w3.org/2000/svg">
  <path stroke="#D2A24F" stroke-linecap="round" stroke-linejoin="round" stroke-width="4" d="M438.87 78.95C479.37 88.7 492 120.55 492 144c0 18-11.35 45.68-24 52-4 2 11.33 20.67 22 26 0 0-2 12-58-10-53.84 4.9-83.72-20.82-92.9-50m-53.1 8c10.67-5.33 26-24 22-26-12.65-6.32-24-34-24-52 0-28 18-68 80-68s76 50 76 66c0 36-30 76-96 70-56 22-58 10-58 10Z"/>
  <path fill="#D2A24F" d="M310.07 104V82.18h4.61v9h9.37v-9h4.6V104h-4.6v-9.01h-9.37V104h-4.61Zm22.38 0V82.18h14.7v3.8h-10.09v5.2h9.34v3.8h-9.34v5.22h10.13v3.8h-14.74Zm18.37 0V82.18h4.61v18.02h9.36v3.8h-13.97Zm17.02 0V82.18h4.61v18.02h9.36v3.8h-13.97Zm36.22-10.9c0 2.37-.45 4.4-1.35 6.06a9.38 9.38 0 0 1-3.66 3.83 10.35 10.35 0 0 1-5.2 1.3c-1.94 0-3.68-.43-5.22-1.31a9.39 9.39 0 0 1-3.66-3.83 12.67 12.67 0 0 1-1.34-6.06c0-2.38.45-4.4 1.34-6.07a9.32 9.32 0 0 1 3.66-3.82 10.33 10.33 0 0 1 5.22-1.32c1.92 0 3.65.44 5.2 1.32a9.3 9.3 0 0 1 3.66 3.82c.9 1.67 1.35 3.7 1.35 6.07Zm-4.67 0c0-1.55-.24-2.85-.7-3.9a5.27 5.27 0 0 0-1.93-2.42 5.19 5.19 0 0 0-2.91-.82 5.2 5.2 0 0 0-2.92.82 5.34 5.34 0 0 0-1.94 2.41 9.87 9.87 0 0 0-.68 3.9c0 1.54.22 2.84.68 3.9a5.34 5.34 0 0 0 1.94 2.4c.83.55 1.8.83 2.92.83 1.11 0 2.08-.28 2.91-.82a5.27 5.27 0 0 0 1.93-2.41c.46-1.06.7-2.36.7-3.9Zm13.43-10.92-.42 15.28h-3.9l-.42-15.28h4.74Zm-2.37 22.1c-.7 0-1.3-.25-1.8-.75-.51-.5-.76-1.1-.75-1.81-.01-.7.24-1.3.74-1.79.5-.5 1.1-.75 1.81-.75.68 0 1.27.25 1.78.75a2.45 2.45 0 0 1 .4 3.08 2.48 2.48 0 0 1-2.18 1.27Z"/>
  <path stroke="#D2A24F" stroke-linecap="round" stroke-linejoin="round" stroke-miterlimit="1.5" stroke-width="2" d="M656.3 139v34.58M640 156.3h32.6m-28.78 9.86 24.96-19.73m-23.48-1.45 22.02 22.62m-61.1-7.6v52.37M583 186.18l46.44-.02m-41 14.97 35.55-29.89m-33.45-2.19 31.37 34.24"/>
  <g stroke="#D2A24F" stroke-linecap="round" stroke-linejoin="round" stroke-miterlimit="1.5" stroke-width="2" clip-path="url(#a)">
    <path d="m194.82 112.9 23.42 46.84m-32.48-13.04 41.53-20.79m-29.98 31.73L215.74 115m-30.9 13 43.37 16.6"/>
  </g>
  <path stroke="#D2A24F" stroke-linecap="round" stroke-linejoin="round" stroke-miterlimit="1.5" stroke-width="2" d="M645.15 212v29.64M632 226.81h26.29m-22.78-8.92 19.27 17.88M159.15 164v29.64M146 178.81h26.29m-22.78-8.92 19.27 17.88M146.3 97v34.58M130 114.3h32.6m-28.78 9.86 24.96-19.73m-23.48-1.45 22.02 22.62"/>
  <defs>
    <clipPath id="a">
      <path fill="#fff" d="M0 0h60v60H0z" transform="rotate(-26.57 343.11 -290.08)"/>
    </clipPath>
  </defs>
</svg>