<svg width="776" height="256" viewBox="0 0 776 256" fill="none" xmlns="http://www.w3.org/2000/svg">
<path d="M438.872 78.9512C479.378 88.695 491.999 120.554 491.999 144C491.999 162 480.648 189.676 467.999 196C463.999 198 479.332 216.667 489.999 222C489.999 222 487.999 234 431.999 212C378.163 216.894 348.28 191.182 339.094 162M286 170C296.667 164.667 312 146 308 144C295.351 137.675 284 110 284 92C284 64 302 24 364 24C426 24 440 74 440 90C440 126 410 166 344 160C288 182 286 170 286 170Z" stroke="#D2A24F" stroke-width="4" stroke-linecap="round" stroke-linejoin="round"/>
<path d="M351.093 91.1818H348.089C348.067 90.9332 348.01 90.7077 347.918 90.5053C347.829 90.3029 347.705 90.1289 347.545 89.9833C347.389 89.8342 347.199 89.7205 346.975 89.6424C346.752 89.5607 346.498 89.5199 346.214 89.5199C345.716 89.5199 345.296 89.6406 344.951 89.8821C344.61 90.1236 344.351 90.4698 344.173 90.9208C343.999 91.3718 343.912 91.9134 343.912 92.5455C343.912 93.2131 344.001 93.7724 344.179 94.2234C344.36 94.6708 344.621 95.0082 344.962 95.2354C345.303 95.4592 345.713 95.571 346.192 95.571C346.466 95.571 346.711 95.5373 346.927 95.4698C347.144 95.3988 347.332 95.2976 347.492 95.1662C347.652 95.0348 347.781 94.8768 347.881 94.6921C347.984 94.5039 348.053 94.2926 348.089 94.0582L351.093 94.0795C351.057 94.5412 350.928 95.0117 350.704 95.4911C350.48 95.967 350.162 96.4073 349.751 96.8121C349.342 97.2134 348.836 97.5366 348.232 97.7816C347.629 98.0266 346.927 98.1491 346.128 98.1491C345.127 98.1491 344.229 97.9343 343.433 97.5046C342.641 97.0749 342.014 96.4428 341.553 95.6083C341.095 94.7738 340.866 93.7528 340.866 92.5455C340.866 91.331 341.1 90.3082 341.569 89.4773C342.037 88.6428 342.67 88.0124 343.465 87.5863C344.26 87.1566 345.148 86.9418 346.128 86.9418C346.817 86.9418 347.451 87.0359 348.03 87.2241C348.609 87.4123 349.117 87.6875 349.553 88.0497C349.99 88.4084 350.342 88.8505 350.608 89.3761C350.874 89.9016 351.036 90.5036 351.093 91.1818ZM355.398 87.0909V98H352.437V87.0909H355.398ZM359.636 98H356.44L360.04 87.0909H364.089L367.69 98H364.494L362.107 90.0952H362.022L359.636 98ZM359.039 93.696H365.047V95.9119H359.039V93.696ZM378.796 92.5455C378.796 93.7599 378.56 94.7844 378.087 95.619C377.615 96.4499 376.978 97.0803 376.175 97.5099C375.372 97.9361 374.478 98.1491 373.49 98.1491C372.496 98.1491 371.598 97.9343 370.795 97.5046C369.996 97.0714 369.36 96.4393 368.888 95.6083C368.419 94.7738 368.185 93.7528 368.185 92.5455C368.185 91.331 368.419 90.3082 368.888 89.4773C369.36 88.6428 369.996 88.0124 370.795 87.5863C371.598 87.1566 372.496 86.9418 373.49 86.9418C374.478 86.9418 375.372 87.1566 376.175 87.5863C376.978 88.0124 377.615 88.6428 378.087 89.4773C378.56 90.3082 378.796 91.331 378.796 92.5455ZM375.749 92.5455C375.749 91.892 375.662 91.3416 375.488 90.8942C375.317 90.4432 375.063 90.1023 374.726 89.8714C374.392 89.6371 373.98 89.5199 373.49 89.5199C373 89.5199 372.587 89.6371 372.249 89.8714C371.915 90.1023 371.661 90.4432 371.487 90.8942C371.317 91.3416 371.232 91.892 371.232 92.5455C371.232 93.1989 371.317 93.7511 371.487 94.2021C371.661 94.6495 371.915 94.9904 372.249 95.2248C372.587 95.4556 373 95.571 373.49 95.571C373.98 95.571 374.392 95.4556 374.726 95.2248C375.063 94.9904 375.317 94.6495 375.488 94.2021C375.662 93.7511 375.749 93.1989 375.749 92.5455ZM383.618 87.0909L383.341 94.5909H380.912L380.635 87.0909H383.618ZM382.126 98.1705C381.714 98.1705 381.361 98.0266 381.066 97.739C380.775 97.4478 380.631 97.0945 380.635 96.679C380.631 96.2741 380.775 95.9279 381.066 95.6403C381.361 95.3526 381.714 95.2088 382.126 95.2088C382.517 95.2088 382.861 95.3526 383.16 95.6403C383.461 95.9279 383.614 96.2741 383.618 96.679C383.614 96.956 383.541 97.2081 383.399 97.4354C383.261 97.6591 383.08 97.8384 382.856 97.9734C382.632 98.1048 382.389 98.1705 382.126 98.1705Z" fill="#D2A24F"/>
<path d="M656.308 139V173.584" stroke="#D2A24F" stroke-width="2" stroke-miterlimit="1.5" stroke-linecap="round" stroke-linejoin="round"/>
<path d="M640 156.297L672.608 156.291" stroke="#D2A24F" stroke-width="2" stroke-miterlimit="1.5" stroke-linecap="round" stroke-linejoin="round"/>
<path d="M643.824 166.164L668.782 146.427" stroke="#D2A24F" stroke-width="2" stroke-miterlimit="1.5" stroke-linecap="round" stroke-linejoin="round"/>
<path d="M645.295 144.983L667.319 167.6" stroke="#D2A24F" stroke-width="2" stroke-miterlimit="1.5" stroke-linecap="round" stroke-linejoin="round"/>
<path d="M606.219 160V212.371" stroke="#D2A24F" stroke-width="2" stroke-miterlimit="1.5" stroke-linecap="round" stroke-linejoin="round"/>
<path d="M583 186.175L629.442 186.165" stroke="#D2A24F" stroke-width="2" stroke-miterlimit="1.5" stroke-linecap="round" stroke-linejoin="round"/>
<path d="M588.44 201.132L623.987 171.244" stroke="#D2A24F" stroke-width="2" stroke-miterlimit="1.5" stroke-linecap="round" stroke-linejoin="round"/>
<path d="M590.539 169.046L621.906 203.294" stroke="#D2A24F" stroke-width="2" stroke-miterlimit="1.5" stroke-linecap="round" stroke-linejoin="round"/>
<g clip-path="url(#clip0_9_15347)">
<path d="M194.817 112.898L218.243 159.737" stroke="#D2A24F" stroke-width="2" stroke-miterlimit="1.5" stroke-linecap="round" stroke-linejoin="round"/>
<path d="M185.758 146.695L227.29 125.912" stroke="#D2A24F" stroke-width="2" stroke-miterlimit="1.5" stroke-linecap="round" stroke-linejoin="round"/>
<path d="M197.314 157.639L215.737 115.007" stroke="#D2A24F" stroke-width="2" stroke-miterlimit="1.5" stroke-linecap="round" stroke-linejoin="round"/>
<path d="M184.839 128.004L228.213 144.603" stroke="#D2A24F" stroke-width="2" stroke-miterlimit="1.5" stroke-linecap="round" stroke-linejoin="round"/>
</g>
<path d="M645.148 212V241.644" stroke="#D2A24F" stroke-width="2" stroke-miterlimit="1.5" stroke-linecap="round" stroke-linejoin="round"/>
<path d="M632 226.812L658.288 226.807" stroke="#D2A24F" stroke-width="2" stroke-miterlimit="1.5" stroke-linecap="round" stroke-linejoin="round"/>
<path d="M635.51 217.886L654.78 235.767" stroke="#D2A24F" stroke-width="2" stroke-miterlimit="1.5" stroke-linecap="round" stroke-linejoin="round"/>
<path d="M159.148 164V193.644" stroke="#D2A24F" stroke-width="2" stroke-miterlimit="1.5" stroke-linecap="round" stroke-linejoin="round"/>
<path d="M146 178.812L172.288 178.807" stroke="#D2A24F" stroke-width="2" stroke-miterlimit="1.5" stroke-linecap="round" stroke-linejoin="round"/>
<path d="M149.51 169.886L168.78 187.767" stroke="#D2A24F" stroke-width="2" stroke-miterlimit="1.5" stroke-linecap="round" stroke-linejoin="round"/>
<path d="M146.308 97V131.584" stroke="#D2A24F" stroke-width="2" stroke-miterlimit="1.5" stroke-linecap="round" stroke-linejoin="round"/>
<path d="M130 114.297L162.608 114.291" stroke="#D2A24F" stroke-width="2" stroke-miterlimit="1.5" stroke-linecap="round" stroke-linejoin="round"/>
<path d="M133.824 124.164L158.782 104.427" stroke="#D2A24F" stroke-width="2" stroke-miterlimit="1.5" stroke-linecap="round" stroke-linejoin="round"/>
<path d="M135.295 102.983L157.319 125.6" stroke="#D2A24F" stroke-width="2" stroke-miterlimit="1.5" stroke-linecap="round" stroke-linejoin="round"/>
<defs>
<clipPath id="clip0_9_15347">
<rect width="60" height="60" fill="white" transform="translate(166 122.839) rotate(-26.5717)"/>
</clipPath>
</defs>
</svg>
