<svg width="776" height="256" viewBox="0 0 776 256" fill="none" xmlns="http://www.w3.org/2000/svg">
<path d="M438.872 78.9512C479.378 88.695 491.999 120.554 491.999 144C491.999 162 480.648 189.676 467.999 196C463.999 198 479.332 216.667 489.999 222C489.999 222 487.999 234 431.999 212C378.163 216.894 348.28 191.182 339.094 162M286 170C296.667 164.667 312 146 308 144C295.351 137.675 284 110 284 92C284 64 302 24 364 24C426 24 440 74 440 90C440 126 410 166 344 160C288 182 286 170 286 170Z" stroke="#D2A24F" stroke-width="4" stroke-linecap="round" stroke-linejoin="round"/>
<path d="M335.92 98V87.0909H338.882V91.3523H342.803V87.0909H345.764V98H342.803V93.7386H338.882V98H335.92ZM347.17 98V87.0909H355.033V89.4773H350.132V91.3523H354.628V93.7386H350.132V95.6136H355.011V98H347.17ZM356.501 98V87.0909H359.463V95.6136H363.874V98H356.501ZM365.071 98V87.0909H368.032V95.6136H372.443V98H365.071ZM383.784 92.5455C383.784 93.7599 383.547 94.7844 383.075 95.619C382.603 96.4499 381.965 97.0803 381.163 97.5099C380.36 97.9361 379.465 98.1491 378.478 98.1491C377.484 98.1491 376.585 97.9343 375.783 97.5046C374.984 97.0714 374.348 96.4393 373.876 95.6083C373.407 94.7738 373.173 93.7528 373.173 92.5455C373.173 91.331 373.407 90.3082 373.876 89.4773C374.348 88.6428 374.984 88.0124 375.783 87.5863C376.585 87.1566 377.484 86.9418 378.478 86.9418C379.465 86.9418 380.36 87.1566 381.163 87.5863C381.965 88.0124 382.603 88.6428 383.075 89.4773C383.547 90.3082 383.784 91.331 383.784 92.5455ZM380.737 92.5455C380.737 91.892 380.65 91.3416 380.476 90.8942C380.305 90.4432 380.051 90.1023 379.714 89.8714C379.38 89.6371 378.968 89.5199 378.478 89.5199C377.988 89.5199 377.574 89.6371 377.237 89.8714C376.903 90.1023 376.649 90.4432 376.475 90.8942C376.305 91.3416 376.22 91.892 376.22 92.5455C376.22 93.1989 376.305 93.7511 376.475 94.2021C376.649 94.6495 376.903 94.9904 377.237 95.2248C377.574 95.4556 377.988 95.571 378.478 95.571C378.968 95.571 379.38 95.4556 379.714 95.2248C380.051 94.9904 380.305 94.6495 380.476 94.2021C380.65 93.7511 380.737 93.1989 380.737 92.5455ZM388.606 87.0909L388.329 94.5909H385.9L385.623 87.0909H388.606ZM387.114 98.1705C386.702 98.1705 386.349 98.0266 386.054 97.739C385.763 97.4478 385.619 97.0945 385.623 96.679C385.619 96.2741 385.763 95.9279 386.054 95.6403C386.349 95.3526 386.702 95.2088 387.114 95.2088C387.505 95.2088 387.849 95.3526 388.147 95.6403C388.449 95.9279 388.602 96.2741 388.606 96.679C388.602 96.956 388.529 97.2081 388.387 97.4354C388.249 97.6591 388.068 97.8384 387.844 97.9734C387.62 98.1048 387.377 98.1705 387.114 98.1705Z" fill="#D2A24F"/>
<path d="M656.308 139V173.584" stroke="#D2A24F" stroke-width="2" stroke-miterlimit="1.5" stroke-linecap="round" stroke-linejoin="round"/>
<path d="M640 156.297L672.608 156.291" stroke="#D2A24F" stroke-width="2" stroke-miterlimit="1.5" stroke-linecap="round" stroke-linejoin="round"/>
<path d="M643.824 166.164L668.782 146.427" stroke="#D2A24F" stroke-width="2" stroke-miterlimit="1.5" stroke-linecap="round" stroke-linejoin="round"/>
<path d="M645.295 144.983L667.319 167.6" stroke="#D2A24F" stroke-width="2" stroke-miterlimit="1.5" stroke-linecap="round" stroke-linejoin="round"/>
<path d="M606.219 160V212.371" stroke="#D2A24F" stroke-width="2" stroke-miterlimit="1.5" stroke-linecap="round" stroke-linejoin="round"/>
<path d="M583 186.175L629.442 186.165" stroke="#D2A24F" stroke-width="2" stroke-miterlimit="1.5" stroke-linecap="round" stroke-linejoin="round"/>
<path d="M588.44 201.132L623.987 171.244" stroke="#D2A24F" stroke-width="2" stroke-miterlimit="1.5" stroke-linecap="round" stroke-linejoin="round"/>
<path d="M590.539 169.046L621.906 203.294" stroke="#D2A24F" stroke-width="2" stroke-miterlimit="1.5" stroke-linecap="round" stroke-linejoin="round"/>
<g clip-path="url(#clip0_11_148910)">
<path d="M194.817 112.898L218.243 159.737" stroke="#D2A24F" stroke-width="2" stroke-miterlimit="1.5" stroke-linecap="round" stroke-linejoin="round"/>
<path d="M185.758 146.695L227.29 125.912" stroke="#D2A24F" stroke-width="2" stroke-miterlimit="1.5" stroke-linecap="round" stroke-linejoin="round"/>
<path d="M197.314 157.639L215.737 115.007" stroke="#D2A24F" stroke-width="2" stroke-miterlimit="1.5" stroke-linecap="round" stroke-linejoin="round"/>
<path d="M184.839 128.004L228.213 144.603" stroke="#D2A24F" stroke-width="2" stroke-miterlimit="1.5" stroke-linecap="round" stroke-linejoin="round"/>
</g>
<path d="M645.148 212V241.644" stroke="#D2A24F" stroke-width="2" stroke-miterlimit="1.5" stroke-linecap="round" stroke-linejoin="round"/>
<path d="M632 226.812L658.288 226.807" stroke="#D2A24F" stroke-width="2" stroke-miterlimit="1.5" stroke-linecap="round" stroke-linejoin="round"/>
<path d="M635.51 217.886L654.78 235.767" stroke="#D2A24F" stroke-width="2" stroke-miterlimit="1.5" stroke-linecap="round" stroke-linejoin="round"/>
<path d="M159.148 164V193.644" stroke="#D2A24F" stroke-width="2" stroke-miterlimit="1.5" stroke-linecap="round" stroke-linejoin="round"/>
<path d="M146 178.812L172.288 178.807" stroke="#D2A24F" stroke-width="2" stroke-miterlimit="1.5" stroke-linecap="round" stroke-linejoin="round"/>
<path d="M149.51 169.886L168.78 187.767" stroke="#D2A24F" stroke-width="2" stroke-miterlimit="1.5" stroke-linecap="round" stroke-linejoin="round"/>
<path d="M146.308 97V131.584" stroke="#D2A24F" stroke-width="2" stroke-miterlimit="1.5" stroke-linecap="round" stroke-linejoin="round"/>
<path d="M130 114.297L162.608 114.291" stroke="#D2A24F" stroke-width="2" stroke-miterlimit="1.5" stroke-linecap="round" stroke-linejoin="round"/>
<path d="M133.824 124.164L158.782 104.427" stroke="#D2A24F" stroke-width="2" stroke-miterlimit="1.5" stroke-linecap="round" stroke-linejoin="round"/>
<path d="M135.295 102.983L157.319 125.6" stroke="#D2A24F" stroke-width="2" stroke-miterlimit="1.5" stroke-linecap="round" stroke-linejoin="round"/>
<defs>
<clipPath id="clip0_11_148910">
<rect width="60" height="60" fill="white" transform="translate(166 122.839) rotate(-26.5717)"/>
</clipPath>
</defs>
</svg>
