<svg width="776" height="256" viewBox="0 0 776 256" fill="none" xmlns="http://www.w3.org/2000/svg">
  <path stroke="#D2A24F" stroke-linecap="round" stroke-linejoin="round" stroke-width="4" d="M438.87 78.95C479.37 88.7 492 120.55 492 144c0 18-11.35 45.68-24 52-4 2 11.33 20.67 22 26 0 0-2 12-58-10-53.84 4.9-83.72-20.82-92.9-50m-53.1 8c10.67-5.33 26-24 22-26-12.65-6.32-24-34-24-52 0-28 18-68 80-68s76 50 76 66c0 36-30 76-96 70-56 22-58 10-58 10Z"/>
  <path fill="#D2A24F" d="M340.36 89.82h-4.67a4.55 4.55 0 0 0-.52-1.6 4.1 4.1 0 0 0-2.44-1.99 5.46 5.46 0 0 0-1.74-.27c-1.13 0-2.1.28-2.95.85a5.38 5.38 0 0 0-1.95 2.42 9.62 9.62 0 0 0-.69 3.86c0 1.56.23 2.86.7 3.92a5.31 5.31 0 0 0 1.95 2.4c.84.54 1.81.8 2.91.8.62 0 1.2-.07 1.72-.24a4.1 4.1 0 0 0 2.44-1.88c.27-.45.47-.97.57-1.55l4.67.02a8.7 8.7 0 0 1-5.71 7.1c-1.1.43-2.36.64-3.76.64a10.3 10.3 0 0 1-5.22-1.32 9.37 9.37 0 0 1-3.62-3.83 12.84 12.84 0 0 1-1.32-6.06c0-2.38.44-4.4 1.34-6.07a9.35 9.35 0 0 1 3.64-3.82 10.21 10.21 0 0 1 5.18-1.32c1.26 0 2.43.18 3.51.54a9 9 0 0 1 2.9 1.55 8 8 0 0 1 2.04 2.48c.53.98.87 2.1 1.02 3.37Zm7.92-7.64V104h-4.61V82.18h4.61Zm7.56 21.82h-4.95l7.53-21.82h5.95l7.52 21.82h-4.94l-5.47-16.83h-.17L355.84 104Zm-.31-8.58h11.67v3.6h-11.67v-3.6Zm38.01-2.33c0 2.38-.45 4.4-1.35 6.07a9.4 9.4 0 0 1-3.67 3.83 10.35 10.35 0 0 1-5.2 1.3c-1.94 0-3.68-.43-5.22-1.31a9.4 9.4 0 0 1-3.65-3.83 12.67 12.67 0 0 1-1.34-6.06c0-2.38.44-4.4 1.34-6.07a9.33 9.33 0 0 1 3.65-3.82 10.33 10.33 0 0 1 5.22-1.32c1.93 0 3.66.44 5.2 1.32a9.31 9.31 0 0 1 3.67 3.82c.9 1.67 1.35 3.7 1.35 6.07Zm-4.68 0a9.8 9.8 0 0 0-.69-3.9 5.27 5.27 0 0 0-1.93-2.4 5.19 5.19 0 0 0-2.92-.83c-1.11 0-2.08.28-2.92.82a5.34 5.34 0 0 0-1.93 2.41 9.9 9.9 0 0 0-.69 3.9c0 1.54.23 2.84.69 3.9a5.34 5.34 0 0 0 1.93 2.4c.84.55 1.8.83 2.92.83a5.2 5.2 0 0 0 2.92-.82 5.27 5.27 0 0 0 1.93-2.41c.46-1.06.7-2.36.7-3.9Zm13.44-10.9-.42 15.27h-3.9l-.43-15.28h4.75Zm-2.37 22.09c-.7 0-1.3-.25-1.81-.75-.5-.5-.75-1.1-.75-1.81 0-.7.25-1.3.75-1.79.5-.5 1.1-.75 1.81-.75.68 0 1.27.25 1.78.75a2.44 2.44 0 0 1 .4 3.08 2.5 2.5 0 0 1-2.18 1.27Z"/>
  <path stroke="#D2A24F" stroke-linecap="round" stroke-linejoin="round" stroke-miterlimit="1.5" stroke-width="2" d="M656.3 139v34.58M640 156.3h32.6m-28.78 9.86 24.96-19.73m-23.48-1.45 22.02 22.62m-61.1-7.6v52.37M583 186.18l46.44-.02m-41 14.97 35.55-29.89m-33.45-2.19 31.37 34.24"/>
  <g stroke="#D2A24F" stroke-linecap="round" stroke-linejoin="round" stroke-miterlimit="1.5" stroke-width="2" clip-path="url(#a)">
    <path d="m194.82 112.9 23.42 46.84m-32.48-13.04 41.53-20.79m-29.98 31.73L215.74 115m-30.9 13 43.37 16.6"/>
  </g>
  <path stroke="#D2A24F" stroke-linecap="round" stroke-linejoin="round" stroke-miterlimit="1.5" stroke-width="2" d="M645.15 212v29.64M632 226.81h26.29m-22.78-8.92 19.27 17.88M159.15 164v29.64M146 178.81h26.29m-22.78-8.92 19.27 17.88M146.3 97v34.58M130 114.3h32.6m-28.78 9.86 24.96-19.73m-23.48-1.45 22.02 22.62"/>
  <defs>
    <clipPath id="a">
      <path fill="#fff" d="M0 0h60v60H0z" transform="rotate(-26.57 343.11 -290.08)"/>
    </clipPath>
  </defs>
</svg>