<svg xmlns="http://www.w3.org/2000/svg" width="64" height="64" fill="none">
  <path stroke="#D2A24F" stroke-linecap="round" stroke-linejoin="round" stroke-width="2" d="M30.5 34.5C26.9 46.1 14 51.333 8 52.5c-.5 6 7.5 7 11 5 5.7 3.206 8.46 3.124 13 0 4.94 3.64 7.802 2.93 13 0 0 0 9 4 11-2.5-1.317-.878-4.24-4.1-7.5-7.976M30.5 34.5l-3-3.5-3.5 6.5-7 3.5c-2 0-3.5-2-2.5-4l5.5-3 4.5-7.5 6.5-3.25m-.5 11.25c2.4.4 5.333-1.167 6.5-2m0 0-.5-5.5H43l3.5-.618M37 32.5c2.618 3.553 7.334 9.571 11.5 14.524M31 23.25l3.5-1.75H43l6-.75m-18 2.5L32 18l13-2.5 4 5.25m0 0 2-.25c1.705.284 2.602 1.537 2.509 2.75M46.5 26.382l5-.882c1.295-.432 1.938-1.33 2.009-2.25M46.5 26.382c-.256.464-.57 1.16-.847 1.934M48.5 47.024c0-.675.12-2.627 0-5.024-.08-1.621-3.07-6.85-3.5-10-.138-1.006.21-2.445.653-3.684m0 0c1.955 2.728 6.263 5.534 7.856-5.066M27 17a4 4 0 1 1-8 0 4 4 0 0 1 8 0Zm11-9a4 4 0 1 1-8 0 4 4 0 0 1 8 0Z"/>
</svg>