<svg width="776" height="256" viewBox="0 0 776 256" fill="none" xmlns="http://www.w3.org/2000/svg">
<path d="M319.427 21.3324L323.301 18.8712C325.225 17.649 327.457 17 329.736 17H349.987C352.266 17 354.498 17.649 356.422 18.8712L360.296 21.3324M319.427 21.3324L314.986 24.1535C313.431 25.1417 312.178 26.5407 311.368 28.1959L280 92.2457L292.576 99.4993L314.032 64.0186L315.412 82.3299L309.905 122.322H316.421M319.427 21.3324L341.444 82.8636L360.296 21.3324M360.296 21.3324L364.95 24.2892C366.371 25.1916 367.541 26.438 368.351 27.9128L403.714 92.2457L390.441 99.4993L368.694 64.0186L368.301 82.3299L372.811 122.322H366.618M316.421 122.322H335.311L341.444 114.799L347.576 122.322H366.618M316.421 122.322V234.786H331.699L341.358 132.204L352.015 234.786H366.618V122.322M341.358 89.3495V91.2303M341.358 102.074V103.955M420.176 83.4171H467.067M420.176 83.4171V102.789M420.176 83.4171C420.176 83.4171 410.311 60.0009 410.697 44.1203C410.934 34.4165 415.187 19.7674 415.187 19.7674H431.649V37.0738C431.649 39.4769 432.514 41.7996 434.087 43.6169L443.621 54.6364L453.156 43.6169C454.728 41.7996 455.594 39.4769 455.594 37.0738V19.7674H471.557C471.557 19.7674 476.615 34.3287 477.044 44.1203C477.741 60.0452 467.067 83.4171 467.067 83.4171M467.067 83.4171V102.789M467.067 102.789H420.176M467.067 102.789C467.067 102.789 495.897 154.078 496 229.206C496 229.47 495.95 229.731 495.817 229.959C494.993 231.378 491.029 236.802 477.044 240.478M420.176 102.789C410.713 114.761 391.803 152.81 391.741 229.236C391.741 229.479 391.784 229.724 391.9 229.938C392.649 231.322 396.392 236.783 410.321 240.478M443.621 244V183.671M443.621 244C458.577 244 469.333 242.504 477.044 240.478M443.621 244C428.666 244 417.961 242.504 410.321 240.478M477.044 240.478L467.566 184.225M410.321 240.478L419.677 184.225" stroke="#D2A24F" stroke-width="4" stroke-linecap="round" stroke-linejoin="round"/>
<path d="M610.308 67V101.584" stroke="#D2A24F" stroke-width="2" stroke-miterlimit="1.5" stroke-linecap="round" stroke-linejoin="round"/>
<path d="M594 84.2969L626.608 84.2906" stroke="#D2A24F" stroke-width="2" stroke-miterlimit="1.5" stroke-linecap="round" stroke-linejoin="round"/>
<path d="M597.824 94.1636L622.782 74.4267" stroke="#D2A24F" stroke-width="2" stroke-miterlimit="1.5" stroke-linecap="round" stroke-linejoin="round"/>
<path d="M599.295 72.9829L621.319 95.5995" stroke="#D2A24F" stroke-width="2" stroke-miterlimit="1.5" stroke-linecap="round" stroke-linejoin="round"/>
<path d="M605.219 142V194.371" stroke="#D2A24F" stroke-width="2" stroke-miterlimit="1.5" stroke-linecap="round" stroke-linejoin="round"/>
<path d="M582 168.175L628.442 168.165" stroke="#D2A24F" stroke-width="2" stroke-miterlimit="1.5" stroke-linecap="round" stroke-linejoin="round"/>
<path d="M587.44 183.132L622.987 153.244" stroke="#D2A24F" stroke-width="2" stroke-miterlimit="1.5" stroke-linecap="round" stroke-linejoin="round"/>
<path d="M589.539 151.046L620.906 185.294" stroke="#D2A24F" stroke-width="2" stroke-miterlimit="1.5" stroke-linecap="round" stroke-linejoin="round"/>
<path d="M145.219 133V185.371" stroke="#D2A24F" stroke-width="2" stroke-miterlimit="1.5" stroke-linecap="round" stroke-linejoin="round"/>
<path d="M122 159.175L168.442 159.165" stroke="#D2A24F" stroke-width="2" stroke-miterlimit="1.5" stroke-linecap="round" stroke-linejoin="round"/>
<path d="M127.44 174.132L162.987 144.244" stroke="#D2A24F" stroke-width="2" stroke-miterlimit="1.5" stroke-linecap="round" stroke-linejoin="round"/>
<path d="M129.539 142.046L160.906 176.294" stroke="#D2A24F" stroke-width="2" stroke-miterlimit="1.5" stroke-linecap="round" stroke-linejoin="round"/>
<path d="M557.148 105V134.644" stroke="#D2A24F" stroke-width="2" stroke-miterlimit="1.5" stroke-linecap="round" stroke-linejoin="round"/>
<path d="M544 119.812L570.288 119.807" stroke="#D2A24F" stroke-width="2" stroke-miterlimit="1.5" stroke-linecap="round" stroke-linejoin="round"/>
<path d="M547.51 110.886L566.78 128.767" stroke="#D2A24F" stroke-width="2" stroke-miterlimit="1.5" stroke-linecap="round" stroke-linejoin="round"/>
<path d="M236.148 152V181.644" stroke="#D2A24F" stroke-width="2" stroke-miterlimit="1.5" stroke-linecap="round" stroke-linejoin="round"/>
<path d="M223 166.812L249.288 166.807" stroke="#D2A24F" stroke-width="2" stroke-miterlimit="1.5" stroke-linecap="round" stroke-linejoin="round"/>
<path d="M226.51 157.886L245.78 175.767" stroke="#D2A24F" stroke-width="2" stroke-miterlimit="1.5" stroke-linecap="round" stroke-linejoin="round"/>
<path d="M198.308 207V241.584" stroke="#D2A24F" stroke-width="2" stroke-miterlimit="1.5" stroke-linecap="round" stroke-linejoin="round"/>
<path d="M182 224.297L214.608 224.291" stroke="#D2A24F" stroke-width="2" stroke-miterlimit="1.5" stroke-linecap="round" stroke-linejoin="round"/>
<path d="M185.824 234.164L210.782 214.427" stroke="#D2A24F" stroke-width="2" stroke-miterlimit="1.5" stroke-linecap="round" stroke-linejoin="round"/>
<path d="M187.295 212.983L209.319 235.6" stroke="#D2A24F" stroke-width="2" stroke-miterlimit="1.5" stroke-linecap="round" stroke-linejoin="round"/>
</svg>
