<svg xmlns="http://www.w3.org/2000/svg" fill="none" viewBox="0 0 96 96" width="96" height="96">
  <path fill="#fff" d="M25.271 68.135a1.86 1.86 0 1 1-.081-3.72 1.86 1.86 0 0 1 .081 3.72ZM28.999 73.35a1.86 1.86 0 1 1-.081-3.721 1.86 1.86 0 0 1 .08 3.72ZM32.715 77.8a1.86 1.86 0 1 1-.081-3.72 1.86 1.86 0 0 1 .081 3.72ZM37.012 82.18a1.86 1.86 0 1 1-.081-3.72 1.86 1.86 0 0 1 .081 3.72ZM42.712 84a1.86 1.86 0 1 1-.081-3.72 1.86 1.86 0 0 1 .081 3.72ZM49.705 86.456a2.712 2.712 0 1 0 .107-5.423 2.712 2.712 0 0 0-.107 5.422ZM56.655 84.032a1.86 1.86 0 1 0 .074-3.72 1.86 1.86 0 0 0-.074 3.72ZM62.832 81.033a1.86 1.86 0 1 0 .074-3.721 1.86 1.86 0 0 0-.074 3.72ZM67.655 76.701a1.86 1.86 0 1 0 .074-3.72 1.86 1.86 0 0 0-.074 3.72ZM71.374 72.243a1.86 1.86 0 1 0 .074-3.72 1.86 1.86 0 0 0-.074 3.72ZM75.09 67.021a1.86 1.86 0 1 0 .075-3.72 1.86 1.86 0 0 0-.074 3.72Z"/>
  <path stroke="#D2A24F" stroke-width="2" d="M25.271 68.135a1.86 1.86 0 1 1-.081-3.72 1.86 1.86 0 0 1 .081 3.72ZM28.999 73.35a1.86 1.86 0 1 1-.081-3.721 1.86 1.86 0 0 1 .08 3.72ZM32.715 77.8a1.86 1.86 0 1 1-.081-3.72 1.86 1.86 0 0 1 .081 3.72ZM37.012 82.18a1.86 1.86 0 1 1-.081-3.72 1.86 1.86 0 0 1 .081 3.72ZM42.712 84a1.86 1.86 0 1 1-.081-3.72 1.86 1.86 0 0 1 .081 3.72ZM49.705 86.456a2.712 2.712 0 1 0 .107-5.423 2.712 2.712 0 0 0-.107 5.422ZM56.655 84.032a1.86 1.86 0 1 0 .074-3.72 1.86 1.86 0 0 0-.074 3.72ZM62.832 81.033a1.86 1.86 0 1 0 .074-3.721 1.86 1.86 0 0 0-.074 3.72ZM67.655 76.701a1.86 1.86 0 1 0 .074-3.72 1.86 1.86 0 0 0-.074 3.72ZM71.374 72.243a1.86 1.86 0 1 0 .074-3.72 1.86 1.86 0 0 0-.074 3.72ZM75.09 67.021a1.86 1.86 0 1 0 .075-3.72 1.86 1.86 0 0 0-.074 3.72Z"/>
  <path fill="#fff" fill-rule="evenodd" stroke="#D2A24F" stroke-width="2" d="M40.2 74.519c-7.335-4.7-19.03-22.543-23.185-28.224-1.186-1.621-.774-4.04-.006-5.863 1.349-3.199 6.361-13.33 6.361-13.33s-6.28-3.902-7.538-5.855c-1.082-1.681-.006-5.862-.006-5.862s2.894-3.556 4.631-4.268c1.738-.713 4-.664 5.794-.006 1.932.708 5.799 4.258 5.799 4.258s11.197-4.275 16.798-4.28c5.6-.006 16.807 4.247 16.807 4.247s3.859-3.557 5.79-4.27c1.792-.66 4.055-.714 5.793-.005 1.74.709 4.64 4.26 4.64 4.26s1.084 4.178.005 5.862c-1.253 1.955-7.526 5.87-7.526 5.87s5.032 10.12 6.387 13.317c.772 1.82 1.132 4.206.006 5.863C76.884 51.92 66.333 69.786 59.285 74.5c-5.145 3.442-13.866 3.364-19.086.019Z" clip-rule="evenodd"/>
  <path fill="#FCC8C8" d="M72.336 14.03c-1.222.43-3.653 2.605-3.653 2.605l5.582 7.273s3.96-2.383 4.746-3.584c.677-1.033-.033-3.617-.033-3.617s-1.858-2.205-2.965-2.651c-1.108-.446-2.543-.425-3.677-.026ZM18.027 20.546c.867 1.428 5.255 4.245 5.255 4.245l6.224-8.73s-2.69-2.58-4.044-3.084c-1.258-.468-2.851-.483-4.082.058-1.23.542-3.302 3.19-3.302 3.19s-.798 3.091-.051 4.32Z"/>
  <path fill="#D24F5C" fill-rule="evenodd" d="M35.738 34.448c-.292-.827-1.827-1.634-2.835-.418s-.912 3.302 1.217 4.815c2.13 1.513 2.444 1.676 2.444 1.676l-.826-6.073Zm0 0c.06-.875 1.324-2.062 2.62-1.16.933.649 1.434 1.883 1.031 3.278-.157.546-.454 1.117-.917 1.687-1.648 2.026-1.908 2.268-1.908 2.268l-.826-6.073Z" clip-rule="evenodd"/>
  <path stroke="#D24F5C" stroke-linecap="round" stroke-linejoin="round" stroke-miterlimit="1.5" stroke-width=".87" d="M35.738 34.448c-.292-.827-1.827-1.634-2.835-.418s-.912 3.302 1.217 4.815c2.13 1.513 2.444 1.676 2.444 1.676m-.826-6.073.826 6.073m-.826-6.073c.06-.875 1.324-2.062 2.62-1.16.933.649 1.434 1.883 1.031 3.278-.157.546-.454 1.117-.917 1.687-1.648 2.026-1.908 2.268-1.908 2.268"/>
  <path fill="#D24F5C" fill-rule="evenodd" d="M62.221 34.634c.29-.827 1.824-1.637 2.834-.423 1.011 1.214.919 3.3-1.208 4.817-2.126 1.517-2.44 1.68-2.44 1.68l.814-6.074Zm0 0c-.062-.874-1.328-2.06-2.623-1.155-.93.65-1.43 1.886-1.024 3.28.159.546.456 1.116.92 1.685 1.652 2.024 1.913 2.264 1.913 2.264l.814-6.074Z" clip-rule="evenodd"/>
  <path stroke="#D24F5C" stroke-linecap="round" stroke-linejoin="round" stroke-miterlimit="1.5" stroke-width=".87" d="M62.221 34.634c.29-.827 1.824-1.637 2.834-.423 1.011 1.214.919 3.3-1.208 4.817-2.126 1.517-2.44 1.68-2.44 1.68m.814-6.074-.814 6.074m.814-6.074c-.062-.874-1.328-2.06-2.623-1.155-.93.65-1.43 1.886-1.024 3.28.159.546.456 1.116.92 1.685 1.652 2.024 1.913 2.264 1.913 2.264"/>
  <path stroke="#B8BDBD" stroke-linecap="round" stroke-linejoin="round" stroke-miterlimit="1.5" stroke-width=".869" d="M45.405 40.572 43.68 54.825m8.673-14.26 1.752 14.25m-5.204 9.044.005 5.214s1.45 1.737 2.32 1.736c.868 0 2.192-.86 2.894-1.74.772-.967 1.735-4.058 1.735-4.058m-6.953-1.152.005 5.214s-1.447 1.74-2.316 1.74c-.87.002-2.194-.856-2.899-1.735-.773-.965-1.742-4.054-1.742-4.054"/>
  <path fill="#2B0609" fill-rule="evenodd" d="m43.684 54.827 10.43-.01s2.015 1.221 1.74 2.083c-.481 1.507-3.085 5.797-4.629 6.957-1.235.929-3.398.93-4.635.005-1.546-1.157-4.158-5.442-4.642-6.948-.277-.862 1.736-2.087 1.736-2.087Z" clip-rule="evenodd"/>
</svg>