<svg xmlns="http://www.w3.org/2000/svg" width="64" height="64" fill="none">
  <path stroke="#D2A24F" stroke-linecap="round" stroke-linejoin="round" stroke-width="2" d="m34.527 6.225 2.966 3.369m0 0 2.967 3.369m-2.967-3.37 4.01-.54m-4.01.54 1.044-3.908m-1.044 3.909-4.01.54m4.01-.54-1.043 3.91m-3.137 45.692c.378-5.078-8.731-4.009-8.014-9.102.717-5.094 9.894-4.25 10.611-9.343.717-5.093-9.072-4.015-8.014-9.102.926-4.45 8.31-1.258 9.285-8.175M53 19.742l.842-.742m-.315 11.225 2.966 3.369m0 0 2.966 3.369m-2.966-3.37 4.01-.54m-4.01.54 1.044-3.908m-1.044 3.909-4.01.54m4.01-.54-1.044 3.91M41.858 56.571c-.027-3.976.884-9.613 7.6-15.676m3.411 17.576 1.104-.202M17.053 28l.742.842M6.527 37.225l2.966 3.369m0 0 2.966 3.369m-2.966-3.37 4.01-.54m-4.01.54 1.044-3.908m-1.044 3.909-4.01.54m4.01-.54-1.043 3.91m9.06 14.223c-.97-.939-2.966-3.74-3.2-7.433"/>
</svg>