<svg width="776" height="256" viewBox="0 0 776 256" fill="none" xmlns="http://www.w3.org/2000/svg">
<path d="M486.345 157.182V231C486.345 235.418 482.763 239 478.345 239H411.517M486.345 157.182L497.924 155.245C505.273 154.016 509.737 146.457 507.265 139.428L491.985 95.9825C488.606 86.3742 479.53 79.9453 469.345 79.9453H452.138V63.4908C452.138 60.7293 449.899 58.4907 447.138 58.4907H422.931C420.17 58.4907 417.931 60.7293 417.931 63.4907V79.9453H306.655C296.47 79.9453 287.394 86.3742 284.015 95.9825L268.735 139.428C266.263 146.457 270.727 154.016 278.076 155.245L289.655 157.182M486.345 157.182H421.345C412.508 157.182 405.345 150.018 405.345 141.182V134.691C405.345 125.302 397.734 117.691 388.345 117.691H387.655C378.266 117.691 370.655 125.302 370.655 134.691V141.182C370.655 150.018 363.492 157.182 354.655 157.182H289.655M289.655 157.182V231C289.655 235.418 293.237 239 297.655 239H364.483M411.517 239H364.483M411.517 239V199.735C411.517 186.747 400.988 176.218 388 176.218V176.218C375.012 176.218 364.483 186.747 364.483 199.735V239M319.586 208.673H336.69M319.586 208.673V181.218C319.586 178.457 321.825 176.218 324.586 176.218H331.69C334.451 176.218 336.69 178.457 336.69 181.218V208.673M319.586 208.673H315.5M336.69 208.673H341M439.31 208.673H456.414M439.31 208.673V181.218C439.31 178.457 441.549 176.218 444.31 176.218H451.414C454.175 176.218 456.414 178.457 456.414 181.218V208.673M439.31 208.673H434.5M456.414 208.673H461M396.5 215.5H404.5V218M380.5 157H395.603M380.5 157V135.097C380.5 130.926 383.881 127.545 388.052 127.545V127.545C392.222 127.545 395.603 130.926 395.603 135.097V157M380.5 157H377M395.603 157H399M419.555 22.2001C425.047 12.0432 434.699 23.0617 434.699 23.0617C434.699 23.0617 442.963 12.4488 449.764 21.2952C455.244 28.4243 435.375 45.6568 435.375 45.6568C435.375 45.6568 415.335 30.0049 419.555 22.2001Z" stroke="#D2A24F" stroke-width="4" stroke-linecap="round" stroke-linejoin="round"/>
<path d="M602.308 55V89.5844" stroke="#D2A24F" stroke-width="2" stroke-miterlimit="1.5" stroke-linecap="round" stroke-linejoin="round"/>
<path d="M586 72.2969L618.608 72.2906" stroke="#D2A24F" stroke-width="2" stroke-miterlimit="1.5" stroke-linecap="round" stroke-linejoin="round"/>
<path d="M589.824 82.1636L614.782 62.4267" stroke="#D2A24F" stroke-width="2" stroke-miterlimit="1.5" stroke-linecap="round" stroke-linejoin="round"/>
<path d="M591.295 60.9829L613.319 83.5995" stroke="#D2A24F" stroke-width="2" stroke-miterlimit="1.5" stroke-linecap="round" stroke-linejoin="round"/>
<path d="M612.219 169V221.371" stroke="#D2A24F" stroke-width="2" stroke-miterlimit="1.5" stroke-linecap="round" stroke-linejoin="round"/>
<path d="M589 195.175L635.442 195.165" stroke="#D2A24F" stroke-width="2" stroke-miterlimit="1.5" stroke-linecap="round" stroke-linejoin="round"/>
<path d="M594.44 210.132L629.987 180.244" stroke="#D2A24F" stroke-width="2" stroke-miterlimit="1.5" stroke-linecap="round" stroke-linejoin="round"/>
<path d="M596.539 178.046L627.906 212.294" stroke="#D2A24F" stroke-width="2" stroke-miterlimit="1.5" stroke-linecap="round" stroke-linejoin="round"/>
<g clip-path="url(#clip0_9_15337)">
<path d="M137.817 50.8984L161.243 97.7374" stroke="#D2A24F" stroke-width="2" stroke-miterlimit="1.5" stroke-linecap="round" stroke-linejoin="round"/>
<path d="M128.758 84.6953L170.29 63.9125" stroke="#D2A24F" stroke-width="2" stroke-miterlimit="1.5" stroke-linecap="round" stroke-linejoin="round"/>
<path d="M140.314 95.6387L158.737 53.0073" stroke="#D2A24F" stroke-width="2" stroke-miterlimit="1.5" stroke-linecap="round" stroke-linejoin="round"/>
<path d="M127.839 66.0039L171.213 82.6033" stroke="#D2A24F" stroke-width="2" stroke-miterlimit="1.5" stroke-linecap="round" stroke-linejoin="round"/>
</g>
<path d="M573.148 124V153.644" stroke="#D2A24F" stroke-width="2" stroke-miterlimit="1.5" stroke-linecap="round" stroke-linejoin="round"/>
<path d="M560 138.812L586.288 138.807" stroke="#D2A24F" stroke-width="2" stroke-miterlimit="1.5" stroke-linecap="round" stroke-linejoin="round"/>
<path d="M563.51 129.886L582.78 147.767" stroke="#D2A24F" stroke-width="2" stroke-miterlimit="1.5" stroke-linecap="round" stroke-linejoin="round"/>
<path d="M203.148 117V146.644" stroke="#D2A24F" stroke-width="2" stroke-miterlimit="1.5" stroke-linecap="round" stroke-linejoin="round"/>
<path d="M190 131.812L216.288 131.807" stroke="#D2A24F" stroke-width="2" stroke-miterlimit="1.5" stroke-linecap="round" stroke-linejoin="round"/>
<path d="M193.51 122.886L212.78 140.767" stroke="#D2A24F" stroke-width="2" stroke-miterlimit="1.5" stroke-linecap="round" stroke-linejoin="round"/>
<path d="M183.308 173V207.584" stroke="#D2A24F" stroke-width="2" stroke-miterlimit="1.5" stroke-linecap="round" stroke-linejoin="round"/>
<path d="M167 190.297L199.608 190.291" stroke="#D2A24F" stroke-width="2" stroke-miterlimit="1.5" stroke-linecap="round" stroke-linejoin="round"/>
<path d="M170.824 200.164L195.782 180.427" stroke="#D2A24F" stroke-width="2" stroke-miterlimit="1.5" stroke-linecap="round" stroke-linejoin="round"/>
<path d="M172.295 178.983L194.319 201.6" stroke="#D2A24F" stroke-width="2" stroke-miterlimit="1.5" stroke-linecap="round" stroke-linejoin="round"/>
<defs>
<clipPath id="clip0_9_15337">
<rect width="60" height="60" fill="white" transform="translate(109 60.8389) rotate(-26.5717)"/>
</clipPath>
</defs>
</svg>
