<svg xmlns="http://www.w3.org/2000/svg" width="64" height="64" fill="none">
  <path stroke="#D2A24F" stroke-linejoin="round" stroke-width="2" d="M13 12.5 18 31l5-18.5m-10 0a7.666 7.666 0 0 0-6.5 7.576V35l4.5 2.5L14 60h8l3-22.5 4.5-2.5V20.076A7.666 7.666 0 0 0 23 12.5m-10 0 5-1.5m-5 1.5V8l5 3m5 1.5L18 11m5 1.5V8l-5 3m22.582 11.86h10.855m-10.855 0v4.524m0-4.523s-2.284-5.467-2.194-9.175C38.443 11.42 39.428 8 39.428 8h3.81v1.21a10 10 0 0 0 2.41 6.51l.361.421.362-.421a10 10 0 0 0 2.41-6.51V8h3.695s1.17 3.4 1.27 5.686c.161 3.718-2.31 9.175-2.31 9.175m0 0v4.523m0 0H40.583m10.855 0s6.596 11.836 6.696 29.21c.001.262-.051.526-.214.73-.406.51-1.496 1.498-4.173 2.208M40.582 27.383c-2.179 2.78-6.521 11.585-6.581 29.24-.001.242.043.488.188.681.375.502 1.425 1.508 4.112 2.227m7.708.822V46.268m0 14.086c3.462 0 5.952-.35 7.737-.822m-7.737.822c-3.462 0-5.94-.35-7.708-.822m15.445 0-2.194-13.134M38.301 59.53l2.166-13.133"/>
</svg>