<svg id="hotel" xmlns="http://www.w3.org/2000/svg" fill="none" viewBox="0 0 800 564">
  <path stroke="#D2A24F" stroke-linejoin="bevel" stroke-width="4" d="M7 559V273.06M149.9 559V273.06M274.96 559V273.06M382.14 559V273.06m-32.16-62.54 32.16 27.27v35.28m-32.16-62.55-12.97-5.41a22 22 0 0 0-16.93 0l-12.97 5.4m42.87 0h201.86m-244.73 0-32.16 27.28v35.28m32.16-62.55H136.13m522.9-35.75h13.39l-17.86-17.87m4.46 17.87H551.84m107.18 0v35.75m-107.18-35.75h-13.4l17.87-17.87m-4.47 17.87v35.75m102.72-53.62-26.8-71.48m26.8 71.48H556.3m26.8-71.48-26.8 71.48m26.8-71.48h44.65m-44.66 0h-13.4V67.55h24.04m34.02 17.87h13.4V67.55h-13.4m31.26 397.63V559m0-93.82H551.84m107.18 0h8.94v-13.4h-8.94M551.84 559v-93.82m0 0h-8.93v-13.4h8.93M578.64 559v-44.68a26.8 26.8 0 1 1 53.59 0V559m-496.1-348.48-29.1-80.42H49.88L7 248.6v24.47m129.13-62.55 13.78 38.09v24.45m401.93-62.54v62.54m107.18-62.54h57.65c3.23 0 6.44.52 9.5 1.54l27.84 9.28a30 30 0 0 1 13.1 8.71L793 259.66v13.4m-133.98-62.54v62.54M793 559V273.06m-643.1 0h125.05m-125.04 0c-17.09-5.04-31.86-8.7-45.6-10.87m170.64 10.88c11.82-2.71 22.21-4.6 32.16-5.67m75.03 5.67h169.7m-169.7 0c-12-2.42-22.48-4.18-32.16-5.3m201.86 5.3v178.7m107.18-178.7H793m-133.98 0v178.7M7 273.07c16.5-5.6 30.89-9.37 44.57-11.42m0 0v-39.97a3 3 0 0 1 1.29-2.47l23.77-16.52a3 3 0 0 1 3.46.03l22.98 16.5a3 3 0 0 1 1.25 2.43v40.54m-52.75-.54c17.74-2.64 34.3-2.39 52.75.54m447.52 189.58h107.18M583.1 67.55V49.68L605.43 5l22.33 44.68v17.87m0 0h-10.9m-23.12 0V45.2s6.5-13.4 11.7-13.4c5.19 0 11.43 13.4 11.43 13.4v22.34m-23.13 0h23.13M307.1 267.4v-32.14a13 13 0 0 1 5.26-10.45l8.44-6.25a13 13 0 0 1 15.47 0l8.44 6.25a13 13 0 0 1 5.26 10.45v32.51m-42.87-.37c14.24-1.53 27.56-1.4 42.87.37m-271.53-8.25v-23.14m0 23.14H64.63v-23.14a6.91 6.91 0 1 1 13.82 0m0 23.14h13.83v-23.14a6.91 6.91 0 1 0-13.83 0m-12.31 50.09v26.8m0-26.8h24.63m-24.63 0h-15.4v26.8h15.4m0-26.8v26.8m24.63-26.8v26.8m0-26.8v26.8m0-26.8h15.4v26.8h-15.4m0 0H66.14m0 31.28v35.74m0-35.74h24.62m-24.62 0h-15.4v35.74h15.4m0-35.74v35.74m24.62-35.74v35.74m0-35.74v35.74m0-35.74h15.4v35.74h-15.4m0 0H66.14m1.08 40.21v35.74m0-35.74H89.9m-22.68 0H53.04m14.18 0v35.74M89.9 420.5v35.74m0-35.74v35.74m0-35.74h14.18M89.9 456.24H67.22m22.68 0h14.18V420.5m-36.86 35.74H53.04V420.5m0 0h-4.97v-4.24s18.67-7.58 30-7.45c11.34.13 30.02 7.45 30.02 7.45v4.24h-4m-36.87 71.48v44.68m0-44.68H89.9m-22.68 0H53.04m14.18 0v44.68m22.68-44.68v44.68m0-44.68v44.68m0-44.68h14.18M89.9 536.66H67.22m22.68 0h14.18v-44.68m-36.86 44.68H53.04v-44.68m0 0h-4.97v-4.24s18.67-7.58 30-7.45c11.34.13 30.01 7.45 30.01 7.45v4.24h-4M202 416.74v39.51h22.32v-39.5m-22.32 0h22.32m-22.32 0h-4.13v-1.25s8.63-6.1 15.31-6.11c6.7 0 15.3 6.11 15.3 6.11v1.24h-4.16m-61.03 0v39.51h22.33v-39.5m-22.33 0h22.33m-22.33 0h-4.13v-1.25s8.63-6.1 15.32-6.11c6.7 0 15.3 6.11 15.3 6.11v1.24h-4.16m55.1 0v39.51h22.32v-39.5m-22.33 0h22.33m-22.33 0h-4.13v-1.25s8.64-6.1 15.32-6.11c6.7 0 15.3 6.11 15.3 6.11v1.24h-4.16m65.5-150.8V242.8m0 23.14h-13.82V242.8a6.91 6.91 0 1 1 13.82 0m0 23.14h13.83V242.8a6.91 6.91 0 1 0-13.82 0m-8.94 249.18v44.68m0-44.68h17.87m-17.87 0h-11.16m11.17 0v44.68m17.86-44.68v44.68m0-44.68v44.68m0-44.68h11.16m-11.16 44.68H319.6m17.87 0h11.16v-44.68m-29.02 44.68h-11.17v-44.68m0 0h-3.9v-4.24s14.7-7.58 23.62-7.45c8.92.13 23.63 7.45 23.63 7.45v4.24h-3.16m-29.02-71.48v35.74m0-35.74h17.86m-17.87 0h-11.16m11.17 0v35.74m17.86-35.74v35.74m0-35.74v35.74m0-35.74h11.16m-11.16 35.74H319.6m17.87 0h11.16V420.5m-29.02 35.74h-11.17V420.5m0 0h-3.9v-4.24s14.7-7.58 23.62-7.45c8.92.13 23.63 7.45 23.63 7.45v4.24h-3.16m-11.16-75.95v35.74m0-35.74h11.16v35.74h-11.16m0-35.74H319.6m17.87 0v35.74m0 0H319.6m0-35.74v35.74m0-35.74h-11.16v35.74h11.16m0-35.74v35.74m0-93.82h-11.16v26.8h11.16m0-26.8v26.8m0-26.8v26.8m0-26.8h17.87m-17.87 26.8h17.87m0-26.8v26.8m0-26.8v26.8m0-26.8h11.16v26.8h-11.16m278.94-13.4v-33.5m0 33.5H594.1m22.33 0h22.33v-33.5a11.17 11.17 0 1 0-22.33 0m-22.33 33.5v-33.5m0 33.5h-22.33v-33.5a11.17 11.17 0 1 1 22.33 0m22.33 0a11.17 11.17 0 1 0-22.33 0m8.94-29.05v-24.57m0 24.57H580.7v-24.57a11.17 11.17 0 1 1 22.33 0m0 24.57h22.33v-24.57a11.17 11.17 0 1 0-22.33 0m6.87-165.28a4.47 4.47 0 1 1-8.94 0 4.47 4.47 0 0 1 8.94 0ZM60.98 153.07v4.74l-10.24 2.46v-7.2a5.12 5.12 0 1 1 10.24 0Zm22.6-1.38v6.12H73.34v-6.12a5.12 5.12 0 1 1 10.24 0Zm22.6 1.82v7.47l-10.24-3.17v-4.3a5.12 5.12 0 1 1 10.23 0ZM129 240.92v26.32l-9.56-2.38v-23.94a4.78 4.78 0 1 1 9.56 0Zm-105.26.3v26.48l9.57-2.84v-23.65a4.78 4.78 0 1 0-9.57 0Zm8.13 66.13v-18.78l-6.7 1.5v24.05l6.7-1.5v-5.27Zm89 0v-18.78l6.7 1.5v24.05l-6.7-1.5v-5.27Zm-90.43 64.96v-25.53l-6.7 2.05v32.67l6.7-2.04v-7.15Zm90.43 0v-25.53l6.7 2.05v32.67l-6.7-2.04v-7.15Zm-90.43 76.44v-25.53l-6.7 2.04v32.68l6.7-2.04v-7.15Zm90.43 0v-25.53l6.7 2.04v32.68l-6.7-2.04v-7.15Zm-89 45.47-11.17 2.11v42.3l11.17-2.12v-42.3Zm89 0 11.16 2.11v42.3l-11.16-2.12v-42.3Zm119.83-108.9v-27.37h22.33v31.28H240.7v-3.91Zm-38.7 0v-27.37h22.33v31.28H202v-3.91Zm-38.7 0v-27.37h22.33v31.28H163.3v-3.91Zm22.33-112.25v-20.11a11.17 11.17 0 1 0-22.33 0v20.1h22.33Zm38.7-20.11v20.1H202v-20.1a11.17 11.17 0 1 1 22.33 0Zm38.7 0v20.1H240.7v-20.1a11.17 11.17 0 1 1 22.33 0ZM202 322.76V295.4h22.33v31.28H202v-3.91Zm-38.7 0V295.4h22.33v31.28H163.3v-3.91Zm77.4 0V295.4h22.33v31.28H240.7v-3.91ZM202 532.19V492h22.33v44.67H202v-4.47Zm-38.7 0V492h22.33v44.67H163.3v-4.47Zm77.4-40.2h22.33v44.67H240.7V492ZM375.86 271.7v-26.13a4.79 4.79 0 0 0-9.57 0v24.21l9.57 1.92ZM282.13 245v26.14l9.57-1.92V245a4.78 4.78 0 1 0-9.57 0Zm12.92 249.23-11.16 2.11v42.3l11.16-2.12v-42.3Zm66.99 0 11.16 2.11v42.3l-11.16-2.12v-42.3Zm0-45.47v-25.53l6.7 2.04v32.68l-6.7-2.04v-7.15Zm-66.99 0v-25.53l-6.7 2.04v32.68l6.7-2.04v-7.15Zm0-76.44v-25.53l-6.7 2.05v32.67l6.7-2.04v-7.15Zm66.99 0v-25.53l6.7 2.05v32.67l-6.7-2.04v-7.15Zm0-64.96v-18.78l6.7 1.5v24.05l-6.7-1.5v-5.27Zm-66.99 0v-18.78l-6.7 1.5v24.05l6.7-1.5v-5.27Zm161.51-34.29v-20.1a11.17 11.17 0 1 0-22.32 0v20.1h22.32Zm-38.7-20.1v20.1h-22.33v-20.1a11.17 11.17 0 1 1 22.33 0Zm77.4 0v20.1h-22.32v-20.1a11.17 11.17 0 1 1 22.33 0Zm38.7 0v20.1h-22.32v-20.1a11.17 11.17 0 1 1 22.33 0Zm-99.72 132.36v-27.37h22.32v31.28h-22.32v-3.91Zm-38.7 0v-27.37h22.32v31.28h-22.33v-3.91Zm77.4 0v-27.37h22.33v31.28h-22.33v-3.91Zm38.7 0v-27.37h22.33v31.28h-22.33v-3.91Zm-77.4-62.55V295.4h22.32v31.28h-22.32v-3.91Zm-38.7 0V295.4h22.32v31.28h-22.33v-3.91Zm77.4 0V295.4h22.33v31.28h-22.33v-3.91Zm38.7 0V295.4h22.33v31.28h-22.33v-3.91Zm-77.4 129V420.5h22.32v35.74h-22.32v-4.47Zm-38.7 0V420.5h22.32v35.74h-22.33v-4.47Zm77.4 0V420.5h22.33v35.74h-22.33v-4.47Zm38.7 0V420.5h22.33v35.74h-22.33v-4.47Zm-77.4 80.42V492h22.32v44.67h-22.32v-4.47Zm-38.7 0V492h22.32v44.67h-22.33v-4.47Zm77.4 0V492h22.33v44.67h-22.33v-4.47Zm38.7 0V492h22.33v44.67h-22.33v-4.47Zm82.45-80.42V413.8a11.17 11.17 0 1 0-22.33 0v37.97h22.33Zm44.66-37.97v37.97h-22.33V413.8a11.17 11.17 0 1 1 22.33 0Zm-44.66-29.04v-51.38a11.17 11.17 0 1 0-22.33 0v51.38h22.33Zm44.66-51.38v51.38h-22.33v-51.38a11.17 11.17 0 1 1 22.33 0Zm-22.91-196.44v19.86H593.5v-19.86a11.17 11.17 0 1 1 22.33 0Zm145.9 136.13v-20.11a11.17 11.17 0 1 0-22.33 0v20.1h22.33Zm-49.13-20.11v20.1h-22.33v-20.1a11.17 11.17 0 1 1 22.33 0Zm26.8 69.8V295.4h22.33v31.28H739.4v-3.91Zm-49.13 0V295.4h22.33v31.28h-22.33v-3.91Zm0 62.56v-27.37h22.33v31.28h-22.33v-3.91Zm49.13 0v-27.37h22.33v31.28H739.4v-3.91Zm-49.13 66.45V420.5h22.33v35.74h-22.33v-4.47Zm49.13 0V420.5h22.33v35.74H739.4v-4.47Zm-49.13 80.42V492h22.33v44.67h-22.33v-4.47Zm49.13 0V492h22.33v44.67H739.4v-4.47Z"/>
</svg>