<svg xmlns="http://www.w3.org/2000/svg" fill="none" viewBox="0 0 1280 600">
  <path fill="#D2A24F" d="M261.2 167.3c4.2-1.4 9-2 14.6-2s8.2 1.5 8.2 4.7c0 2-1 3.6-3 4.8a18.9 18.9 0 0 1-9 1.8c-6.3 0-11.2-1.4-15-4.4a51.8 51.8 0 0 0-3.3 3.8c-.8 1-1.8 3-2.8 6-1 3-1.4 6.6-1.4 10.7s1.7 7.8 5.2 11a17 17 0 0 0 11 4.5A26.3 26.3 0 0 0 284 201c2-2 3.6-4 5-6.4 2-3 3.4-5.5 4-7.8l2.4.6c0 .3-.3 1.1-1 2.6a32.7 32.7 0 0 1-3.2 5.7 49.3 49.3 0 0 1-5.7 6.9 33.7 33.7 0 0 1-22 8 32 32 0 0 1-20.1-5.5c-4.8-3.6-7.2-8.3-7.2-14.2s1.8-10.5 5.4-13.9c3.7-3.4 8-5.8 13-7.2a23.9 23.9 0 0 1-5.5-15.6c0-6 2.4-11.5 7.2-16.2 5-4.7 12-7 21-7 7 0 12.3 1.2 16 3.6 3.8 2.4 5.6 5.5 5.6 9.2 0 3.6-1 7.3-2.9 11.1a29.3 29.3 0 0 0-3 9h-2.6a29 29 0 0 1 3.1-9.2c2-3.8 3-7.3 3-10.5s-1.8-6-5.3-8c-3.3-2-7.6-3.1-13-3.1a17 17 0 0 0-13.2 6.1c-3.7 4-5.6 10.2-5.6 18.5 0 4.5.6 7.7 1.7 9.6Zm1.8 3.5a11 11 0 0 0 3 2.2c1.7 1 4 1.5 6.6 1.5 2.8 0 5-.4 6.5-1.2 1.7-.9 2.5-1.9 2.5-3 0-2-2.1-2.9-6.4-2.9s-8.7.6-13 2l.8 1.4Zm62.1 28.9a15.5 15.5 0 0 1-4.3 3.7c-1.7 1.1-4 1.7-7 1.7s-5.3-1-7.3-2.8a10 10 0 0 1-3-7.8l.3-3.1 7.8-43.2c1.4-8 3.4-13.6 5.9-17a12 12 0 0 1 10-5 8.9 8.9 0 0 1 7.1 3.3c2 2.1 2.9 5.4 2.9 9.8s-1.7 10.7-5.2 18.9c-3.3 8.1-5 14-5 17.8H325c0-4.2 1.7-10.2 5-18 3.4-8 5.1-14.3 5.1-19 0-3-.7-5.4-2-7.5-1.3-2-3-3.1-4.8-3.1-.1 2-1.5 11.4-4.2 28a1866 1866 0 0 1-8 46.3c2.3 0 4.4-1.2 6.3-3.5a22.6 22.6 0 0 0 4-7l1.4-3.6 2.2 1a24.6 24.6 0 0 1-2 5 27.5 27.5 0 0 1-3 5Zm37.4-42.4c10.1 0 15.2 4 15.2 12.1 0 5-2.4 9-7.2 11.6a44.2 44.2 0 0 1-20.3 4l-.2 6.8c0 3.6.8 6.2 2.4 8a8.5 8.5 0 0 0 6.2 2.5c2.5 0 4.8-.5 6.8-1.4a15.6 15.6 0 0 0 4.9-3.4 30 30 0 0 0 3.1-4.2 15 15 0 0 0 2.4-5l2.2 1c-.3 1.2-1 3-2.2 5.1a22.5 22.5 0 0 1-4 5.2 21.8 21.8 0 0 1-6.3 3.8 25 25 0 0 1-9.4 1.7c-6.5 0-11.4-1.5-14.7-4.6-3.3-3.1-5-7.3-5-12.7 0-9.5 2.4-17 7.1-22.3 4.7-5.5 11-8.2 19-8.2Zm12.2 12.1a9 9 0 0 0-2.4-6.4c-1.5-1.8-3.8-2.7-7-2.7-3 0-6 1.9-9 5.5a33.6 33.6 0 0 0-5.7 16.4c16-.1 24.1-4.4 24.1-12.8Zm56 33.3c2 0 4-1.1 6-3.4l1.8 1.5c-.6 1-1.8 2-3.7 3a15 15 0 0 1-6.4 1.3c-7.3 0-10.9-3.3-10.9-9.9 0-2.8.7-7.8 2.2-15a97 97 0 0 0 2.1-14.1c0-3.5-1.6-5.2-4.9-5.2-2.6 0-5.2 1.7-7.7 5.2a45.3 45.3 0 0 0-6 14.1l-4 22.5a8.6 8.6 0 0 0 6-3.4l1.9 1.5a11.3 11.3 0 0 1-9 4.3c-3.6 0-6.5-1-8.6-2.8-2-1.8-3-4.2-3-7.2 0-1.1.7-5.5 2-13.2l4-22.2a8.5 8.5 0 0 0-6 3.4l-1.9-1.5c2.4-2.8 5.4-4.3 9-4.3 3.7 0 6.5 1 8.5 2.8 2 1.8 3 4.4 3 7.8v.7c3.3-7.5 8.4-11.3 15.4-11.3 4.7 0 8.4 1.4 11 4.1a15 15 0 0 1 4 11c0 2.5-.8 7.3-2.3 14.4-1.5 7-2.3 12.4-2.5 15.9Zm55.8 2.4c-7 0-10.9-3.1-11.5-9.3-3.5 6.2-8 9.3-13.3 9.3s-9.7-1.6-12.9-4.8a19 19 0 0 1-4.7-13.7c0-9.1 2.3-16.3 6.8-21.5a21.9 21.9 0 0 1 17.4-7.8c5.8 0 9.7 2.8 11.6 8.3l1.3-7.2c6 0 10.3-.2 13.2-.7l1.6-.4-8.3 45.4a8.5 8.5 0 0 0 6-3.4l1.8 1.5a11.3 11.3 0 0 1-9 4.3Zm-28.8-12.4c0 3.6.4 6.1 1.3 7.6 1 1.3 2.4 2 4.3 2 2 0 4-1 6-3.1a30.1 30.1 0 0 0 6.3-10.3l1.3-7.5 1.8-9.8c-.2-3-1-5.7-2.5-8s-3.3-3.3-5.4-3.3c-4 0-7.1 3.5-9.5 10.6a66.5 66.5 0 0 0-3.6 21.8Zm107-10a58 58 0 0 0 20.4 3.7c7 0 13-2.4 17.7-7.2a26 26 0 0 0 7-18.6h2.3c0 8-2.4 14.5-7.2 19.6a26 26 0 0 1-18.6 8.3 34 34 0 0 1-20.2 20.2 34.1 34.1 0 0 1-11.5 1.9c-8.6 0-15.3-1.8-20-5.5-4.9-3.6-7.3-8.3-7.3-14.2s1.8-10.5 5.4-13.9c3.7-3.4 8-5.8 13-7.2a23.9 23.9 0 0 1-5.4-15.6c0-6 2.4-11.5 7.2-16.2 4.9-4.7 11.9-7 21-7 7 0 12.3 1.2 16 3.6 3.7 2.4 5.6 5.5 5.6 9.2 0 3.6-1 7.3-2.9 11.1a29.3 29.3 0 0 0-3.1 9h-2.5a29 29 0 0 1 3-9.2c2-3.8 3-7.3 3-10.5s-1.7-6-5.2-8a25 25 0 0 0-13-3.1c-5.1 0-9.6 2-13.3 6.1-3.6 4-5.5 10.2-5.5 18.5 0 4.5.6 7.7 1.7 9.6 4.2-1.4 9-2 14.5-2s8.3 1.5 8.3 4.7c0 2-1 3.6-3.1 4.8a18.4 18.4 0 0 1-9 1.8c-6.2 0-11.1-1.4-15-4.4a51.8 51.8 0 0 0-3.3 3.8c-.8 1-1.7 3-2.7 6-1 3-1.5 6.6-1.5 10.7s1.8 7.8 5.3 11c3.5 3 7 4.5 10.6 4.5a26 26 0 0 0 9.6-1.7 25.5 25.5 0 0 0 7-3.7 33 33 0 0 0 5.3-5.3c2-2.5 3.8-5.5 5.3-9-6.2 0-12.8-1.3-19.7-3.7l.9-2Zm-10.6-12a11 11 0 0 0 3 2.3c1.7 1 3.9 1.5 6.6 1.5 2.7 0 4.9-.4 6.5-1.2 1.7-.9 2.5-1.9 2.5-3 0-2-2.2-2.9-6.5-2.9s-8.6.6-13 2l.9 1.4Zm114.5 51.7V220c5-.3 8.3-1.5 10-3.9a44 44 0 0 0 5-16l11.5-66.4a84.2 84.2 0 0 0-38 10.7c-9 5.7-13.4 13.1-13.4 22.3 0 4.2 1.5 7.7 4.3 10.6 2 1.9 4.7 3.4 8 4.4a41.3 41.3 0 0 0 8 1.7l3.5-.1v2.5c-9.5 0-16.5-2.3-21-6.7a16 16 0 0 1-5-12.4c0-11.4 5.9-20.3 17.8-26.5 12-6.3 29-9.4 50.8-9.4 13.6 0 23.2 1.9 28.9 5.5 5.8 3.7 8.6 8.8 8.6 15.2 0 6.3-2.2 11.7-6.6 16.3-4.3 4.5-10 8-17.1 10.5 10.4 21.6 17 34.6 20 39 3 4.3 6.5 6.5 10.7 6.5a10 10 0 0 0 6.6-2.4 12 12 0 0 0 4.2-6.2h3c-2.6 8.3-8.8 12.5-18.8 12.5a26 26 0 0 1-15.8-4.6c-4-3-7.5-7.5-10.3-13.6l-13-28a79 79 0 0 1-7 .4 221.8 221.8 0 0 0-2.3 12.6A31.5 31.5 0 0 1 689 215a33 33 0 0 1-20.6 7.5Zm76-70.5c0-12.2-11.2-18.5-33.4-18.7l-7.2 46.2a53 53 0 0 0 28.8-8.5c7.8-5.5 11.7-11.8 11.7-19Zm27 53.2c-6.1 0-10.8-1.5-14-4.6-3.2-3.1-4.8-7-4.8-11.6 0-4.7.4-8.7 1.2-12a34 34 0 0 1 4.2-9.6c2-3.1 4.8-5.6 8.7-7.3 3.9-1.8 8.7-2.7 14.5-2.7 5.8 0 10.3 1.6 13.5 4.7 3.3 3 5 7.2 5 12.6a32 32 0 0 1-7.4 22c-4.8 5.7-11.7 8.5-20.8 8.5Zm-5.2-12.4c0 6.4 1.8 9.6 5.5 9.6 3.8 0 7-3.2 10-9.6a55 55 0 0 0 4.4-23c0-6.7-1.8-10.1-5.5-10.1-3.6 0-7 3-10 9.2-3 6.1-4.4 14-4.4 24Zm85.1 10c2 0 4-1.1 6-3.4l1.8 1.5c-.6 1-1.8 2-3.7 3a15 15 0 0 1-6.4 1.3c-7.3 0-10.9-3.3-10.9-9.9 0-2.8.7-7.8 2.2-15a97 97 0 0 0 2.1-14.1c0-3.5-1.6-5.2-4.9-5.2-5 0-9.1 6.4-12.5 19.1l-4.3 24h-14.4l8-44.3a8.5 8.5 0 0 0-6 3.4l-1.9-1.5c2.4-2.8 5.4-4.3 9-4.3 3.7 0 6.5 1 8.5 2.8 2 1.8 3 4.4 3 7.8v.3c3.2-7.2 7.9-10.9 14.2-10.9 4.5 0 8 1.3 10.6 3.7 2.6 2.4 4 5.8 4.3 10.2 1.5-4.4 3.4-7.8 5.7-10.2 2.4-2.4 5.7-3.7 10.1-3.7s8 1.4 10.6 4.1a15 15 0 0 1 4 11c0 2.5-.8 7.3-2.3 14.4a103 103 0 0 0-2.6 15.9c2 0 4-1.1 6-3.4l1.8 1.5c-.5 1-1.8 2-3.7 3a15 15 0 0 1-6.3 1.3c-7.3 0-11-3.3-11-9.9 0-2.8.8-7.8 2.2-15 1.4-7.2 2.2-11.9 2.2-14.1 0-3.5-1.7-5.2-5-5.2-5.7 0-10.4 8.6-13.9 25.7a114 114 0 0 0-2.5 16Zm86 2.4c-7 0-10.8-3.1-11.5-9.3-3.5 6.2-8 9.3-13.3 9.3s-9.6-1.6-12.8-4.8a19 19 0 0 1-4.7-13.7c0-9.1 2.2-16.3 6.7-21.5a21.9 21.9 0 0 1 17.4-7.8c5.9 0 9.7 2.8 11.7 8.3l1.3-7.2c5.9 0 10.3-.2 13.2-.7l1.5-.4-8.2 45.4a8.5 8.5 0 0 0 6-3.4l1.8 1.5a11.3 11.3 0 0 1-9 4.3Zm-28.7-12.4c0 3.6.4 6.1 1.3 7.6 1 1.3 2.4 2 4.3 2 2 0 3.9-1 5.9-3.1a30.1 30.1 0 0 0 6.3-10.3c.3-1 .7-3.5 1.4-7.5l1.8-9.8c-.3-3-1.1-5.7-2.6-8s-3.2-3.3-5.4-3.3c-3.9 0-7 3.5-9.4 10.6a66.5 66.5 0 0 0-3.6 21.8Zm91 10c1.9 0 3.9-1.1 6-3.4l1.8 1.5a9 9 0 0 1-3.8 3 15 15 0 0 1-6.3 1.3c-7.3 0-11-3.3-11-9.9 0-2.8.8-7.8 2.2-15a88.5 88.5 0 0 0 2.2-14.1c0-3.5-1.7-5.2-5-5.2-2.6 0-5.1 1.7-7.6 5.2a45.3 45.3 0 0 0-6 14.1l-4.1 22.5a8.6 8.6 0 0 0 6.1-3.4l1.8 1.5a11.3 11.3 0 0 1-9 4.3c-3.6 0-6.4-1-8.5-2.8-2-1.8-3-4.2-3-7.2 0-1.1.6-5.5 2-13.2l3.9-22.2a8.5 8.5 0 0 0-6 3.4l-1.8-1.5c2.4-2.8 5.4-4.3 9-4.3 3.7 0 6.5 1 8.5 2.8 2 1.8 3 4.4 3 7.8v.7c3.3-7.5 8.4-11.3 15.4-11.3 4.7 0 8.4 1.4 11 4.1a15 15 0 0 1 4 11c0 2.5-.8 7.3-2.3 14.4a100 100 0 0 0-2.5 15.9Zm17.4-74.3c-1.7-1.7-2.5-3.7-2.5-6.1s.8-4.5 2.5-6.1c1.7-1.8 3.7-2.7 6-2.7s4.5.9 6.2 2.7a8.1 8.1 0 0 1 2.6 6c0 4-1.7 8.1-5.2 12.4a28.1 28.1 0 0 1-14.8 9.3l-1-2.5a33 33 0 0 0 9-4.5c2.6-1.8 4.3-3.4 5-4.7l1-1.8c-.7.4-1.6.5-2.7.5-2.4 0-4.4-.8-6.1-2.5Zm9.5 73.6c8 0 11.9-5.9 11.9-17.6 0-2.8-.4-6.2-1.3-10.2l-1.5-7.3c-4.8 5-10.3 8.1-16.4 9.1v-2.8a32.2 32.2 0 0 0 16.2-9.9v-.5a19.3 19.3 0 0 1 2.5-9.7l.9-1.3h2.8c0 3.5.6 6.8 1.7 9.7a30.6 30.6 0 0 0 3.7 7.1 27.6 27.6 0 0 1 3.8 7 26.3 26.3 0 0 1 1.6 9.7 18 18 0 0 1-6.4 14.1c-4.3 3.8-9.4 5.7-15.4 5.7s-10.6-1.4-13.7-4.1c-3-2.7-4.5-5.8-4.5-9.4 0-3.6.8-6.1 2.6-7.6a9 9 0 0 1 6.2-2.4c2.4 0 4.4.8 6 2.4a7.9 7.9 0 0 1 2.3 6 8.8 8.8 0 0 1-2.3 6 7.6 7.6 0 0 1-5.8 2.6c-1 0-2.2-.2-3.3-.5 1.8 2.6 4.6 3.9 8.4 3.9Zm-544.5 68.6c7.8 0 14.4-1.5 20-4.6l1.2 2.2a36.2 36.2 0 0 1-17.1 5c-5 4.7-9.3 12.7-12.9 24a121.2 121.2 0 0 0-5.1 35.7c0 7.7 1.4 13.2 4.2 16.4 2.9 3.2 6.2 4.8 10 4.8 2.6 0 5-.6 7.5-1.8a23.7 23.7 0 0 0 5.5-3.3 79.2 79.2 0 0 0 5.3-5 61 61 0 0 1-2-17.8 92 92 0 0 1 15.4-49.5c4.7-6 9.5-9 14.4-9 2.4 0 4.2.7 5.4 2 1.3 1.2 2 3.5 2 6.9 0 6.8-2.3 15.8-6.7 27.1a128.9 128.9 0 0 1-16.8 30.9c.8 6.1 2.7 10.7 6 13.6 3.1 3 7.2 4.5 12.2 4.5 9 0 17.3-8.7 24.6-26.2a106.4 106.4 0 0 0 8.4-41.3c0-14-2.8-23.8-8.2-29.2l1.8-1.8c6 6 9 16.4 9 31.4 0 14-2.8 28-8.5 42-9 21.6-21.2 32.4-36.6 32.4-8 0-13.7-3.2-17.4-9.5a59.6 59.6 0 0 1-2-3.6 38.5 38.5 0 0 1-28.1 13.1c-6.7 0-11.6-2.2-15-6.7a26.6 26.6 0 0 1-4.7-16.1c0-6.3.8-12.6 2.4-18.8a92 92 0 0 1 5.7-16.2A93.5 93.5 0 0 1 470 289a107 107 0 0 1 12.9-15.9c-2.7 0-6-.3-10.3-.8a859.1 859.1 0 0 0-14.3-.7c-11.2 0-20 2.8-26.4 8.5a29.3 29.3 0 0 0-9.6 23.3c0 4.6 1 9 3.2 13a25 25 0 0 0 11.2 9.5 39.5 39.5 0 0 0 2.7 1.1l2 .6-.3 2.5c-1.5 0-3.7-.8-6.6-2.4a46.3 46.3 0 0 1-7.4-5c-2-1.9-3.8-4.5-5.3-7.8a29.6 29.6 0 0 1-2.2-11.5c0-10.6 3.5-19 10.5-25.1 7-6.3 16.3-9.4 28.2-9.4 4.8 0 9.2.3 13.2.9 4 .5 7.6.8 10.8.8Zm30 58v1.8l3.1-4.8a134 134 0 0 0 12.9-26 73 73 0 0 0 5-23c0-4.2-1.5-6.2-4.6-6.2-1.2 0-2.5.3-4 1A37.6 37.6 0 0 0 517 286a141 141 0 0 0-4.8 42.5Zm87.5-33.3c10.1 0 15.2 4 15.2 12.1 0 5-2.4 9-7.2 11.6a44.2 44.2 0 0 1-20.3 4l-.2 6.8c0 3.6.8 6.2 2.4 8a8.5 8.5 0 0 0 6.2 2.5c2.5 0 4.8-.5 6.8-1.4a15.6 15.6 0 0 0 4.9-3.4 30 30 0 0 0 3-4.2 14 14 0 0 0 2.5-5l2.2 1c-.3 1.2-1 3-2.2 5.1a22.5 22.5 0 0 1-4 5.2 21.8 21.8 0 0 1-6.3 3.8 25 25 0 0 1-9.4 1.7c-6.5 0-11.4-1.5-14.8-4.6a16.9 16.9 0 0 1-4.9-12.7c0-9.5 2.4-17 7.1-22.3 4.7-5.5 11-8.2 19-8.2Zm12.2 12.1a9 9 0 0 0-2.4-6.4c-1.5-1.8-3.8-2.7-7-2.7-3 0-6 1.9-9 5.5a33.6 33.6 0 0 0-5.7 16.4c16-.1 24.1-4.4 24.1-12.8Zm51.2 35.7c-7 0-10.9-3-11.5-9-3.5 6-8 9-13.5 9-5.4 0-9.6-1.5-12.5-4.6a18 18 0 0 1-4.3-12.7 34 34 0 0 1 6.7-22.3 21.5 21.5 0 0 1 17.4-8.2c4.1 0 7.3 1.3 9.5 3.7a13.6 13.6 0 0 1 1.8 3l6.5-35.4a8.5 8.5 0 0 0-6 3.4l-1.8-1.4a11 11 0 0 1 9-4.4c3.7 0 6.5 1 8.5 2.8 2 1.8 3 4.4 3 7.8 0 .6 0 1.7-.2 3.1-4 22-7.7 43-11.4 62.8a8.5 8.5 0 0 0 6-3.4l1.8 1.5a11.3 11.3 0 0 1-9 4.3Zm-28.2-12.4c0 3.7.4 6.2 1 7.6a4 4 0 0 0 3.7 2 8 8 0 0 0 4.8-1.7 14.3 14.3 0 0 0 3.8-4.3 42.9 42.9 0 0 0 4-7.5l3.6-19a13 13 0 0 0-2.5-7c-1.6-2.1-4.2-3.2-7.8-3.2-2.6 0-5 3.8-7.2 11.3s-3.4 14.8-3.4 21.8Zm86 12.4c-7 0-11-3-11.6-9-3.5 6-8 9-13.4 9s-9.6-1.5-12.5-4.6a18 18 0 0 1-4.3-12.7 34 34 0 0 1 6.7-22.3 21.5 21.5 0 0 1 17.4-8.2c4.1 0 7.3 1.3 9.5 3.7a13.6 13.6 0 0 1 1.8 3l6.5-35.4a8.5 8.5 0 0 0-6 3.4l-1.8-1.4a11 11 0 0 1 9-4.4c3.7 0 6.5 1 8.5 2.8 2 1.8 3 4.4 3 7.8 0 .6 0 1.7-.2 3.1L722 340.7a8.5 8.5 0 0 0 6-3.4l1.8 1.5a11.3 11.3 0 0 1-9 4.3Zm-28.2-12.4c0 3.7.3 6.2 1 7.6a4 4 0 0 0 3.6 2 8 8 0 0 0 4.8-1.7 14.3 14.3 0 0 0 3.9-4.3 42.9 42.9 0 0 0 4-7.5l3.5-19a13 13 0 0 0-2.5-7c-1.5-2.1-4.1-3.2-7.8-3.2-2.5 0-5 3.8-7.2 11.3s-3.3 14.8-3.3 21.8Zm66 8a11.3 11.3 0 0 1-9 4.4c-3.6 0-6.4-1-8.5-2.8-2-1.8-3-4.2-3-7.2 0-1 .6-5.4 2-13l3.9-21.5h-5l.2-2.2h5.1c6 0 10.3-.2 13.1-.7l1.7-.4-8.3 45.4a8.5 8.5 0 0 0 6-3.4l1.8 1.5Zm-10.5-54.9c-1.7-1.7-2.6-3.7-2.6-6.1s.9-4.5 2.6-6.1c1.6-1.8 3.7-2.7 6-2.7s4.5.9 6.2 2.7c1.8 1.6 2.6 3.7 2.6 6s-.8 4.5-2.6 6.2c-1.7 1.7-3.7 2.5-6.1 2.5s-4.5-.8-6.1-2.5Zm63.8 56.9c2 0 4-1.1 6-3.4l1.8 1.5c-.5 1-1.8 2-3.7 3a15 15 0 0 1-6.4 1.3c-7.2 0-10.9-3.3-10.9-9.9 0-2.8.8-7.8 2.2-15 1.4-7.2 2.2-11.9 2.2-14.1 0-3.5-1.7-5.2-5-5.2-2.6 0-5.2 1.7-7.7 5.2a45.3 45.3 0 0 0-6 14.1l-4 22.5a8.6 8.6 0 0 0 6-3.4l1.9 1.5a11.3 11.3 0 0 1-9 4.3c-3.6 0-6.4-1-8.5-2.8-2-1.8-3-4.2-3-7.2 0-1.1.6-5.5 1.9-13.2l4-22.2a8.5 8.5 0 0 0-6 3.4l-1.8-1.5c2.4-2.8 5.4-4.3 9-4.3 3.6 0 6.5 1 8.5 2.8 2 1.8 3 4.4 3 7.8v.7c3.3-7.5 8.4-11.3 15.3-11.3 4.8 0 8.4 1.4 11 4.1a15 15 0 0 1 4 11c0 2.5-.7 7.3-2.2 14.4a103 103 0 0 0-2.6 15.9Zm53 14.4a9.8 9.8 0 0 0 7.4-3.4l1.7 1.5c-2 2.7-5 4-9.1 4-1.8 0-3.6-.2-5.4-.6-5.5 5-12.4 7.5-21 7.5-5 0-8.9-.9-11.7-2.7a7.5 7.5 0 0 1-4-6.7c0-2.7.8-4.9 2.5-6.6 1.7-1.6 4.8-2.4 9.2-2.4s10.2 1.8 17.4 5.4l3.7-19.9c-3.6 6.6-8.2 10-14 10-10.8 0-16.2-5.4-16.2-16.1 0-9 2.2-16.2 6.7-21.6a21.7 21.7 0 0 1 17.4-8.2c4 0 7.2 1.3 9.5 3.7.6.8 1.3 1.8 1.9 3.3l1-5.9c6 0 10.3-.2 13-.7l1.6-.4-8 44.3a29.8 29.8 0 0 1-7.1 15.1c1 .3 2.2.4 3.5.4Zm-26-26.3c0 3.7.4 6.2 1.1 7.4.7 1.2 2 1.8 4 1.8s4.1-1 6.2-3.2 3.6-4.2 4.5-6a52.6 52.6 0 0 0 2.4-5.5l2.5-13.8v-.9c0-7.3-3.4-11-10.1-11-2.6 0-5 3.5-7.2 10.4a67.5 67.5 0 0 0-3.4 20.8Zm-.8 32.9c6.4 0 10.7-2.8 13-8.3l-1.7-.8-1.8-1a77.6 77.6 0 0 0-3.5-1.6 15.1 15.1 0 0 1-2-.6l-2-.7-1.9-.3a29 29 0 0 0-5.3-.4 9 9 0 0 0-5.6 1.7c-1.4 1.1-2 2.7-2 4.9s1.1 3.9 3.4 5.2c2.4 1.2 5.5 1.9 9.4 1.9Z"/>  
  <path stroke="#D2A24F" stroke-linecap="round" stroke-linejoin="round" stroke-miterlimit="1.5" stroke-width="6.4" d="M111.1 451.1s11.4-1 12.6 11.5c.6 5.3-1 8.6-2.5 11.3-4.8 9-30.4 17.7-38.7-10.1-11.2-37.5 57.9-67 85.2-10.4 9.3 19.2 7.2 40.4.7 50.4-17.7 26.8-47.5 35.6-59.8 38.3C66.5 551-6 509.8 19 436.3c25-73.6 114.7-123.2 232.9-73.1 118.1 50.1 133 59.1 133 59.1m0-.2s273 142 510.6 0m273.9 29s-11.4-1-12.6 11.5a18 18 0 0 0 2.5 11.3c4.8 9 30.4 17.7 38.7-10.1 11.2-37.5-57.9-67-85.2-10.4-9.3 19.2-7.3 40.4-.7 50.4 17.7 26.8 47.5 35.6 59.8 38.3 42.1 9 114.5-32.3 89.6-105.8-25-73.6-114.7-123.2-232.9-73.1-118.1 50.1-133 59.1-133 59.1"/>
  <path fill="#006C1D" fill-rule="evenodd" d="M659.7 484.9s48 14.8 41 58.2c0 0 66.5-14 72.8 41 0 0 33.4-22.7 72.7 8.6 0 0-45.4-46-28.4-88 0 0-62.8 4.9-69.6-39 0 0-38 28-88.5 11.7-2.4-.8-1.1 1.1 0 7.5Z" clip-rule="evenodd"/>
  <path fill="#148D02" fill-rule="evenodd" d="M641.5 482.4s-47.9 14.8-41 58.2c0 0-66.5-14-72.8 41 0 0-33.3-22.7-72.7 8.7 0 0 45.4-46.1 28.4-88 0 0 62.9 4.8 69.6-39.1 0 0 38 28 88.5 11.7 2.4-.7 1.1 1.2 0 7.5Z" clip-rule="evenodd"/>
  <path stroke="#fff" stroke-linecap="round" stroke-linejoin="round" stroke-miterlimit="1.5" stroke-width="3.2" d="M591.6 494.7s-25.8-4.6-31.6-19.8m85.4 0c-31.6 12-91.6 31-147.7 74.3m94-54.5s-11 19 0 32M541 520s-24 5-43.3-9.3m21.7 56.7S517 540.2 541 521" opacity=".1"/>
  <path fill="#A00615" d="M630.1 490.5a14.2 14.2 0 1 0 12.7-25.5 14.2 14.2 0 0 0-12.7 25.5Z"/>
  <path stroke="#fff" stroke-linecap="round" stroke-linejoin="round" stroke-miterlimit="1.5" stroke-width="3.2" d="M655.8 477.4c31.6 12 91.7 31 147.7 74.3m-43.3-29.2s24 5 43.3-9.3m-21.7 56.7s2.4-27.3-21.6-46.6m-50.6-26.1s25.8-4.6 31.6-19.8m-31.6 19.8s11 19 0 32" opacity=".1"/>
  <path fill="#D10818" d="M671.3 489.7A14.2 14.2 0 1 0 657 465a14.2 14.2 0 0 0 14.3 24.6Z"/>
  <path fill="#F7132A" d="M643.6 513.1a14.2 14.2 0 1 0 12.6-25.5 14.2 14.2 0 0 0-12.6 25.5Z"/>
  <path fill="#fff" d="M669.2 472a2.1 2.1 0 1 0-2.2-3.6 2.1 2.1 0 0 0 2.2 3.6Zm-29.8 1.9a2.1 2.1 0 1 0-2.2-3.7 2.1 2.1 0 0 0 2.2 3.7Zm15.6 22.9a2.1 2.1 0 1 0-2.2-3.7 2.1 2.1 0 1 0 2.2 3.7Z"/>
  <path stroke="#D2A24F" stroke-linecap="round" stroke-linejoin="round" stroke-miterlimit="1.5" stroke-width="2" d="M114.2 50v52.4M91 76.2h46.4m-41 15 35.6-30M98.5 59 130 93.3M74.1 189v29.6M61 203.8h26.3m-22.8-9 19.3 18M20.3 79v34.6M4 96.3h32.6m-28.8 9.9 25-19.8M9.3 85l22 22.6m1141 59.4v34.6m-16.3-17.3h32.6m-28.8 9.9 25-19.8m-23.5-1.4 22 22.6m67-124.6v52.4M1227 97.2h46.4m-41 15 35.6-30m-33.5-2.2 31.4 34.3M1139.1 61v29.6M1126 75.8h26.3m-22.8-9 19.3 18"/>
</svg>