<svg xmlns="http://www.w3.org/2000/svg" fill="none" viewBox="0 0 1280 600">
  <path fill="#D2A24F" d="M281.47 133.44c-7.6 0-13.32 2.08-17.16 6.24-3.76 4.16-5.64 10.84-5.64 20.04h-2.76c0-19.2 8.28-28.8 24.84-28.8 5.36 0 12.92 2.04 22.68 6.12s17.2 6.12 22.32 6.12v2.76c-2.08 0-4.44-.28-7.08-.84-.56.16-1.56 1.08-3 2.76a37.2 37.2 0 0 0-3.84 5.52c-3.36 6.08-6.32 13.84-8.88 23.28h12.96l-.24 2.16h-13.32c-.56 1.84-1.2 4.36-1.92 7.56-3.28 14.32-6.76 24.52-10.44 30.6-3.6 6.16-8.92 9.24-15.96 9.24-4.24 0-7.16-.48-8.76-1.44l1.2-2.52c1.12 1.12 3.88 1.68 8.28 1.68.56 0 1.48-.08 2.76-.24l8.52-36.96c.24-1.04.6-2.52 1.08-4.44.48-1.92.76-3.08.84-3.48h-13.08l.24-2.16h13.32c3.12-11.76 6.2-20.32 9.24-25.68 3.12-5.44 6.76-8.44 10.92-9l-6.48-2.76a204.92 204.92 0 0 0-7.08-3c-4.88-1.84-9.4-2.76-13.56-2.76Zm66.04 66.24a15.47 15.47 0 0 1-4.32 3.72c-1.76 1.12-4.08 1.68-6.96 1.68s-5.32-.92-7.32-2.76c-2-1.84-3-4.44-3-7.8 0-.64.08-1.68.24-3.12l7.8-43.2c1.44-7.92 3.4-13.56 5.88-16.92a12.08 12.08 0 0 1 10.08-5.04 8.88 8.88 0 0 1 7.08 3.24c1.92 2.16 2.88 5.44 2.88 9.84 0 4.4-1.72 10.68-5.16 18.84-3.36 8.16-5.04 14.12-5.04 17.88h-2.16c0-4.24 1.68-10.28 5.04-18.12 3.36-7.92 5.04-14.24 5.04-18.96 0-2.88-.68-5.36-2.04-7.44-1.28-2.08-2.88-3.12-4.8-3.12-.08 2.08-1.48 11.44-4.2 28.08a1865.93 1865.93 0 0 1-7.92 46.2c2.24 0 4.32-1.16 6.24-3.48a22.57 22.57 0 0 0 4.08-6.96l1.32-3.6 2.16.96a24.58 24.58 0 0 1-1.92 4.92 27.48 27.48 0 0 1-3 5.16Zm82.7 3c1.92 0 3.92-1.12 6-3.36l1.8 1.44c-.56 1.12-1.8 2.12-3.72 3a15.08 15.08 0 0 1-6.36 1.32c-7.28 0-10.92-3.28-10.92-9.84 0-2.8.72-7.8 2.16-15 1.44-7.2 2.16-11.92 2.16-14.16 0-3.44-1.64-5.16-4.92-5.16-4.96 0-9.12 6.36-12.48 19.08l-4.32 24h-14.4l7.92-44.28a8.54 8.54 0 0 0-6 3.36l-1.8-1.44c2.4-2.88 5.4-4.32 9-4.32 3.68 0 6.52.92 8.52 2.76 2 1.84 3 4.44 3 7.8v.36c3.12-7.28 7.84-10.92 14.16-10.92 4.48 0 8 1.24 10.56 3.72 2.64 2.4 4.08 5.8 4.32 10.2 1.52-4.4 3.44-7.8 5.76-10.2 2.32-2.48 5.68-3.72 10.08-3.72s7.92 1.36 10.56 4.08c2.64 2.64 3.96 6.32 3.96 11.04 0 2.48-.76 7.28-2.28 14.4-1.52 7.04-2.36 12.32-2.52 15.84 1.92 0 3.92-1.12 6-3.36l1.8 1.44c-.56 1.12-1.8 2.12-3.72 3a15.08 15.08 0 0 1-6.36 1.32c-7.28 0-10.92-3.28-10.92-9.84 0-2.8.72-7.8 2.16-15 1.44-7.2 2.16-11.92 2.16-14.16 0-3.44-1.64-5.16-4.92-5.16-5.76 0-10.4 8.56-13.92 25.68-1.52 7.28-2.36 12.64-2.52 16.08Zm86.06 2.4c-7.04 0-10.88-3.08-11.52-9.24-3.52 6.16-7.96 9.24-13.32 9.24s-9.64-1.6-12.84-4.8c-3.12-3.28-4.68-7.84-4.68-13.68 0-9.12 2.24-16.28 6.72-21.48 4.48-5.2 10.28-7.8 17.4-7.8 5.84 0 9.72 2.76 11.64 8.28.4-2.4.84-4.8 1.32-7.2 5.92 0 10.32-.24 13.2-.72l1.56-.36-8.28 45.36a8.54 8.54 0 0 0 6-3.36l1.8 1.44a11.25 11.25 0 0 1-9 4.32Zm-28.8-12.36c0 3.6.44 6.12 1.32 7.56.96 1.36 2.4 2.04 4.32 2.04 1.92 0 3.88-1.04 5.88-3.12a30.1 30.1 0 0 0 6.36-10.32c.24-1.04.68-3.52 1.32-7.44.72-4 1.32-7.28 1.8-9.84-.24-3.04-1.08-5.68-2.52-7.92s-3.24-3.36-5.4-3.36c-3.92 0-7.08 3.52-9.48 10.56a66.52 66.52 0 0 0-3.6 21.84Zm52-34.32 3.24-17.76c5.92 0 10.32-.24 13.2-.72l1.56-.36c-1.12 5.6-2.36 11.88-3.72 18.84h14.88l-.24 2.16h-15c-4 20.64-6 33.08-6 37.32 0 2.56 1.36 3.84 4.08 3.84 2.72 0 5.2-1.72 7.44-5.16a35.47 35.47 0 0 0 4.8-11.16l2.16.72c-2.96 12.64-9.08 18.96-18.36 18.96-3.84 0-7.04-1.04-9.6-3.12-2.56-2.16-3.84-5.12-3.84-8.88 0-3.84 1.64-14.68 4.92-32.52h-5.88l.24-2.16h6.12Zm31.96 3.24c2.4-2.88 5.4-4.32 9-4.32 3.68 0 6.52.92 8.52 2.76 2 1.84 3 4.44 3 7.8v.72c3.6-7.52 8.28-11.28 14.04-11.28 6.16 0 9.24 3.2 9.24 9.6 0 2.64-.88 5.44-2.64 8.4-1.76 2.96-3.52 5.8-5.28 8.52-1.76 2.64-2.64 5-2.64 7.08h-2.88c0-2.96 1.72-6.96 5.16-12 3.44-5.04 5.16-8.92 5.16-11.64 0-2.8-.56-4.68-1.68-5.64-1.04-1.04-2.64-1.56-4.8-1.56-2.08 0-4.16.92-6.24 2.76-2 1.84-3.68 4.16-5.04 6.96-2.16 4.16-3.6 7.56-4.32 10.2v.12L585.7 204h-14.4l7.92-44.28a8.54 8.54 0 0 0-6 3.36l-1.8-1.44Zm68.47 39.12a11.25 11.25 0 0 1-9 4.32c-3.6 0-6.44-.92-8.52-2.76-2-1.84-3-4.24-3-7.2 0-1.04.64-5.4 1.92-13.08l3.96-21.48h-5.04l.24-2.16h5.16c5.92 0 10.28-.24 13.08-.72l1.68-.36-8.28 45.36a8.54 8.54 0 0 0 6-3.36l1.8 1.44Zm-10.56-54.96c-1.68-1.68-2.52-3.72-2.52-6.12s.84-4.44 2.52-6.12c1.68-1.76 3.72-2.64 6.12-2.64s4.44.88 6.12 2.64c1.76 1.68 2.64 3.72 2.64 6.12s-.88 4.44-2.64 6.12c-1.68 1.68-3.72 2.52-6.12 2.52s-4.44-.84-6.12-2.52Zm63.14 56.88c1.92 0 3.92-1.12 6-3.36l1.8 1.44c-.56 1.12-1.8 2.12-3.72 3a15.08 15.08 0 0 1-6.36 1.32c-7.28 0-10.92-3.28-10.92-9.84 0-2.8.72-7.8 2.16-15 1.44-7.2 2.16-11.92 2.16-14.16 0-3.44-1.64-5.16-4.92-5.16-4.96 0-9.12 6.36-12.48 19.08l-4.32 24h-14.4l7.92-44.28a8.54 8.54 0 0 0-6 3.36l-1.8-1.44c2.4-2.88 5.4-4.32 9-4.32 3.68 0 6.52.92 8.52 2.76 2 1.84 3 4.44 3 7.8v.36c3.12-7.28 7.84-10.92 14.16-10.92 4.48 0 8 1.24 10.56 3.72 2.64 2.4 4.08 5.8 4.32 10.2 1.52-4.4 3.44-7.8 5.76-10.2 2.32-2.48 5.68-3.72 10.08-3.72s7.92 1.36 10.56 4.08c2.64 2.64 3.96 6.32 3.96 11.04 0 2.48-.76 7.28-2.28 14.4-1.52 7.04-2.36 12.32-2.52 15.84 1.92 0 3.92-1.12 6-3.36l1.8 1.44c-.56 1.12-1.8 2.12-3.72 3a15.08 15.08 0 0 1-6.36 1.32c-7.28 0-10.92-3.28-10.92-9.84 0-2.8.72-7.8 2.16-15 1.44-7.2 2.16-11.92 2.16-14.16 0-3.44-1.64-5.16-4.92-5.16-5.76 0-10.4 8.56-13.92 25.68-1.52 7.28-2.36 12.64-2.52 16.08Zm62.53 2.4c-6.16 0-10.84-1.52-14.04-4.56-3.2-3.12-4.8-7-4.8-11.64 0-4.72.4-8.72 1.2-12a34.06 34.06 0 0 1 4.2-9.6c1.92-3.12 4.8-5.56 8.64-7.32 3.92-1.76 8.76-2.64 14.52-2.64 5.84 0 10.36 1.56 13.56 4.68 3.28 3.04 4.92 7.24 4.92 12.6 0 9.12-2.44 16.48-7.32 22.08-4.8 5.6-11.76 8.4-20.88 8.4Zm-5.28-12.36c0 6.4 1.84 9.6 5.52 9.6 3.76 0 7.08-3.2 9.96-9.6 2.96-6.48 4.44-14.16 4.44-23.04 0-6.72-1.84-10.08-5.52-10.08-3.6 0-6.92 3.08-9.96 9.24-2.96 6.08-4.44 14.04-4.44 23.88Zm85.85 9.96c1.92 0 3.92-1.12 6-3.36l1.8 1.44c-.56 1.12-1.8 2.12-3.72 3a15.08 15.08 0 0 1-6.36 1.32c-7.28 0-10.92-3.28-10.92-9.84 0-2.8.72-7.8 2.16-15 1.44-7.2 2.16-11.92 2.16-14.16 0-3.44-1.64-5.16-4.92-5.16-2.64 0-5.2 1.72-7.68 5.16-2.4 3.44-4.4 8.16-6 14.16l-4.08 22.44a8.63 8.63 0 0 0 6.12-3.36l1.8 1.44a11.25 11.25 0 0 1-9 4.32c-3.6 0-6.44-.92-8.52-2.76-2-1.84-3-4.24-3-7.2 0-1.12.64-5.52 1.92-13.2l3.96-22.2a8.54 8.54 0 0 0-6 3.36l-1.8-1.44c2.4-2.88 5.4-4.32 9-4.32 3.68 0 6.52.92 8.52 2.76 2 1.84 3 4.44 3 7.8v.72c3.28-7.52 8.4-11.28 15.36-11.28 4.72 0 8.4 1.36 11.04 4.08 2.64 2.64 3.96 6.32 3.96 11.04 0 2.48-.76 7.28-2.28 14.4-1.52 7.04-2.36 12.32-2.52 15.84Zm35.65-1.92a11.25 11.25 0 0 1-9 4.32c-3.6 0-6.44-.92-8.52-2.76-2-1.84-3-4.24-3-7.2 0-1.04.64-5.4 1.92-13.08l3.96-21.48h-5.04l.24-2.16h5.16c5.92 0 10.28-.24 13.08-.72l1.68-.36-8.28 45.36a8.54 8.54 0 0 0 6-3.36l1.8 1.44Zm-10.56-54.96c-1.68-1.68-2.52-3.72-2.52-6.12s.84-4.44 2.52-6.12c1.68-1.76 3.72-2.64 6.12-2.64s4.44.88 6.12 2.64c1.76 1.68 2.64 3.72 2.64 6.12s-.88 4.44-2.64 6.12c-1.68 1.68-3.72 2.52-6.12 2.52s-4.44-.84-6.12-2.52Zm36.26 59.28c-6.16 0-10.84-1.52-14.04-4.56-3.2-3.12-4.8-7-4.8-11.64 0-4.72.4-8.72 1.2-12a34.06 34.06 0 0 1 4.2-9.6c1.92-3.12 4.8-5.56 8.64-7.32 3.92-1.76 8.76-2.64 14.52-2.64 5.84 0 10.36 1.56 13.56 4.68 3.28 3.04 4.92 7.24 4.92 12.6 0 9.12-2.44 16.48-7.32 22.08-4.8 5.6-11.76 8.4-20.88 8.4Zm-5.28-12.36c0 6.4 1.84 9.6 5.52 9.6 3.76 0 7.08-3.2 9.96-9.6 2.96-6.48 4.44-14.16 4.44-23.04 0-6.72-1.84-10.08-5.52-10.08-3.6 0-6.92 3.08-9.96 9.24-2.96 6.08-4.44 14.04-4.44 23.88Zm106.6 12.36c-7.05 0-10.89-3-11.53-9-3.52 6-8 9-13.44 9-5.44 0-9.6-1.52-12.48-4.56-2.88-3.12-4.32-7.36-4.32-12.72 0-9.44 2.24-16.88 6.72-22.32 4.48-5.44 10.28-8.16 17.4-8.16 4.08 0 7.24 1.24 9.48 3.72a13.63 13.63 0 0 1 1.8 2.88l6.48-35.28a8.54 8.54 0 0 0-6 3.36l-1.8-1.44c2.4-2.88 5.4-4.32 9-4.32 3.68 0 6.52.92 8.52 2.76 2 1.84 3 4.44 3 7.8 0 .64-.08 1.68-.24 3.12-3.92 22-7.72 42.92-11.4 62.76a8.54 8.54 0 0 0 6-3.36l1.8 1.44a11.24 11.24 0 0 1-9 4.32Zm-28.2-12.36c0 3.68.35 6.2 1.07 7.56.8 1.36 2 2.04 3.6 2.04 1.68 0 3.28-.56 4.8-1.68a14.35 14.35 0 0 0 3.84-4.32 42.88 42.88 0 0 0 4.08-7.56l3.48-18.96c-.16-2.56-1-4.88-2.52-6.96-1.52-2.16-4.12-3.24-7.8-3.24-2.56 0-4.96 3.76-7.2 11.28s-3.36 14.8-3.36 21.84Zm66.06 8.04a11.25 11.25 0 0 1-9 4.32c-3.6 0-6.44-.92-8.52-2.76-2-1.84-3-4.24-3-7.2 0-1.04.64-5.4 1.92-13.08l3.96-21.48h-5.04l.24-2.16h5.16c5.92 0 10.28-.24 13.08-.72l1.68-.36-8.28 45.36a8.54 8.54 0 0 0 6-3.36l1.8 1.44Zm-10.56-54.96c-1.68-1.68-2.52-3.72-2.52-6.12s.84-4.44 2.52-6.12c1.68-1.76 3.72-2.64 6.12-2.64s4.44.88 6.12 2.64c1.76 1.68 2.64 3.72 2.64 6.12s-.88 4.44-2.64 6.12c-1.68 1.68-3.72 2.52-6.12 2.52s-4.44-.84-6.12-2.52ZM284.43 305.28c4.16-1.36 9-2.04 14.52-2.04s8.28 1.6 8.28 4.8c0 1.92-1.04 3.52-3.12 4.8-2.08 1.2-5.08 1.8-9 1.8-6.16 0-11.12-1.48-14.88-4.44a51.75 51.75 0 0 0-3.36 3.84c-.8 1.04-1.72 3.04-2.76 6-.96 2.96-1.44 6.52-1.44 10.68s1.76 7.8 5.28 10.92c3.52 3.04 7.16 4.56 10.92 4.56 3.84 0 7.4-.72 10.68-2.16 3.28-1.44 5.88-3.12 7.8-5.04s3.6-4.04 5.04-6.36c2-2.96 3.32-5.56 3.96-7.8l2.4.6c0 .24-.32 1.08-.96 2.52a32.71 32.71 0 0 1-3.24 5.76 49.32 49.32 0 0 1-5.76 6.84c-2.24 2.16-5.32 4.04-9.24 5.64-3.92 1.6-8.2 2.4-12.84 2.4-8.56 0-15.24-1.84-20.04-5.52-4.8-3.6-7.2-8.32-7.2-14.16s1.8-10.48 5.4-13.92c3.68-3.44 8-5.84 12.96-7.2-3.6-4.4-5.4-9.6-5.4-15.6 0-6.08 2.4-11.48 7.2-16.2 4.88-4.72 11.88-7.08 21-7.08 6.96 0 12.28 1.24 15.96 3.72 3.76 2.4 5.64 5.44 5.64 9.12 0 3.6-.96 7.32-2.88 11.16-1.84 3.76-2.88 6.76-3.12 9h-2.52c.24-2.4 1.28-5.48 3.12-9.24 1.92-3.76 2.88-7.24 2.88-10.44 0-3.28-1.72-5.96-5.16-8.04-3.36-2.08-7.68-3.12-12.96-3.12-5.2 0-9.64 2.04-13.32 6.12-3.68 4-5.52 10.16-5.52 18.48 0 4.48.56 7.68 1.68 9.6Zm1.8 3.48c.4.56 1.4 1.32 3 2.28 1.68.96 3.88 1.44 6.6 1.44 2.72 0 4.88-.4 6.48-1.2 1.68-.88 2.52-1.88 2.52-3 0-1.92-2.16-2.88-6.48-2.88s-8.64.64-12.96 1.92c.16.4.44.88.84 1.44Zm62.1 28.92a15.47 15.47 0 0 1-4.32 3.72c-1.76 1.12-4.08 1.68-6.96 1.68s-5.32-.92-7.32-2.76c-2-1.84-3-4.44-3-7.8 0-.64.08-1.68.24-3.12l7.8-43.2c1.44-7.92 3.4-13.56 5.88-16.92a12.08 12.08 0 0 1 10.08-5.04 8.88 8.88 0 0 1 7.08 3.24c1.92 2.16 2.88 5.44 2.88 9.84 0 4.4-1.72 10.68-5.16 18.84-3.36 8.16-5.04 14.12-5.04 17.88h-2.16c0-4.24 1.68-10.28 5.04-18.12 3.36-7.92 5.04-14.24 5.04-18.96 0-2.88-.68-5.36-2.04-7.44-1.28-2.08-2.88-3.12-4.8-3.12-.08 2.08-1.48 11.44-4.2 28.08a1865.93 1865.93 0 0 1-7.92 46.2c2.24 0 4.32-1.16 6.24-3.48a22.57 22.57 0 0 0 4.08-6.96l1.32-3.6 2.16.96a24.58 24.58 0 0 1-1.92 4.92 27.48 27.48 0 0 1-3 5.16Zm37.36-42.36c10.16 0 15.24 4.04 15.24 12.12 0 5.04-2.4 8.88-7.2 11.52-4.72 2.56-11.48 3.88-20.28 3.96-.16 2.88-.24 5.16-.24 6.84 0 3.6.8 6.28 2.4 8.04a8.47 8.47 0 0 0 6.24 2.52c2.48 0 4.72-.48 6.72-1.44a15.63 15.63 0 0 0 4.92-3.36 30 30 0 0 0 3.12-4.2c1.6-2.64 2.4-4.32 2.4-5.04l2.16.96c-.24 1.28-.96 3-2.16 5.16a22.5 22.5 0 0 1-3.96 5.16c-1.44 1.36-3.56 2.64-6.36 3.84a25 25 0 0 1-9.36 1.68c-6.48 0-11.4-1.52-14.76-4.56-3.28-3.12-4.92-7.36-4.92-12.72 0-9.52 2.36-16.96 7.08-22.32 4.72-5.44 11.04-8.16 18.96-8.16Zm12.24 12.12c0-2.64-.8-4.8-2.4-6.48-1.52-1.76-3.84-2.64-6.96-2.64-3.04 0-6.04 1.84-9 5.52-2.88 3.68-4.8 9.12-5.76 16.32 16.08-.08 24.12-4.32 24.12-12.72Zm55.97 33.24c1.92 0 3.92-1.12 6-3.36l1.8 1.44c-.56 1.12-1.8 2.12-3.72 3a15.08 15.08 0 0 1-6.36 1.32c-7.28 0-10.92-3.28-10.92-9.84 0-2.8.72-7.8 2.16-15 1.44-7.2 2.16-11.92 2.16-14.16 0-3.44-1.64-5.16-4.92-5.16-2.64 0-5.2 1.72-7.68 5.16-2.4 3.44-4.4 8.16-6 14.16l-4.08 22.44a8.63 8.63 0 0 0 6.12-3.36l1.8 1.44a11.25 11.25 0 0 1-9 4.32c-3.6 0-6.44-.92-8.52-2.76-2-1.84-3-4.24-3-7.2 0-1.12.64-5.52 1.92-13.2l3.96-22.2a8.54 8.54 0 0 0-6 3.36l-1.8-1.44c2.4-2.88 5.4-4.32 9-4.32 3.68 0 6.52.92 8.52 2.76 2 1.84 3 4.44 3 7.8v.72c3.28-7.52 8.4-11.28 15.36-11.28 4.72 0 8.4 1.36 11.04 4.08 2.64 2.64 3.96 6.32 3.96 11.04 0 2.48-.76 7.28-2.28 14.4-1.52 7.04-2.36 12.32-2.52 15.84Zm55.8 2.4c-7.03 0-10.87-3.08-11.51-9.24-3.52 6.16-7.96 9.24-13.32 9.24s-9.64-1.6-12.84-4.8c-3.12-3.28-4.68-7.84-4.68-13.68 0-9.12 2.24-16.28 6.72-21.48 4.48-5.2 10.28-7.8 17.4-7.8 5.84 0 9.72 2.76 11.64 8.28.4-2.4.84-4.8 1.32-7.2 5.92 0 10.32-.24 13.2-.72l1.56-.36-8.28 45.36a8.54 8.54 0 0 0 6-3.36l1.8 1.44a11.25 11.25 0 0 1-9 4.32Zm-28.8-12.36c0 3.6.45 6.12 1.33 7.56.96 1.36 2.4 2.04 4.32 2.04 1.92 0 3.88-1.04 5.88-3.12a30.1 30.1 0 0 0 6.36-10.32c.24-1.04.68-3.52 1.32-7.44.72-4 1.32-7.28 1.8-9.84-.24-3.04-1.08-5.68-2.52-7.92s-3.24-3.36-5.4-3.36c-3.92 0-7.08 3.52-9.48 10.56a66.52 66.52 0 0 0-3.6 21.84Zm107.08-9.96a57.92 57.92 0 0 0 20.28 3.6c7.12 0 13.04-2.4 17.76-7.2 4.72-4.88 7.08-11.08 7.08-18.6h2.16c0 8-2.4 14.56-7.2 19.68-4.72 5.12-10.92 7.88-18.6 8.28-4.16 10.08-10.88 16.8-20.16 20.16a34.13 34.13 0 0 1-11.52 1.92c-8.56 0-15.24-1.84-20.04-5.52-4.8-3.6-7.2-8.32-7.2-14.16s1.8-10.48 5.4-13.92c3.68-3.44 8-5.84 12.96-7.2-3.6-4.4-5.4-9.6-5.4-15.6 0-6.08 2.4-11.48 7.2-16.2 4.88-4.72 11.88-7.08 21-7.08 6.96 0 12.28 1.24 15.96 3.72 3.76 2.4 5.64 5.44 5.64 9.12 0 3.6-.96 7.32-2.88 11.16-1.84 3.76-2.88 6.76-3.12 9h-2.52c.24-2.4 1.28-5.48 3.12-9.24 1.92-3.76 2.88-7.24 2.88-10.44 0-3.28-1.72-5.96-5.16-8.04-3.36-2.08-7.68-3.12-12.96-3.12-5.2 0-9.64 2.04-13.32 6.12-3.68 4-5.52 10.16-5.52 18.48 0 4.48.56 7.68 1.68 9.6 4.16-1.36 9-2.04 14.52-2.04s8.28 1.6 8.28 4.8c0 1.92-1.04 3.52-3.12 4.8-2.08 1.2-5.08 1.8-9 1.8-6.16 0-11.12-1.48-14.88-4.44a51.75 51.75 0 0 0-3.36 3.84c-.8 1.04-1.72 3.04-2.76 6-.96 2.96-1.44 6.52-1.44 10.68s1.76 7.8 5.28 10.92c3.52 3.04 7.04 4.56 10.56 4.56 3.6 0 6.8-.56 9.6-1.68a25.49 25.49 0 0 0 7.08-3.72 32.96 32.96 0 0 0 5.28-5.28c2-2.48 3.76-5.48 5.28-9-6.24-.08-12.8-1.32-19.68-3.72h-.12l.96-2.04Zm-10.68-12c.4.56 1.4 1.32 3 2.28 1.68.96 3.88 1.44 6.6 1.44 2.72 0 4.88-.4 6.48-1.2 1.68-.88 2.52-1.88 2.52-3 0-1.92-2.16-2.88-6.48-2.88s-8.64.64-12.96 1.92c.16.4.44.88.84 1.44Zm114.46 51.6v-2.28c4.96-.24 8.32-1.52 10.08-3.84 1.76-2.32 3.4-7.68 4.92-16.08l11.52-66.36c-16.4 1.36-29.08 4.92-38.04 10.68-8.88 5.68-13.32 13.12-13.32 22.32 0 4.16 1.44 7.68 4.32 10.56 2 1.92 4.64 3.4 7.92 4.44a41.3 41.3 0 0 0 8.04 1.68c2.16.08 3.32.04 3.48-.12v2.52c-9.44 0-16.44-2.24-21-6.72-3.36-3.12-5.04-7.24-5.04-12.36 0-11.44 5.96-20.28 17.88-26.52 12-6.24 28.92-9.36 50.76-9.36 13.6 0 23.24 1.84 28.92 5.52 5.76 3.68 8.64 8.72 8.64 15.12 0 6.32-2.2 11.76-6.6 16.32-4.32 4.56-10.04 8.08-17.16 10.56 10.4 21.6 17.08 34.56 20.04 38.88 2.96 4.4 6.52 6.6 10.68 6.6 2.48 0 4.68-.8 6.6-2.4 2-1.52 3.4-3.6 4.2-6.24h3c-2.56 8.32-8.84 12.48-18.84 12.48-6.32 0-11.56-1.52-15.72-4.56-4.08-2.96-7.52-7.48-10.32-13.56l-12.96-28.08c-3.2.32-5.56.48-7.08.48-.24 1.2-.6 3.24-1.08 6.12-.48 2.88-.88 5.04-1.2 6.48-1.6 8.64-5.64 15.4-12.12 20.28-6.4 4.96-13.24 7.44-20.52 7.44Zm75.96-70.44c0-12.24-11.12-18.48-33.36-18.72l-7.2 46.2c11.36-.32 20.96-3.16 28.8-8.52 7.84-5.44 11.76-11.76 11.76-18.96Zm27.14 53.16c-6.16 0-10.84-1.52-14.04-4.56-3.2-3.12-4.8-7-4.8-11.64 0-4.72.4-8.72 1.2-12a34.06 34.06 0 0 1 4.2-9.6c1.92-3.12 4.8-5.56 8.64-7.32 3.92-1.76 8.76-2.64 14.52-2.64 5.84 0 10.36 1.56 13.56 4.68 3.28 3.04 4.92 7.24 4.92 12.6 0 9.12-2.44 16.48-7.32 22.08-4.8 5.6-11.76 8.4-20.88 8.4Zm-5.28-12.36c0 6.4 1.84 9.6 5.52 9.6 3.76 0 7.08-3.2 9.96-9.6 2.96-6.48 4.44-14.16 4.44-23.04 0-6.72-1.84-10.08-5.52-10.08-3.6 0-6.92 3.08-9.96 9.24-2.96 6.08-4.44 14.04-4.44 23.88Zm85.13 9.96c1.92 0 3.92-1.12 6-3.36l1.8 1.44c-.56 1.12-1.8 2.12-3.72 3a15.08 15.08 0 0 1-6.36 1.32c-7.28 0-10.92-3.28-10.92-9.84 0-2.8.72-7.8 2.16-15 1.44-7.2 2.16-11.92 2.16-14.16 0-3.44-1.64-5.16-4.92-5.16-4.96 0-9.12 6.36-12.48 19.08l-4.32 24h-14.4l7.92-44.28a8.54 8.54 0 0 0-6 3.36l-1.8-1.44c2.4-2.88 5.4-4.32 9-4.32 3.68 0 6.52.92 8.52 2.76 2 1.84 3 4.44 3 7.8v.36c3.12-7.28 7.84-10.92 14.16-10.92 4.48 0 8 1.24 10.56 3.72 2.64 2.4 4.08 5.8 4.32 10.2 1.52-4.4 3.44-7.8 5.76-10.2 2.32-2.48 5.68-3.72 10.08-3.72s7.92 1.36 10.56 4.08c2.64 2.64 3.96 6.32 3.96 11.04 0 2.48-.76 7.28-2.28 14.4-1.52 7.04-2.36 12.32-2.52 15.84 1.92 0 3.92-1.12 6-3.36l1.8 1.44c-.56 1.12-1.8 2.12-3.72 3a15.08 15.08 0 0 1-6.36 1.32c-7.28 0-10.92-3.28-10.92-9.84 0-2.8.72-7.8 2.16-15 1.44-7.2 2.16-11.92 2.16-14.16 0-3.44-1.64-5.16-4.92-5.16-5.76 0-10.4 8.56-13.92 25.68-1.52 7.28-2.36 12.64-2.52 16.08Zm86.05 2.4c-7.04 0-10.88-3.08-11.52-9.24-3.52 6.16-7.96 9.24-13.32 9.24s-9.64-1.6-12.84-4.8c-3.12-3.28-4.68-7.84-4.68-13.68 0-9.12 2.24-16.28 6.72-21.48 4.48-5.2 10.28-7.8 17.4-7.8 5.84 0 9.72 2.76 11.64 8.28.4-2.4.84-4.8 1.32-7.2 5.92 0 10.32-.24 13.2-.72l1.56-.36-8.28 45.36a8.54 8.54 0 0 0 6-3.36l1.8 1.44a11.25 11.25 0 0 1-9 4.32Zm-28.8-12.36c0 3.6.44 6.12 1.32 7.56.96 1.36 2.4 2.04 4.32 2.04 1.92 0 3.88-1.04 5.88-3.12a30.1 30.1 0 0 0 6.36-10.32c.24-1.04.68-3.52 1.32-7.44.72-4 1.32-7.28 1.8-9.84-.24-3.04-1.08-5.68-2.52-7.92s-3.24-3.36-5.4-3.36c-3.92 0-7.08 3.52-9.48 10.56a66.52 66.52 0 0 0-3.6 21.84Zm91.01 9.96c1.92 0 3.92-1.12 6-3.36l1.8 1.44c-.56 1.12-1.8 2.12-3.72 3a15.08 15.08 0 0 1-6.36 1.32c-7.28 0-10.92-3.28-10.92-9.84 0-2.8.72-7.8 2.16-15 1.44-7.2 2.16-11.92 2.16-14.16 0-3.44-1.64-5.16-4.92-5.16-2.64 0-5.2 1.72-7.68 5.16-2.4 3.44-4.4 8.16-6 14.16l-4.08 22.44a8.63 8.63 0 0 0 6.12-3.36l1.8 1.44a11.25 11.25 0 0 1-9 4.32c-3.6 0-6.44-.92-8.52-2.76-2-1.84-3-4.24-3-7.2 0-1.12.64-5.52 1.92-13.2l3.96-22.2a8.54 8.54 0 0 0-6 3.36l-1.8-1.44c2.4-2.88 5.4-4.32 9-4.32 3.68 0 6.52.92 8.52 2.76 2 1.84 3 4.44 3 7.8v.72c3.28-7.52 8.4-11.28 15.36-11.28 4.72 0 8.4 1.36 11.04 4.08 2.64 2.64 3.96 6.32 3.96 11.04 0 2.48-.76 7.28-2.28 14.4-1.52 7.04-2.36 12.32-2.52 15.84Z"/>
  <g clip-path="url(#a)">
    <path stroke="#D2A24F" stroke-linecap="round" stroke-linejoin="round" stroke-miterlimit="1.5" stroke-width="6.4" d="M111.1 451.12s11.37-1.09 12.63 11.52c.53 5.25-1.02 8.54-2.53 11.31-4.8 8.87-30.39 17.67-38.71-10.17-11.2-37.44 57.88-66.9 85.22-10.4 9.28 19.18 7.24 40.44.7 50.38-17.67 26.83-47.53 35.65-59.85 38.3C66.46 551.14-5.93 509.8 19 436.26c24.91-73.52 114.7-123.2 232.86-73.07 118.16 50.14 133.09 59.13 133.09 59.13m-.01-.17s272.93 141.86 510.6 0m273.84 28.97s-11.36-1.09-12.63 11.52c-.52 5.25 1.03 8.54 2.53 11.31 4.82 8.87 30.39 17.67 38.72-10.17 11.2-37.44-57.88-66.9-85.22-10.4-9.28 19.18-7.24 40.44-.7 50.38 17.67 26.83 47.53 35.65 59.84 38.3 42.11 9.08 114.49-32.27 89.58-105.8-24.91-73.52-114.7-123.2-232.86-73.07-118.16 50.14-133.1 59.13-133.1 59.13"/>
    <path fill="#006C1D" fill-rule="evenodd" d="M659.68 484.87s47.95 14.85 41.1 58.18c0 0 66.4-13.96 72.74 41.1 0 0 33.34-22.78 72.72 8.6 0 0-45.41-46.13-28.46-88.01 0 0-62.83 4.83-69.56-39.1 0 0-37.94 28.05-88.54 11.76-2.36-.76-1.1 1.14 0 7.47Z" clip-rule="evenodd"/>
    <path fill="#148D02" fill-rule="evenodd" d="M641.54 482.4s-47.94 14.85-41.1 58.18c0 0-66.4-13.96-72.73 41.1 0 0-33.34-22.78-72.73 8.6 0 0 45.42-46.13 28.46-88.01 0 0 62.84 4.83 69.56-39.1 0 0 37.95 28.05 88.54 11.76 2.37-.76 1.1 1.14 0 7.47Z" clip-rule="evenodd"/>
    <path stroke="#fff" stroke-linecap="round" stroke-linejoin="round" stroke-miterlimit="1.5" stroke-width="3.16" d="M591.63 494.72s-25.8-4.61-31.62-19.8m85.38 0c-31.56 12.07-91.62 31.06-147.66 74.26m93.9-54.46s-11 19.07 0 32m-50.59-6.68s-24.1 5-43.3-9.3m21.65 56.7s-2.38-27.28 21.66-46.59" opacity=".1"/>
    <path fill="#A00615" d="M630.1 490.52a14.23 14.23 0 1 0 12.65-25.49 14.23 14.23 0 0 0-12.66 25.5Z"/>
    <path stroke="#fff" stroke-linecap="round" stroke-linejoin="round" stroke-miterlimit="1.5" stroke-width="3.16" d="M655.83 477.4c31.56 12.06 91.62 31.06 147.66 74.25m-43.3-29.17s24.1 4.98 43.3-9.3m-21.66 56.73s2.38-27.27-21.65-46.59m-50.59-26.13s25.8-4.6 31.62-19.8m-31.62 19.8s11 19.07 0 32" opacity=".1"/>
    <path fill="#D10818" d="M671.32 489.69a14.23 14.23 0 1 0-14.35-24.57 14.23 14.23 0 0 0 14.35 24.57Z"/>
    <path fill="#F7132A" d="M643.59 513.14a14.23 14.23 0 1 0 12.65-25.49 14.23 14.23 0 0 0-12.65 25.5Z"/>
    <path fill="#fff" d="M669.18 472.03a2.12 2.12 0 1 0-2.14-3.66 2.12 2.12 0 0 0 2.14 3.66Zm-29.81 1.85a2.12 2.12 0 1 0-2.14-3.66 2.12 2.12 0 0 0 2.14 3.66Zm15.6 22.89a2.12 2.12 0 1 0-2.13-3.66 2.12 2.12 0 1 0 2.14 3.66Z"/>
  </g>
  <path stroke="#D2A24F" stroke-linecap="round" stroke-linejoin="round" stroke-miterlimit="1.5" stroke-width="2" d="M114.22 50v52.37M91 76.17h46.44m-41 14.96 35.55-29.89m-33.45-2.2L129.9 93.3M74.15 189v29.64M61 203.81h26.29m-22.78-8.92 19.27 17.88M20.31 79v34.58M4 96.3h32.6m-28.78 9.86 24.96-19.73M9.3 84.98l22.02 22.62M1172.31 167v34.58M1156 184.3h32.61m-28.79 9.86 24.96-19.73m-23.48-1.45 22.02 22.62m66.9-124.6v52.37M1227 97.17h46.44m-41 14.96 35.55-29.89m-33.45-2.2 31.37 34.25M1139.15 61v29.64M1126 75.81h26.29m-22.78-8.92 19.27 17.88"/>
  <defs>
    <clipPath id="a">
      <path fill="#fff" d="M0 0h1280v272H0z" transform="translate(0 328)"/>
    </clipPath>
  </defs>
</svg>