<svg width="776" height="256" viewBox="0 0 776 256" fill="none" xmlns="http://www.w3.org/2000/svg">
<path d="M456.833 139L460.5 154L455.5 166L453 178L446 190L447.5 198L440 199.5L433.5 196.5L429.5 203.5L428 197.5L425 195.5L424 201L408 203.5L402.5 210L392 217.5L380 223.5L378 216.5L372.5 217.5L375.5 223.5L372.5 228L360 231.5L351.5 236L338 240.5L334 236H320L335 226.5L330.5 224.5L315.5 231.5H308L326.5 216.5L310.5 218.5L300 214.5L316 205L322 199.5L308 201L299 198L305 193L319 195.5L325.5 193.5L321.5 190.5L320 184.5L330.5 177.5H338L365.5 171L355 167L353 162.5L347.5 171L319 174L334 164L343.5 142.5L355 141L354 134H334L331.5 124L322 125L314 121.5L316 114.5L323 112V103.5L335 100.5L336 96.5L323 95L321 89L322 77.5L327 69.5L345.5 71.5L351.5 80.5L355 73L362 75L372 77.5L369 69.5L383.5 61.5L387 51.5L381 53H368L365.5 50L368 45.5H377.5L375 42L382.5 40L377.5 36L382.5 28.5L388.5 23L404 19L405 34.5L411 29.5L409.5 17L416.5 10L427 18.5L416.5 23L416 31H426.5L429.5 24L438.5 21.5L447.5 19L458 21.5L460.5 32L470.5 45.5L463 51.5V56.5L474.5 53L477.5 61.5L474.5 75L465.5 76L463 83L456 90L449 89L446.5 95.5L448.5 97.5M463 115.545C463 120.734 459.939 125.051 454.5 130C449.061 125.051 446 120.734 446 115.545C446 110.274 449.806 106 454.5 106C459.194 106 463 110.274 463 115.545ZM475 118C475 129.598 465.598 139 454 139C442.402 139 433 129.598 433 118C433 106.402 442.402 97 454 97C465.598 97 475 106.402 475 118ZM456.5 115C456.5 116.105 455.605 117 454.5 117C453.395 117 452.5 116.105 452.5 115C452.5 113.895 453.395 113 454.5 113C455.605 113 456.5 113.895 456.5 115Z" stroke="#D2A24F" stroke-width="4" stroke-linecap="round" stroke-linejoin="round"/>
<path d="M377.28 118H373.083V107.091H377.238C378.36 107.091 379.329 107.309 380.146 107.746C380.967 108.179 381.599 108.804 382.043 109.621C382.49 110.434 382.714 111.409 382.714 112.545C382.714 113.682 382.492 114.658 382.048 115.475C381.604 116.288 380.975 116.913 380.162 117.35C379.349 117.783 378.388 118 377.28 118ZM376.045 115.486H377.174C377.714 115.486 378.174 115.399 378.554 115.225C378.937 115.051 379.228 114.751 379.427 114.325C379.63 113.898 379.731 113.305 379.731 112.545C379.731 111.786 379.628 111.192 379.422 110.766C379.219 110.34 378.921 110.04 378.527 109.866C378.136 109.692 377.657 109.605 377.089 109.605H376.045V115.486ZM390.54 107.091H393.502V114.08C393.502 114.911 393.303 115.63 392.905 116.237C392.511 116.841 391.96 117.308 391.254 117.638C390.547 117.964 389.727 118.128 388.793 118.128C387.852 118.128 387.028 117.964 386.321 117.638C385.615 117.308 385.064 116.841 384.67 116.237C384.279 115.63 384.084 114.911 384.084 114.08V107.091H387.046V113.824C387.046 114.161 387.12 114.463 387.269 114.729C387.419 114.992 387.624 115.198 387.887 115.347C388.154 115.496 388.455 115.571 388.793 115.571C389.134 115.571 389.436 115.496 389.698 115.347C389.961 115.198 390.167 114.992 390.316 114.729C390.465 114.463 390.54 114.161 390.54 113.824V107.091ZM394.909 118V107.091H399.639C400.47 107.091 401.168 107.203 401.733 107.426C402.301 107.65 402.729 107.966 403.016 108.375C403.308 108.783 403.453 109.264 403.453 109.818C403.453 110.219 403.364 110.585 403.187 110.915C403.013 111.246 402.768 111.523 402.452 111.746C402.136 111.967 401.766 112.119 401.344 112.205V112.311C401.813 112.329 402.239 112.448 402.622 112.668C403.006 112.885 403.311 113.185 403.538 113.568C403.766 113.948 403.879 114.396 403.879 114.911C403.879 115.507 403.723 116.038 403.411 116.503C403.102 116.968 402.661 117.334 402.09 117.6C401.518 117.867 400.836 118 400.044 118H394.909ZM397.871 115.635H399.256C399.753 115.635 400.126 115.543 400.374 115.358C400.623 115.17 400.747 114.893 400.747 114.527C400.747 114.271 400.689 114.055 400.571 113.877C400.454 113.7 400.287 113.565 400.071 113.472C399.858 113.38 399.6 113.334 399.298 113.334H397.871V115.635ZM397.871 111.501H399.085C399.345 111.501 399.574 111.461 399.772 111.379C399.971 111.297 400.126 111.18 400.236 111.027C400.35 110.871 400.406 110.681 400.406 110.457C400.406 110.12 400.286 109.863 400.044 109.685C399.803 109.504 399.497 109.413 399.128 109.413H397.871V111.501ZM404.929 118V107.091H407.89V115.614H412.301V118H404.929ZM416.46 107.091V118H413.498V107.091H416.46ZM427.302 107.091V118H424.831L420.889 112.268H420.825V118H417.863V107.091H420.377L424.255 112.801H424.341V107.091H427.302ZM365.6 121.091V132H362.639V121.091H365.6ZM367.004 132V121.091H371.713C372.522 121.091 373.231 121.238 373.838 121.533C374.445 121.828 374.918 122.252 375.255 122.806C375.592 123.36 375.761 124.024 375.761 124.798C375.761 125.58 375.587 126.238 375.239 126.775C374.895 127.311 374.41 127.716 373.785 127.989C373.163 128.262 372.437 128.399 371.606 128.399H368.794V126.098H371.01C371.358 126.098 371.654 126.055 371.899 125.97C372.148 125.881 372.338 125.741 372.469 125.549C372.604 125.358 372.672 125.107 372.672 124.798C372.672 124.486 372.604 124.232 372.469 124.037C372.338 123.838 372.148 123.692 371.899 123.6C371.654 123.504 371.358 123.456 371.01 123.456H369.966V132H367.004ZM373.396 126.993L376.123 132H372.906L370.243 126.993H373.396ZM377.023 132V121.091H384.886V123.477H379.985V125.352H384.481V127.739H379.985V129.614H384.864V132H377.023ZM386.354 132V121.091H389.316V129.614H393.727V132H386.354ZM397.758 132H394.562L398.162 121.091H402.211L405.812 132H402.616L400.229 124.095H400.144L397.758 132ZM397.161 127.696H403.17V129.912H397.161V127.696ZM416.301 121.091V132H413.83L409.888 126.268H409.824V132H406.862V121.091H409.377L413.254 126.801H413.34V121.091H416.301ZM421.9 132H417.702V121.091H421.857C422.979 121.091 423.949 121.309 424.765 121.746C425.586 122.179 426.218 122.804 426.662 123.621C427.109 124.434 427.333 125.409 427.333 126.545C427.333 127.682 427.111 128.658 426.667 129.475C426.223 130.288 425.595 130.913 424.781 131.35C423.968 131.783 423.008 132 421.9 132ZM420.664 129.486H421.793C422.333 129.486 422.793 129.399 423.173 129.225C423.556 129.051 423.847 128.751 424.046 128.325C424.249 127.898 424.35 127.305 424.35 126.545C424.35 125.786 424.247 125.192 424.041 124.766C423.839 124.34 423.54 124.04 423.146 123.866C422.755 123.692 422.276 123.605 421.708 123.605H420.664V129.486Z" fill="#D2A24F"/>
<path d="M635.308 10V44.5844" stroke="#D2A24F" stroke-width="2" stroke-miterlimit="1.5" stroke-linecap="round" stroke-linejoin="round"/>
<path d="M619 27.2971L651.608 27.2908" stroke="#D2A24F" stroke-width="2" stroke-miterlimit="1.5" stroke-linecap="round" stroke-linejoin="round"/>
<path d="M622.824 37.1638L647.782 17.4269" stroke="#D2A24F" stroke-width="2" stroke-miterlimit="1.5" stroke-linecap="round" stroke-linejoin="round"/>
<path d="M624.295 15.9829L646.319 38.5995" stroke="#D2A24F" stroke-width="2" stroke-miterlimit="1.5" stroke-linecap="round" stroke-linejoin="round"/>
<path d="M577.219 57V109.371" stroke="#D2A24F" stroke-width="2" stroke-miterlimit="1.5" stroke-linecap="round" stroke-linejoin="round"/>
<path d="M554 83.1748L600.442 83.1652" stroke="#D2A24F" stroke-width="2" stroke-miterlimit="1.5" stroke-linecap="round" stroke-linejoin="round"/>
<path d="M559.44 98.1316L594.987 68.2442" stroke="#D2A24F" stroke-width="2" stroke-miterlimit="1.5" stroke-linecap="round" stroke-linejoin="round"/>
<path d="M561.539 66.0466L592.906 100.295" stroke="#D2A24F" stroke-width="2" stroke-miterlimit="1.5" stroke-linecap="round" stroke-linejoin="round"/>
<g clip-path="url(#clip0_11_148860)">
<path d="M137.817 46.8989L161.243 93.7379" stroke="#D2A24F" stroke-width="2" stroke-miterlimit="1.5" stroke-linecap="round" stroke-linejoin="round"/>
<path d="M128.758 80.6953L170.29 59.9125" stroke="#D2A24F" stroke-width="2" stroke-miterlimit="1.5" stroke-linecap="round" stroke-linejoin="round"/>
<path d="M140.314 91.6392L158.737 49.0078" stroke="#D2A24F" stroke-width="2" stroke-miterlimit="1.5" stroke-linecap="round" stroke-linejoin="round"/>
<path d="M127.839 62.0042L171.213 78.6035" stroke="#D2A24F" stroke-width="2" stroke-miterlimit="1.5" stroke-linecap="round" stroke-linejoin="round"/>
</g>
<path d="M637.148 98V127.644" stroke="#D2A24F" stroke-width="2" stroke-miterlimit="1.5" stroke-linecap="round" stroke-linejoin="round"/>
<path d="M624 112.812L650.288 112.807" stroke="#D2A24F" stroke-width="2" stroke-miterlimit="1.5" stroke-linecap="round" stroke-linejoin="round"/>
<path d="M627.51 103.886L646.78 121.767" stroke="#D2A24F" stroke-width="2" stroke-miterlimit="1.5" stroke-linecap="round" stroke-linejoin="round"/>
<path d="M247.398 50.2507V79.8945" stroke="#D2A24F" stroke-width="2" stroke-miterlimit="1.5" stroke-linecap="round" stroke-linejoin="round"/>
<path d="M234.251 65.063L260.539 65.0576" stroke="#D2A24F" stroke-width="2" stroke-miterlimit="1.5" stroke-linecap="round" stroke-linejoin="round"/>
<path d="M237.761 56.1372L257.031 74.0178" stroke="#D2A24F" stroke-width="2" stroke-miterlimit="1.5" stroke-linecap="round" stroke-linejoin="round"/>
<path d="M209.559 102.251V136.835" stroke="#D2A24F" stroke-width="2" stroke-miterlimit="1.5" stroke-linecap="round" stroke-linejoin="round"/>
<path d="M193.251 119.548L225.859 119.542" stroke="#D2A24F" stroke-width="2" stroke-miterlimit="1.5" stroke-linecap="round" stroke-linejoin="round"/>
<path d="M197.074 129.415L222.033 109.678" stroke="#D2A24F" stroke-width="2" stroke-miterlimit="1.5" stroke-linecap="round" stroke-linejoin="round"/>
<path d="M198.546 108.233L220.57 130.85" stroke="#D2A24F" stroke-width="2" stroke-miterlimit="1.5" stroke-linecap="round" stroke-linejoin="round"/>
<defs>
<clipPath id="clip0_11_148860">
<rect width="60" height="60" fill="white" transform="translate(109 56.8391) rotate(-26.5717)"/>
</clipPath>
</defs>
</svg>
