<svg width="776" height="256" viewBox="0 0 776 256" fill="none" xmlns="http://www.w3.org/2000/svg">
<path d="M456.833 139L460.5 154L455.5 166L453 178L446 190L447.5 198L440 199.5L433.5 196.5L429.5 203.5L428 197.5L425 195.5L424 201L408 203.5L402.5 210L392 217.5L380 223.5L378 216.5L372.5 217.5L375.5 223.5L372.5 228L360 231.5L351.5 236L338 240.5L334 236H320L335 226.5L330.5 224.5L315.5 231.5H308L326.5 216.5L310.5 218.5L300 214.5L316 205L322 199.5L308 201L299 198L305 193L319 195.5L325.5 193.5L321.5 190.5L320 184.5L330.5 177.5H338L365.5 171L355 167L353 162.5L347.5 171L319 174L334 164L343.5 142.5L355 141L354 134H334L331.5 124L322 125L314 121.5L316 114.5L323 112V103.5L335 100.5L336 96.5L323 95L321 89L322 77.5L327 69.5L345.5 71.5L351.5 80.5L355 73L362 75L372 77.5L369 69.5L383.5 61.5L387 51.5L381 53H368L365.5 50L368 45.5H377.5L375 42L382.5 40L377.5 36L382.5 28.5L388.5 23L404 19L405 34.5L411 29.5L409.5 17L416.5 10L427 18.5L416.5 23L416 31H426.5L429.5 24L438.5 21.5L447.5 19L458 21.5L460.5 32L470.5 45.5L463 51.5V56.5L474.5 53L477.5 61.5L474.5 75L465.5 76L463 83L456 90L449 89L446.5 95.5L448.5 97.5M463 115.545C463 120.734 459.939 125.051 454.5 130C449.061 125.051 446 120.734 446 115.545C446 110.274 449.806 106 454.5 106C459.194 106 463 110.274 463 115.545ZM475 118C475 129.598 465.598 139 454 139C442.402 139 433 129.598 433 118C433 106.402 442.402 97 454 97C465.598 97 475 106.402 475 118ZM456.5 115C456.5 116.105 455.605 117 454.5 117C453.395 117 452.5 116.105 452.5 115C452.5 113.895 453.395 113 454.5 113C455.605 113 456.5 113.895 456.5 115Z" stroke="#D2A24F" stroke-width="4" stroke-linecap="round" stroke-linejoin="round"/>
<path d="M365.342 118H361.145V107.091H365.299C366.422 107.091 367.391 107.309 368.208 107.746C369.028 108.179 369.66 108.804 370.104 109.621C370.551 110.434 370.775 111.409 370.775 112.545C370.775 113.682 370.553 114.658 370.109 115.475C369.665 116.288 369.037 116.913 368.224 117.35C367.411 117.783 366.45 118 365.342 118ZM364.106 115.486H365.235C365.775 115.486 366.235 115.399 366.615 115.225C366.999 115.051 367.29 114.751 367.489 114.325C367.691 113.898 367.792 113.305 367.792 112.545C367.792 111.786 367.689 111.192 367.483 110.766C367.281 110.34 366.983 110.04 366.588 109.866C366.198 109.692 365.718 109.605 365.15 109.605H364.106V115.486ZM378.601 107.091H381.563V114.08C381.563 114.911 381.364 115.63 380.967 116.237C380.572 116.841 380.022 117.308 379.315 117.638C378.609 117.964 377.788 118.128 376.854 118.128C375.913 118.128 375.089 117.964 374.383 117.638C373.676 117.308 373.126 116.841 372.731 116.237C372.341 115.63 372.146 114.911 372.146 114.08V107.091H375.107V113.824C375.107 114.161 375.182 114.463 375.331 114.729C375.48 114.992 375.686 115.198 375.949 115.347C376.215 115.496 376.517 115.571 376.854 115.571C377.195 115.571 377.497 115.496 377.76 115.347C378.023 115.198 378.229 114.992 378.378 114.729C378.527 114.463 378.601 114.161 378.601 113.824V107.091ZM382.971 118V107.091H387.701C388.532 107.091 389.23 107.203 389.794 107.426C390.362 107.65 390.79 107.966 391.078 108.375C391.369 108.783 391.515 109.264 391.515 109.818C391.515 110.219 391.426 110.585 391.248 110.915C391.074 111.246 390.829 111.523 390.513 111.746C390.197 111.967 389.828 112.119 389.405 112.205V112.311C389.874 112.329 390.3 112.448 390.684 112.668C391.067 112.885 391.373 113.185 391.6 113.568C391.827 113.948 391.941 114.396 391.941 114.911C391.941 115.507 391.785 116.038 391.472 116.503C391.163 116.968 390.723 117.334 390.151 117.6C389.579 117.867 388.898 118 388.106 118H382.971ZM385.932 115.635H387.317C387.814 115.635 388.187 115.543 388.436 115.358C388.684 115.17 388.809 114.893 388.809 114.527C388.809 114.271 388.75 114.055 388.633 113.877C388.516 113.7 388.349 113.565 388.132 113.472C387.919 113.38 387.662 113.334 387.36 113.334H385.932V115.635ZM385.932 111.501H387.147C387.406 111.501 387.635 111.461 387.834 111.379C388.033 111.297 388.187 111.18 388.297 111.027C388.411 110.871 388.468 110.681 388.468 110.457C388.468 110.12 388.347 109.863 388.106 109.685C387.864 109.504 387.559 109.413 387.189 109.413H385.932V111.501ZM392.99 118V107.091H395.952V115.614H400.362V118H392.99ZM404.521 107.091V118H401.56V107.091H404.521ZM415.364 107.091V118H412.892L408.95 112.268H408.886V118H405.925V107.091H408.439L412.317 112.801H412.402V107.091H415.364ZM427.333 112.545C427.333 113.76 427.097 114.784 426.624 115.619C426.152 116.45 425.515 117.08 424.712 117.51C423.91 117.936 423.015 118.149 422.027 118.149C421.033 118.149 420.135 117.934 419.332 117.505C418.533 117.071 417.897 116.439 417.425 115.608C416.956 114.774 416.722 113.753 416.722 112.545C416.722 111.331 416.956 110.308 417.425 109.477C417.897 108.643 418.533 108.012 419.332 107.586C420.135 107.157 421.033 106.942 422.027 106.942C423.015 106.942 423.91 107.157 424.712 107.586C425.515 108.012 426.152 108.643 426.624 109.477C427.097 110.308 427.333 111.331 427.333 112.545ZM424.286 112.545C424.286 111.892 424.199 111.342 424.025 110.894C423.854 110.443 423.601 110.102 423.263 109.871C422.929 109.637 422.517 109.52 422.027 109.52C421.537 109.52 421.124 109.637 420.786 109.871C420.453 110.102 420.199 110.443 420.025 110.894C419.854 111.342 419.769 111.892 419.769 112.545C419.769 113.199 419.854 113.751 420.025 114.202C420.199 114.65 420.453 114.99 420.786 115.225C421.124 115.456 421.537 115.571 422.027 115.571C422.517 115.571 422.929 115.456 423.263 115.225C423.601 114.99 423.854 114.65 424.025 114.202C424.199 113.751 424.286 113.199 424.286 112.545ZM363.681 121.091V132H360.72V121.091H363.681ZM365.085 132V121.091H369.794C370.603 121.091 371.312 121.238 371.919 121.533C372.526 121.828 372.999 122.252 373.336 122.806C373.673 123.36 373.842 124.024 373.842 124.798C373.842 125.58 373.668 126.238 373.32 126.775C372.976 127.311 372.491 127.716 371.866 127.989C371.244 128.262 370.518 128.399 369.687 128.399H366.875V126.098H369.091C369.439 126.098 369.735 126.055 369.98 125.97C370.229 125.881 370.419 125.741 370.55 125.549C370.685 125.358 370.753 125.107 370.753 124.798C370.753 124.486 370.685 124.232 370.55 124.037C370.419 123.838 370.229 123.692 369.98 123.6C369.735 123.504 369.439 123.456 369.091 123.456H368.047V132H365.085ZM371.477 126.993L374.204 132H370.987L368.324 126.993H371.477ZM375.104 132V121.091H378.066V129.614H382.477V132H375.104ZM386.508 132H383.312L386.912 121.091H390.961L394.562 132H391.366L388.979 124.095H388.894L386.508 132ZM385.911 127.696H391.92V129.912H385.911V127.696ZM405.051 121.091V132H402.58L398.638 126.268H398.574V132H395.612V121.091H398.127L402.004 126.801H402.09V121.091H405.051ZM410.65 132H406.452V121.091H410.607C411.729 121.091 412.699 121.309 413.515 121.746C414.336 122.179 414.968 122.804 415.412 123.621C415.859 124.434 416.083 125.409 416.083 126.545C416.083 127.682 415.861 128.658 415.417 129.475C414.973 130.288 414.345 130.913 413.531 131.35C412.718 131.783 411.758 132 410.65 132ZM409.414 129.486H410.543C411.083 129.486 411.543 129.399 411.923 129.225C412.306 129.051 412.597 128.751 412.796 128.325C412.999 127.898 413.1 127.305 413.1 126.545C413.1 125.786 412.997 125.192 412.791 124.766C412.589 124.34 412.29 124.04 411.896 123.866C411.505 123.692 411.026 123.605 410.458 123.605H409.414V129.486ZM419.598 132H416.402L420.003 121.091H424.052L427.652 132H424.456L422.07 124.095H421.985L419.598 132ZM419.002 127.696H425.01V129.912H419.002V127.696Z" fill="#D2A24F"/>
<path d="M635.308 10V44.5844" stroke="#D2A24F" stroke-width="2" stroke-miterlimit="1.5" stroke-linecap="round" stroke-linejoin="round"/>
<path d="M619 27.2971L651.608 27.2908" stroke="#D2A24F" stroke-width="2" stroke-miterlimit="1.5" stroke-linecap="round" stroke-linejoin="round"/>
<path d="M622.824 37.1638L647.782 17.4269" stroke="#D2A24F" stroke-width="2" stroke-miterlimit="1.5" stroke-linecap="round" stroke-linejoin="round"/>
<path d="M624.295 15.9829L646.319 38.5995" stroke="#D2A24F" stroke-width="2" stroke-miterlimit="1.5" stroke-linecap="round" stroke-linejoin="round"/>
<path d="M577.219 57V109.371" stroke="#D2A24F" stroke-width="2" stroke-miterlimit="1.5" stroke-linecap="round" stroke-linejoin="round"/>
<path d="M554 83.1748L600.442 83.1652" stroke="#D2A24F" stroke-width="2" stroke-miterlimit="1.5" stroke-linecap="round" stroke-linejoin="round"/>
<path d="M559.44 98.1316L594.987 68.2442" stroke="#D2A24F" stroke-width="2" stroke-miterlimit="1.5" stroke-linecap="round" stroke-linejoin="round"/>
<path d="M561.539 66.0466L592.906 100.295" stroke="#D2A24F" stroke-width="2" stroke-miterlimit="1.5" stroke-linecap="round" stroke-linejoin="round"/>
<g clip-path="url(#clip0_11_148870)">
<path d="M137.817 46.8989L161.243 93.7379" stroke="#D2A24F" stroke-width="2" stroke-miterlimit="1.5" stroke-linecap="round" stroke-linejoin="round"/>
<path d="M128.758 80.6953L170.29 59.9125" stroke="#D2A24F" stroke-width="2" stroke-miterlimit="1.5" stroke-linecap="round" stroke-linejoin="round"/>
<path d="M140.314 91.6392L158.737 49.0078" stroke="#D2A24F" stroke-width="2" stroke-miterlimit="1.5" stroke-linecap="round" stroke-linejoin="round"/>
<path d="M127.839 62.0042L171.213 78.6035" stroke="#D2A24F" stroke-width="2" stroke-miterlimit="1.5" stroke-linecap="round" stroke-linejoin="round"/>
</g>
<path d="M637.148 98V127.644" stroke="#D2A24F" stroke-width="2" stroke-miterlimit="1.5" stroke-linecap="round" stroke-linejoin="round"/>
<path d="M624 112.812L650.288 112.807" stroke="#D2A24F" stroke-width="2" stroke-miterlimit="1.5" stroke-linecap="round" stroke-linejoin="round"/>
<path d="M627.51 103.886L646.78 121.767" stroke="#D2A24F" stroke-width="2" stroke-miterlimit="1.5" stroke-linecap="round" stroke-linejoin="round"/>
<path d="M247.398 50.2507V79.8945" stroke="#D2A24F" stroke-width="2" stroke-miterlimit="1.5" stroke-linecap="round" stroke-linejoin="round"/>
<path d="M234.251 65.063L260.539 65.0576" stroke="#D2A24F" stroke-width="2" stroke-miterlimit="1.5" stroke-linecap="round" stroke-linejoin="round"/>
<path d="M237.761 56.1372L257.031 74.0178" stroke="#D2A24F" stroke-width="2" stroke-miterlimit="1.5" stroke-linecap="round" stroke-linejoin="round"/>
<path d="M209.559 102.251V136.835" stroke="#D2A24F" stroke-width="2" stroke-miterlimit="1.5" stroke-linecap="round" stroke-linejoin="round"/>
<path d="M193.251 119.548L225.859 119.542" stroke="#D2A24F" stroke-width="2" stroke-miterlimit="1.5" stroke-linecap="round" stroke-linejoin="round"/>
<path d="M197.074 129.415L222.033 109.678" stroke="#D2A24F" stroke-width="2" stroke-miterlimit="1.5" stroke-linecap="round" stroke-linejoin="round"/>
<path d="M198.546 108.233L220.57 130.85" stroke="#D2A24F" stroke-width="2" stroke-miterlimit="1.5" stroke-linecap="round" stroke-linejoin="round"/>
<defs>
<clipPath id="clip0_11_148870">
<rect width="60" height="60" fill="white" transform="translate(109 56.8391) rotate(-26.5717)"/>
</clipPath>
</defs>
</svg>
