<svg xmlns="http://www.w3.org/2000/svg" width="64" height="64" fill="none">
  <path stroke="#D2A24F" stroke-linecap="round" stroke-linejoin="round" stroke-width="2" d="m26 6 5 2 .355 12.082a10 10 0 0 1-3.663 8.034L26 29.5l.47 6.819a83.002 83.002 0 0 1-.362 15.328l-.671 5.752A1.81 1.81 0 0 1 23.638 59v0a1.81 1.81 0 0 1-1.801-1.63l-.64-6.394a82.989 82.989 0 0 1-.215-13.97L21.5 29.5l-1.692-1.384a10 10 0 0 1-3.663-8.034L16.5 8l5-2M26 6v12.5M26 6h-4.5m0 0v12.5M38 7l2.642 2.182a16 16 0 0 1 4.755 18.05l-.83 2.171a19.999 19.999 0 0 0-1.275 8.473l.882 13.23a8.648 8.648 0 0 1-3.707 7.686c-1.042.722-2.467-.025-2.467-1.293V7Z"/>
</svg>