<svg xmlns="http://www.w3.org/2000/svg" fill="none" viewBox="0 0 776 256">
  <path stroke="#D2A24F" stroke-linecap="round" stroke-linejoin="round" stroke-width="4" d="M340 236h-38a4 4 0 0 1-4-4V120.556a4 4 0 0 1 4-4h17M340 236V116.556M340 236h146a4 4 0 0 0 4-4V120.556a4 4 0 0 0-4-4h-29.297a4 4 0 0 1-3.711-2.509l-9.984-24.844a4 4 0 0 0-3.711-2.509h-58.594a4 4 0 0 0-3.711 2.509l-9.984 24.844a4 4 0 0 1-3.711 2.509H353m-13 0h-21m21 0h13m-34 0V104.62a2 2 0 0 1 2-2h7m25 13.936V104.62a2 2 0 0 0-2-2h-7m41.842-27.87a49.96 49.96 0 0 0 .158-3.981C386 43.282 363.614 21 336 21s-50 22.282-50 49.769c0 13.069 5.061 24.962 13.339 33.842m24.105-48.508 12.554 14.667m0 0 .006.007m-.006-.007-.005-25.881m.005 25.881v.007m0-.007 14.391-12.939m-14.385 12.946 12.548 14.66m-12.548-14.66H362m-25.996 0h-.006m0 0 .006 25.871m-.006-25.87H310m25.998 0-14.383 12.938M422 168.315c0 6.597-5.373 11.944-12 11.944s-12-5.347-12-11.944 5.373-11.945 12-11.945 12 5.348 12 11.945Zm28 0c0 21.989-17.909 39.815-40 39.815s-40-17.826-40-39.815c0-21.989 17.909-39.815 40-39.815s40 17.826 40 39.815Z"/>
  <path stroke="#D2A24F" stroke-linecap="round" stroke-linejoin="round" stroke-miterlimit="1.5" stroke-width="2" d="M579.308 27v34.584M563 44.297l32.608-.006m-28.784 9.873 24.958-19.737m-23.487-1.444L590.319 55.6M574.22 102v52.371M551 128.175l46.442-.01m-41.002 14.967 35.547-29.888m-33.448-2.198 31.368 34.248M167.407 172.19l-45.355-26.185m34.297-7.011-23.213 40.224m7.54-42.991 8.11 45.728m18.627-27.869-45.344 10.041M526.147 65v29.644M513 79.813l26.288-.006m-22.778-8.921 19.27 17.88M230.147 142v29.644M217 156.812l26.288-.005m-22.778-8.921 19.27 17.881M206.601 209.333l-16.951 30.146m-5.742-23.062 28.426 15.977m-29.929-5.502 31.429-4.971m-19.765-12.77 8.113 30.508"/>
</svg>