<svg xmlns="http://www.w3.org/2000/svg" width="64" height="64" fill="none">
  <path stroke="#D2A24F" stroke-width="2" d="M18.5 51H12a4 4 0 0 1-4-4V25a4 4 0 0 1 4-4h1.25m5.25 30V21m0 30H52a4 4 0 0 0 4-4V25a4 4 0 0 0-4-4h-2.292a4 4 0 0 1-3.714-2.514l-.988-2.472a4 4 0 0 0-3.714-2.514H30.708a4 4 0 0 0-3.714 2.514l-.988 2.472A4 4 0 0 1 22.292 21h-.542m-3.25 0h-5.25m5.25 0h3.25m-8.5 0v-2a3 3 0 0 1 3-3h2.5a3 3 0 0 1 3 3v2M39 34a3 3 0 1 1-6 0 3 3 0 0 1 6 0Zm7 0c0 5.523-4.477 10-10 10s-10-4.477-10-10 4.477-10 10-10 10 4.477 10 10Z"/>
</svg>