<svg xmlns="http://www.w3.org/2000/svg" width="64" height="64" fill="none">
  <path stroke="#D2A24F" stroke-linecap="round" stroke-linejoin="round" stroke-width="2" d="M18.5 59H12a4 4 0 0 1-4-4V33a4 4 0 0 1 4-4h1.25m5.25 30V29m0 30H52a4 4 0 0 0 4-4V33a4 4 0 0 0-4-4h-2.292a4 4 0 0 1-3.714-2.514l-.988-2.472a4 4 0 0 0-3.714-2.514H30.708a4 4 0 0 0-3.714 2.514l-.988 2.472A4 4 0 0 1 22.292 29h-.542m-3.25 0h-5.25m5.25 0h3.25m-8.5 0v-1.5a2 2 0 0 1 2-2h.25m6.25 3.5v-1.5a2 2 0 0 0-2-2h-.25m10.46-7c.027-.33.04-.663.04-1C30 10.596 24.404 5 17.5 5S5 10.596 5 17.5c0 3.283 1.265 6.27 3.335 8.5m6.026-12.183L17.5 17.5m0 0 .001.002m-.002-.002V11m0 6.5v.002m0-.002 3.598-3.25m-3.596 3.252 3.137 3.682m-3.137-3.682H24m-6.499 0h-.002m0 0L17.502 24m-.002-6.498H11m6.5 0-3.596 3.25M39 42a3 3 0 1 1-6 0 3 3 0 0 1 6 0Zm7 0c0 5.523-4.477 10-10 10s-10-4.477-10-10 4.477-10 10-10 10 4.477 10 10Z"/>
</svg>