<svg xmlns="http://www.w3.org/2000/svg" width="64" height="64" fill="none">
  <path stroke="#D2A24F" stroke-linecap="round" stroke-linejoin="round" stroke-width="2" d="M19 39V21a1 1 0 0 1 1-1v0m-1 19h8m-8 0h-4m30 0V21a1 1 0 0 0-1-1v0m1 19h-7.5m7.5 0h4.5M27 39l.356 1.566c1.166 5.132 8.45 5.21 9.726.105L37.5 39M27 39h10.5M27 39l-1.528 3.056c-1.843 3.685-7.102 3.685-8.944 0L15 39m22.5 0 1.73 3.195c1.964 3.625 7.225 3.45 8.942-.298L49.5 39M32 20l-1.133 2.718c-1.588 3.813-6.852 4.164-8.934.596L20 20m12 0 1.328 2.897c1.717 3.748 6.978 3.923 8.941.298L44 20m-12 0h12m-12 0H20m-5 19v0a3 3 0 0 0-3 3v16h40V41.5a2.5 2.5 0 0 0-2.5-2.5v0M25.258 8.063c2.421-4.735 6.677.402 6.677.402s3.644-4.948 6.643-.823C40.995 10.965 32.234 19 32.234 19s-8.837-7.298-6.977-10.937Z"/>
</svg>