<svg xmlns="http://www.w3.org/2000/svg" width="64" height="64" fill="none">
  <path stroke="#D2A24F" stroke-linecap="round" stroke-linejoin="round" stroke-width="2" d="M22 14a3 3 0 1 0 0-6 3 3 0 0 0 0 6Zm0 0v13.5m-6 25V46h12v6.5m-12 0V59h12v-6.5m-12 0h12M58 56l-4 3H10l-4-3m30-3.5V46h12v6.5m-12 0V59h12v-6.5m-12 0h12M42 18a3 3 0 1 0 0-6 3 3 0 0 0 0 6Zm0 0v10.5M17 34h11l-8-8-3 8Zm7 2.536c1.435.828 1.703 3.05.598 4.964-1.105 1.913-3.163 2.792-4.598 1.964-1.435-.828-1.703-3.05-.598-4.964 1.104-1.913 3.163-2.792 4.598-1.964Zm21.947 2.818c.268 1.635-1.282 3.25-3.462 3.607-2.18.357-4.165-.68-4.432-2.315-.268-1.635 1.282-3.25 3.462-3.607 2.18-.357 4.165.68 4.432 2.315ZM37 34h11l-7-7-4 7Z"/>
</svg>