<svg xmlns="http://www.w3.org/2000/svg" width="64" height="64" fill="none">
  <path stroke="#D2A24F" stroke-linecap="round" stroke-linejoin="round" stroke-width="2" d="M22 14a3 3 0 1 0 0-6 3 3 0 0 0 0 6Zm0 0v13.5m-6 25V46h6m-6 6.5V59h12v-6.5m-12 0h12m0 0V46h-6m36 10-4 3H10l-4-3m30-3.5V46h6m-6 6.5V59h12v-6.5m-12 0h12m0 0V46h-6m0-28a3 3 0 1 0 0-6 3 3 0 0 0 0 6Zm0 0v10m0 0 6 6h-6m0-6-1-1-4 7h5m0 0v2.982m0 0c-.16.012-.322.03-.485.057-2.18.357-3.73 1.972-3.462 3.607.247 1.513 1.965 2.513 3.947 2.372m0-6.036c1.982-.141 3.7.859 3.947 2.372.268 1.635-1.282 3.25-3.462 3.607a5.376 5.376 0 0 1-.485.057m0 0V46M22 34h-5l3-8 8 8h-6Zm0 0v2.34m0 0c-.982.277-1.953 1.042-2.598 2.16-1.105 1.913-.837 4.136.598 4.964.597.345 1.301.394 2 .196m0-7.32c.699-.198 1.403-.149 2 .196 1.435.828 1.703 3.05.598 4.964-.645 1.118-1.616 1.883-2.598 2.16m0 0V46"/>
</svg>