<svg xmlns="http://www.w3.org/2000/svg" fill="none" viewBox="0 0 96 96" width="96" height="96">
  <path fill="#fff" fill-rule="evenodd" stroke="#D2A24F" stroke-width="2" d="M39.72 72.699c-7.343-4.81-20.807-23.095-24.972-28.918-1.189-1.661-.781-4.145-.016-6.015 1.343-3.285 8.075-13.694 8.075-13.694s-6.288-3.994-7.549-5.996c-1.085-1.723-.016-6.016-.016-6.016s2.887-3.653 4.623-4.387c1.737-.734 4-.688 5.794-.016 1.933.724 5.806 4.36 5.806 4.36s11.19-4.406 16.79-4.42c5.602-.016 16.815 4.33 16.815 4.33s3.853-3.657 5.782-4.392c1.792-.681 4.054-.74 5.794-.015 1.74.724 4.647 4.362 4.647 4.362s1.092 4.287.016 6.016c-1.25 2.009-7.516 6.036-7.516 6.036s6.788 10.373 8.149 13.65c.775 1.867 1.14 4.314.016 6.016-3.856 5.844-16.112 24.198-23.152 29.047-5.14 3.541-13.86 3.476-19.086.052Z" clip-rule="evenodd"/>
  <path fill="#D24F5C" fill-rule="evenodd" d="M36.287 31.068a2.067 2.067 0 0 0-.74-.384c-.61-.17-1.332-.045-1.88.617-1.043 1.263-.848 3.313 1.123 4.709.905.64 1.428.998 1.725 1.195a11.419 11.419 0 0 0 .368.235l.019.01.008.005.003.002h.002s.001.001.2-.385l-.199.386c.163.084.36.057.495-.068l-.296-.318.295.318.002-.001.001-.001.003-.003.006-.006.016-.016.052-.056c.047-.05.121-.134.238-.269.233-.27.64-.755 1.337-1.617.425-.524.705-1.06.855-1.585.389-1.352-.096-2.593-1.048-3.253m-2.585.485c.16-.226.37-.425.61-.57.541-.329 1.27-.404 1.975.085m20.082.594c.214-.176.47-.312.739-.388.61-.173 1.332-.053 1.882.606 1.051 1.258.867 3.309-1.097 4.716a74.212 74.212 0 0 1-1.718 1.204 11.102 11.102 0 0 1-.366.236l-.02.011-.007.005-.004.001-.001.001s-.002.001-.203-.384l-.294.32v-.002h-.002l-.003-.004-.006-.005-.016-.016a11.21 11.21 0 0 1-.292-.324c-.235-.27-.644-.752-1.346-1.61-.427-.52-.71-1.055-.864-1.58-.395-1.35.083-2.593 1.031-3.258.703-.493 1.432-.422 1.976-.096.24.144.45.342.611.567Zm-.795 6.008-.294.32c.135.123.333.15.495.065l-.2-.385Z" clip-rule="evenodd"/>
  <path stroke="#B8BDBD" stroke-linecap="round" stroke-linejoin="round" stroke-miterlimit="1.5" stroke-width=".869" d="m48.4 60.353.013 5.214s1.453 1.735 2.323 1.732c.869-.002 2.19-.864 2.892-1.746.77-.968 1.727-4.06 1.727-4.06M44.863 37.07l-1.7 14.257m8.649-14.275L53.588 51.3M48.4 60.353l.014 5.214s-1.443 1.742-2.313 1.745c-.869.002-2.195-.853-2.901-1.73-.775-.964-1.75-4.052-1.75-4.052"/>
  <path fill="#2B0609" fill-rule="evenodd" d="m43.166 51.33 10.43-.027s2.017 1.217 1.743 2.08c-.478 1.507-3.074 5.802-4.616 6.965-1.233.93-3.397.936-4.635.012-1.549-1.154-4.168-5.435-4.654-6.94-.279-.86 1.732-2.09 1.732-2.09Z" clip-rule="evenodd"/>
  <path fill="#067D20" fill-rule="evenodd" d="M50.119 78.373s24.605-4.796 26.761-1.188c2.157 3.609 4.341 19.783-26.743 7.879l-.018-6.691ZM47.636 78.38s-24.63-4.664-26.768-1.044c-2.137 3.62-4.234 19.806 26.786 7.734l-.018-6.69Z" clip-rule="evenodd"/>
  <path fill="#09A027" fill-rule="evenodd" d="M46.757 78.368s-20.84-8.088-25.659-3.276c-4.819 4.811 6.172 4.205 7.816 3.324 1.857-.995 13.524-.676 17.843-.048ZM50.119 78.359s20.795-8.2 25.64-3.415c4.845 4.786-6.149 4.239-7.797 3.367-1.863-.985-13.528-.604-17.843.048Z" clip-rule="evenodd"/>
  <path fill="#035D15" fill-rule="evenodd" d="M51.24 78.645a1.394 1.394 0 0 0-1.397-1.39l-2.788.007a1.394 1.394 0 0 0-1.39 1.398l.016 6.134c.002.77.628 1.392 1.398 1.39l2.788-.008a1.394 1.394 0 0 0 1.39-1.397l-.017-6.134Z" clip-rule="evenodd"/>
  <path fill="#067D20" stroke="#D2A24F" stroke-width="2" d="m50.119 78.373-.192-.982-.81.158.002.826.018 6.691.002.686.64.246c7.825 2.996 13.637 4.259 17.929 4.364 4.298.105 7.174-.95 8.966-2.706 1.79-1.752 2.333-4.041 2.308-6.056-.024-1.996-.605-3.86-1.243-4.928-.492-.822-1.473-1.22-2.391-1.443-.981-.24-2.201-.35-3.537-.38-2.68-.06-6.012.208-9.236.583a179.42 179.42 0 0 0-8.744 1.261 194.299 194.299 0 0 0-3.83.684l-.055.01-.014.003h-.004l.19.983Zm-1.483.003-.002-.826-.812-.153-.186.982.185-.982-.004-.001-.014-.003-.054-.01a196.888 196.888 0 0 0-3.834-.663 179.626 179.626 0 0 0-8.751-1.214c-3.227-.358-6.56-.608-9.24-.534-1.335.037-2.554.155-3.534.4-.917.228-1.896.632-2.383 1.456-.633 1.072-1.204 2.938-1.217 4.935-.014 2.014.542 4.3 2.341 6.043 1.802 1.745 4.683 2.786 8.98 2.657 4.292-.128 10.097-1.422 17.905-4.46l.64-.25-.002-.685-.018-6.692Z"/>
  <path fill="#09A027" stroke="#D2A24F" stroke-width="2" d="m47.118 77.436-.505 1.922c-2.095-.305-6.04-.541-9.71-.575-1.83-.017-3.569.017-4.955.115-.694.049-1.284.113-1.745.19-.492.084-.738.167-.817.21l17.732-1.862Zm0 0-.361.932m.361-.932-.361.932m0 0 .361-.932h-.001l-.003-.002-.013-.005-.047-.018a47.85 47.85 0 0 0-.859-.32c-.586-.215-1.427-.515-2.45-.86-2.046-.688-4.83-1.558-7.773-2.277-2.934-.717-6.068-1.295-8.8-1.38-1.367-.042-2.67.037-3.814.303-1.14.264-2.187.73-2.966 1.507-.652.65-1.123 1.291-1.351 1.933-.243.683-.21 1.377.166 1.977.344.55.895.895 1.425 1.118.544.228 1.171.374 1.807.466 1.274.184 2.733.173 3.971.063a15.613 15.613 0 0 0 1.698-.238c.465-.094.937-.223 1.278-.406l17.37-.929Zm3.362-.01-.367-.93.516 1.92c2.093-.316 6.037-.574 9.706-.627 1.83-.027 3.57-.002 4.956.088.694.045 1.284.106 1.746.181.492.08.74.163.818.205.342.18.815.306 1.28.399.493.098 1.077.176 1.7.228 1.238.104 2.697.107 3.97-.084.635-.095 1.262-.245 1.804-.476.53-.226 1.079-.573 1.42-1.125.372-.603.402-1.297.155-1.979-.232-.64-.706-1.278-1.361-1.925-.783-.774-1.833-1.233-2.975-1.491-1.145-.26-2.448-.332-3.815-.282-2.732.099-5.863.694-8.793 1.427-2.938.735-5.718 1.62-7.76 2.32a101.793 101.793 0 0 0-3.303 1.197l-.047.018-.012.005-.004.001.366.93Z"/>
  <path fill="#035D15" stroke="#D2A24F" stroke-width="1.759" d="M52.12 78.643a2.274 2.274 0 0 0-2.28-2.267l-2.788.007a2.274 2.274 0 0 0-2.267 2.28l.017 6.133a2.274 2.274 0 0 0 2.28 2.267l2.787-.007a2.274 2.274 0 0 0 2.267-2.28l-.016-6.133Z"/>
  <path fill="#FCC8C8" d="M71.358 10.417c-1.193.505-3.484 2.827-3.484 2.827l6.024 6.911s3.805-2.625 4.514-3.872c.611-1.073-.258-3.608-.258-3.608s-1.992-2.085-3.125-2.462c-1.133-.376-2.564-.265-3.671.204ZM18.027 17.546c.867 1.428 5.255 4.245 5.255 4.245l6.224-8.73s-2.69-2.58-4.044-3.084c-1.258-.468-2.851-.483-4.082.058-1.23.542-3.302 3.19-3.302 3.19s-.798 3.092-.051 4.32Z"/>
</svg>