<svg xmlns="http://www.w3.org/2000/svg" fill="none" viewBox="0 0 776 256" shape-rendering="geometricPrecision" text-rendering="geometricPrecision">
  <style>
    @keyframes eQAkPH5bZpz16_ts__ts{0%{transform:translate(503.927063px,136.890152px) scale(1,1);animation-timing-function:cubic-bezier(.6,-.28,.735,.045)}50%{transform:translate(503.927063px,136.890152px) scale(1.1,1.1);animation-timing-function:cubic-bezier(.6,-.28,.735,.045)}to{transform:translate(503.927063px,136.890152px) scale(1,1)}}@keyframes eQAkPH5bZpz72_ts__ts{0%{transform:translate(280.059158px,136.800041px) scale(1,1);animation-timing-function:cubic-bezier(.6,-.28,.735,.045)}50%{transform:translate(280.059158px,136.800041px) scale(1.1,1.1);animation-timing-function:cubic-bezier(.6,-.28,.735,.045)}to{transform:translate(280.059158px,136.800041px) scale(1,1)}}
  </style>
  <path d="M441.56 88.37s3.45 5.16 9.29 1.4a9.75 9.75 0 0 0 3.97-4.9c2.14-5.05-2.92-18.82-17.72-12.87-19.9 8-8.67 47.14 24.96 39.47 11.42-2.6 19.82-10.7 21.82-16.83 5.4-16.56-1.13-32.15-4.25-38.25C469 35.55 426.3 19.1 403.4 54.57c-22.9 35.5-13.18 90.23 49.08 123.02 28.91 15.23 46.34 24.09 56.71 29.2M531.3 64.7s-.37 6.17-7.33 5.8a9.96 9.96 0 0 1-5.94-2.3c-4.41-3.31-7.02-17.73 8.82-19.87 21.3-2.86 31.45 36.56-1.58 46.47-11.2 3.37-22.6.5-27.44-3.83-13.08-11.69-15.35-28.4-15.74-35.21-1.37-23.3 27.24-58.57 65.1-39.1 37.84 19.46 57.23 71.65 19.97 130.69-17.93 28.41-28.66 44.83-34.97 54.21" fill="none" stroke="#d2a24f" stroke-width="4" stroke-linecap="round" stroke-linejoin="round" stroke-miterlimit="1.5"/>
  <path d="M528.84 211.8s23.34-14.7 13.54-36.73c0 0 37.23-2.03 32.76-32.16 0 0 20.94 7.35 37.38-14.91 0 0-17.54 30.95-2.58 50.77 0 0-34.05 6.38-31.37 30.65 0 0-24.13-9.5-48.67 6.35-1.15.74-.75-.45-1.06-3.96Z" clip-rule="evenodd" fill="#006c1d" fill-rule="evenodd"/>
  <path d="M519.57 215.7s-27.56-1.07-30.1-25.04c0 0-33.25 16.85-44.45-11.48 0 0-14.45 16.84-39.83 5.78 0 0 30.68 18.03 27.63 42.67 0 0 32.67-11.5 42.49 10.87 0 0 16.15-20.3 45.32-18.84 1.37.07.42-.76-1.06-3.96Z" clip-rule="evenodd" fill="#148d02" fill-rule="evenodd"/>
  <path d="M522.66 219.1c-18.47-1.92-53.05-3.46-88.94-18.42m8.9-12.77s2.61 14.81 18.12 21.65m.13.44s-13.5.79-21.67 11.1m52.12-4.87s-8.55-8.55-4.55-16.98m4.55 16.98s-13.04 6.12-13.97 15.01" opacity=".1" fill="none" stroke="#fff" stroke-width="1.74" stroke-linecap="round" stroke-linejoin="round" stroke-miterlimit="1.5"/>
  <path d="M512.32 217.3a7.82 7.82 0 1 0-.13-15.63 7.82 7.82 0 1 0 .13 15.64Z" fill="#a00615"/>
  <path d="M527.87 216.32c15.04-10.9 44.21-29.52 67.82-60.42m-42.12 42.25s14.36-1.23 19.6 6.01m-19.6-6.02s3.13-11.68-4.55-16.98m32.57-31.9s5.14 14.15-4.87 27.82m.11.45s12.09-6.08 24.31-1.23" opacity=".1" fill="none" stroke="#fff" stroke-width="1.74" stroke-linecap="round" stroke-linejoin="round" stroke-miterlimit="1.5"/>
  <path d="M524.55 225.03a7.82 7.82 0 1 0-.13-15.64 7.82 7.82 0 0 0 .13 15.64Z" fill="#d10818"/>
  <path d="M534.4 205.78a7.82 7.82 0 1 0-13.14-8.47 7.82 7.82 0 0 0 2.34 10.8 7.82 7.82 0 0 0 10.8-2.33Z" fill="#e55011"/>
  <path d="M528.25 197.39a1.17 1.17 0 1 0-1.844-1.441 1.17 1.17 0 0 0 1.844 1.441Zm-15.53 9.45a1.17 1.17 0 1 0-1.791-1.506 1.17 1.17 0 0 0 1.791 1.506Zm13.35 7.34a1.17 1.17 0 1 0-1.844-1.441 1.17 1.17 0 0 0 1.844 1.441Z" fill="#fff"/>
  <path d="M505.4 175.68c-8.3-2.65-24.2-16.87-29.67-21.29-1.57-1.26-1.8-3.7-1.52-5.66.48-3.44 2.7-14.52 2.7-14.52s-7.07-2.15-8.78-3.71c-1.48-1.35-1.52-5.67-1.52-5.67s1.88-4.18 3.37-5.31a8.43 8.43 0 0 1 5.6-1.5c2.05.18 6.7 2.62 6.7 2.62s9.72-7.02 15.13-8.47c5.4-1.45 17.33-.23 17.33-.23s2.81-4.43 4.5-5.62a8.42 8.42 0 0 1 5.59-1.5c1.86.24 5.58 2.92 5.58 2.92s2.13 3.76 1.52 5.66c-.71 2.21-5.76 7.61-5.76 7.61s7.47 8.49 9.6 11.22c1.22 1.56 2.18 3.78 1.52 5.67-2.27 6.49-7.85 26.47-13.45 32.84-4.08 4.66-12.53 6.83-18.43 4.94Z" clip-rule="evenodd" fill="#fff" fill-rule="evenodd"/>
  <path d="M490.71 174.44a1.86 1.86 0 1 1-1.145-3.54 1.86 1.86 0 0 1 1.145 3.54Zm4.95 4.08a1.864 1.864 0 1 1-1.04-3.58 1.864 1.864 0 0 1 1.04 3.58Zm4.74 3.34a1.86 1.86 0 1 1-1.145-3.54 1.86 1.86 0 0 1 1.145 3.54Zm4.36 1.9a1.86 1.86 0 1 1-1.145-3.54 1.86 1.86 0 0 1 1.145 3.54Zm5.52.44a1.864 1.864 0 1 1-1.04-3.58 1.864 1.864 0 0 1 1.04 3.58Zm7.39.56a2.71 2.71 0 1 0-1.167-5.293 2.71 2.71 0 0 0 1.167 5.293Zm5.25-3.95a1.863 1.863 0 1 0-.88-3.62 1.863 1.863 0 0 0 .88 3.62Zm4.56-3.13a1.865 1.865 0 1 0-.9-3.62 1.865 1.865 0 0 0 .9 3.62Zm2.82-3.83a1.864 1.864 0 0 0-.89-3.62 1.865 1.865 0 0 0 .9 3.62Zm2.45-5.27a1.86 1.86 0 1 0-.9-3.61 1.86 1.86 0 0 0 .9 3.61Zm2.24-6a1.864 1.864 0 1 0-.89-3.62 1.864 1.864 0 0 0 .89 3.62Z" fill="#fff"/>
  <path d="M505.4 175.68c-8.3-2.65-24.2-16.87-29.67-21.29-1.57-1.26-1.8-3.7-1.52-5.66.48-3.44 2.7-14.52 2.7-14.52s-7.07-2.15-8.78-3.71c-1.48-1.35-1.52-5.67-1.52-5.67s1.88-4.18 3.37-5.31a8.43 8.43 0 0 1 5.6-1.5c2.05.18 6.7 2.62 6.7 2.62s9.72-7.02 15.13-8.47c5.4-1.45 17.33-.23 17.33-.23s2.81-4.43 4.5-5.62a8.42 8.42 0 0 1 5.59-1.5c1.86.24 5.58 2.92 5.58 2.92s2.13 3.76 1.52 5.66c-.71 2.21-5.76 7.61-5.76 7.61s7.47 8.49 9.6 11.22c1.22 1.56 2.18 3.78 1.52 5.67-2.27 6.49-7.85 26.47-13.45 32.84-4.08 4.66-12.53 6.83-18.43 4.94Z" clip-rule="evenodd" fill="none" stroke="#d2a24f" stroke-width="2"/>
  <path d="M490.71 174.44a1.86 1.86 0 1 1-1.145-3.54 1.86 1.86 0 0 1 1.145 3.54Zm4.95 4.08a1.864 1.864 0 1 1-1.04-3.58 1.864 1.864 0 0 1 1.04 3.58Zm4.74 3.34a1.86 1.86 0 1 1-1.145-3.54 1.86 1.86 0 0 1 1.145 3.54Zm4.36 1.9a1.86 1.86 0 1 1-1.145-3.54 1.86 1.86 0 0 1 1.145 3.54Zm5.52.44a1.864 1.864 0 1 1-1.04-3.58 1.864 1.864 0 0 1 1.04 3.58Zm7.39.56a2.71 2.71 0 1 0-1.167-5.293 2.71 2.71 0 0 0 1.167 5.293Zm5.25-3.95a1.863 1.863 0 1 0-.88-3.62 1.863 1.863 0 0 0 .88 3.62Zm4.56-3.13a1.865 1.865 0 1 0-.9-3.62 1.865 1.865 0 0 0 .9 3.62Zm2.82-3.83a1.864 1.864 0 0 0-.89-3.62 1.865 1.865 0 0 0 .9 3.62Zm2.45-5.27a1.86 1.86 0 1 0-.9-3.61 1.86 1.86 0 0 0 .9 3.61Zm2.24-6a1.864 1.864 0 1 0-.89-3.62 1.864 1.864 0 0 0 .89 3.62Z" fill="none" stroke="#d2a24f" stroke-width="2"/>
  <path d="M520.86 108.95c-1.07.73-2.86 3.46-2.86 3.46l7.27 5.59s3.21-3.32 3.66-4.69c.39-1.17-.96-3.48-.96-3.48s-2.37-1.65-3.55-1.8a5.49 5.49 0 0 0-3.56.92Zm-50.8 20.3c1.21 1.16 6.18 2.75 6.18 2.75l3.76-10.04s-3.27-1.8-4.7-1.94a5.69 5.69 0 0 0-3.93 1.11c-1.05.84-2.37 3.94-2.37 3.94s.03 3.19 1.07 4.18Z" fill="#fcc8c8"/>
  <g transform="translate(503.927 136.89)" style="animation:eQAkPH5bZpz16_ts__ts 2000ms linear infinite normal forwards">
    <path d="M-13.167 1.23c-.5-.73-2.18-1.1-2.84.33-.67 1.43-.03 3.42 2.41 4.33 2.45.92 2.8 1 2.8 1l-2.37-5.66Zm0 0c-.16-.86.75-2.34 2.24-1.8 1.06.39 1.87 1.45 1.84 2.9-.01.57-.15 1.2-.45 1.87a37.69 37.69 0 0 1-1.26 2.68l-2.37-5.65Zm25.64-6.65c.07-.88 1.34-2.05 2.63-1.14s1.74 2.95.07 4.96C13.513.42 13.253.66 13.253.66l-.78-6.08Zm0 0c-.29-.83-1.82-1.65-2.83-.44-.74.87-.9 2.19-.15 3.43.3.49.73.96 1.33 1.4a37.36 37.36 0 0 0 2.43 1.69l-.78-6.08Z" clip-rule="evenodd" fill="#d24f5c" fill-rule="evenodd" stroke="#d24f5c" stroke-width=".87" stroke-linecap="round" stroke-linejoin="round" stroke-miterlimit="1.5"/>
  </g>
  <path d="m501.68 141.54 2.01 14.22m4.7-16.02 5.37 13.32m-2.7 10.08 1.36 5.04s1.84 1.3 2.68 1.08c.84-.23 1.9-1.4 2.35-2.43.5-1.14.63-4.37.63-4.37m-7.01.68 1.35 5.04s-.95 2.05-1.8 2.28c-.83.22-2.33-.27-3.24-.93-1-.74-2.73-3.47-2.73-3.47" fill="none" stroke="#b8bdbd" stroke-width=".87" stroke-linecap="round" stroke-linejoin="round" stroke-miterlimit="1.5"/>
  <path d="m503.7 155.76 10.07-2.7s2.26.66 2.22 1.56c-.08 1.58-1.49 6.4-2.68 7.92a4.21 4.21 0 0 1-4.48 1.2c-1.79-.72-5.42-4.19-6.27-5.52-.5-.76 1.14-2.46 1.14-2.46Z" clip-rule="evenodd" fill="#2b0609" fill-rule="evenodd"/>
  <path d="M170.43 136.8s-7.42-4.78-6.62-10.04m38.12 52.4s-12.2 4.35-24.95 1.22" fill="none" stroke="#067d20" stroke-width="1.74" stroke-linecap="round" stroke-linejoin="round" stroke-miterlimit="1.5"/>
  <path d="M195.87 173.95s7.7-5.84 12.06-17.95" fill="none" stroke="#09a027" stroke-width="1.74" stroke-linecap="round" stroke-linejoin="round" stroke-miterlimit="1.5"/>
  <path d="M172.5 137.18s1-3.43-.52-8.93m-.07 12.34s-5.15 1.03-9.66-5.3" fill="none" stroke="#067d20" stroke-width="1.74" stroke-linecap="round" stroke-linejoin="round" stroke-miterlimit="1.5"/>
  <path d="M194.37 172.25s-8.17 3.88-19.68 1.35m5.55-20.69s4.01-2.76 3.92-11.85" fill="none" stroke="#035f15" stroke-width="1.74" stroke-linecap="round" stroke-linejoin="round" stroke-miterlimit="1.5"/>
  <path d="M206.35 184.05s8.02-5.8 10.14-17.88m-27.08-.74c-.55.38-20.55 3.85-30.14-4.17m80.18 44.65s-11.4-.12-18.97 7.14m10.73-10.4s.95-6.36 5.25-10.93m6.1 16.52s-2.1-7.25.7-11.74" fill="none" stroke="#067d20" stroke-width="1.74" stroke-linecap="round" stroke-linejoin="round" stroke-miterlimit="1.5"/>
  <path d="M170.42 136.78s24.12 52.95 75.58 72.18" fill="none" stroke="#7d4f06" stroke-width="3" stroke-linecap="round" stroke-linejoin="round" stroke-miterlimit="1.5"/>
  <path d="M192.93 170.93s8.06-5.56 9.87-15.86m-22.85-.63s-16.69.34-24.95-8.46m19.99-3.06s7.21-9.66 3.43-18.8" fill="none" stroke="#067d20" stroke-width="1.74" stroke-linecap="round" stroke-linejoin="round" stroke-miterlimit="1.5"/>
  <path d="M175.54 146.55s-14.5.14-18.42-12.2" fill="none" stroke="#035f15" stroke-width="1.74" stroke-linecap="round" stroke-linejoin="round" stroke-miterlimit="1.5"/>
  <path d="M176.4 148.49s4.6-3.9 5.43-14.02m-2.8 16.26s-9.03 1.57-16.95-4.86m26.85 17.47s7.33-6.29 9.22-21.5M182 155.58s7.52-5.22 7.92-17m-7.17 19.9s-16.27.76-26.86-7.66m30.26 10.04s2.92-.13 7.6-9.21m-9.48 8.18s10.62-9.18 10-25.75" fill="none" stroke="#067d20" stroke-width="1.74" stroke-linecap="round" stroke-linejoin="round" stroke-miterlimit="1.5"/>
  <path d="M185.84 162.56s-18.48 2.62-29.04-7.07" fill="none" stroke="#09a027" stroke-width="1.74" stroke-linecap="round" stroke-linejoin="round" stroke-miterlimit="1.5"/>
  <path d="M190.83 167.64s7.2-5.62 9.54-18.66m-8.84 19.92s-12.08 4.13-24.64-.96m30.46 7.33s-14.12 6.25-26.58.45m34.73 8.1s-11.16 2.72-24.01.93m17.25-7.43s7.25-5.98 10.82-15.71m-6.31 20.03c2.45-.42 8.65-5.06 9.74-14.64m-11.06 12.17s6.83-3.49 12.83-21.92" fill="none" stroke="#067d20" stroke-width="1.74" stroke-linecap="round" stroke-linejoin="round" stroke-miterlimit="1.5"/>
  <path d="M207.75 185.99s-5.43 3.87-21.45 1.38" fill="none" stroke="#09a027" stroke-width="1.74" stroke-linecap="round" stroke-linejoin="round" stroke-miterlimit="1.5"/>
  <path d="M209.51 186.33s8-5.73 11.15-22.7" fill="none" stroke="#035f15" stroke-width="1.74" stroke-linecap="round" stroke-linejoin="round" stroke-miterlimit="1.5"/>
  <path d="M210.7 189.18s-13.91 5.92-28.43 1m30.18-.69s9.96-9.33 11.33-23.54m-9.81 24.7s-9.65 6.65-25.5 4.19m27.21-3.87s7.97-6.8 9.96-15.84" fill="none" stroke="#067d20" stroke-width="1.74" stroke-linecap="round" stroke-linejoin="round" stroke-miterlimit="1.5"/>
  <path d="M216.96 193.62s-13.72 8.47-32.53 4.02" fill="none" stroke="#035f15" stroke-width="1.74" stroke-linecap="round" stroke-linejoin="round" stroke-miterlimit="1.5"/>
  <path d="M218.8 193.94s7.9-5.44 10.4-17.94m-9.18 20.18s-9.23 6.36-23.94 5.35m26.08-4.96s9.32-8.24 9.7-16.77" fill="none" stroke="#067d20" stroke-width="1.74" stroke-linecap="round" stroke-linejoin="round" stroke-miterlimit="1.5"/>
  <path d="M225 197.97s-8.21 10.77-28.14 9" fill="none" stroke="#09a027" stroke-width="1.74" stroke-linecap="round" stroke-linejoin="round" stroke-miterlimit="1.5"/>
  <path d="M226.4 200s2.94-7.86 7.62-12.74" fill="none" stroke="#035f15" stroke-width="1.74" stroke-linecap="round" stroke-linejoin="round" stroke-miterlimit="1.5"/>
  <path d="M228.97 200.47s-12.2 7.2-22.65 11.76m28.31-8.96s-13.8 2.55-21.3 10.24m24.41-7.92s-2.05-6.26 1.88-10.25m4.64 13.22s-11.86-.63-16.63 4.03m142.08-11.4s8.82.2 11.1-4.61m-60.94 22.06s7.68 10.44 20 14.98" fill="none" stroke="#067d20" stroke-width="1.74" stroke-linecap="round" stroke-linejoin="round" stroke-miterlimit="1.5"/>
  <path d="M327.83 217.72s-3.1-9.14.05-21.62" fill="none" stroke="#08a027" stroke-width="1.74" stroke-linecap="round" stroke-linejoin="round" stroke-miterlimit="1.5"/>
  <path d="M367.77 200.34s1.1-3.4 5.43-7.1" fill="none" stroke="#067d20" stroke-width="1.74" stroke-linecap="round" stroke-linejoin="round" stroke-miterlimit="1.5"/>
  <path d="M366.36 203.5s3.69 3.74 10.96 1.02" fill="none" stroke="#035d15" stroke-width="1.74" stroke-linecap="round" stroke-linejoin="round" stroke-miterlimit="1.5"/>
  <path d="M330.02 217.15s4.6 7.79 15.55 12.14m6.99-20.24s-1.78-4.54 3.38-12.02m-42.45 23.19s-3.4-9.3 1.61-20.5" fill="none" stroke="#067d20" stroke-width="1.74" stroke-linecap="round" stroke-linejoin="round" stroke-miterlimit="1.5"/>
  <path d="M337.93 214.28c.25.62 14.87 14.7 27.31 13.42" fill="none" stroke="#08a027" stroke-width="1.74" stroke-linecap="round" stroke-linejoin="round" stroke-miterlimit="1.5"/>
  <path d="M273.82 219.8s9.5 6.27 11.71 16.53" fill="none" stroke="#035d15" stroke-width="1.74" stroke-linecap="round" stroke-linejoin="round" stroke-miterlimit="1.5"/>
  <path d="M282.47 221.7s3.64-7.6 1.07-14.7m-13.6 12.97s4.98-4.15 5.86-8.97" fill="none" stroke="#067d20" stroke-width="1.74" stroke-linecap="round" stroke-linejoin="round" stroke-miterlimit="1.5"/>
  <path d="M369.71 201.18s-45.07 28.52-102.3 17.78" fill="none" stroke="#7d4f06" stroke-width="3" stroke-linecap="round" stroke-linejoin="round" stroke-miterlimit="1.5"/>
  <path d="M331.95 216.87s-3.56-9.13.7-18.67m19.29 12.27s13.64 9.63 25.4 6.97M362.5 203.7s-.56-12.05 7.7-17.5M360 206.41s11.94 8.24 22.09.21m-23.88.91s-1.63-5.8 3.35-14.66m-6.8 15.04s6.6 6.36 16.76 5.47m-32.02-.56s-2.55-9.32 4.4-22.98m5.7 20.42s-3.31-8.53 2.96-18.51m-5.2 20.5s13.04 9.74 26.53 8.7m-30.7-8.63s-2.34-1.74-1.14-11.9" fill="none" stroke="#067d20" stroke-width="1.74" stroke-linecap="round" stroke-linejoin="round" stroke-miterlimit="1.5"/>
  <path d="M345.35 212.52s-3.67-13.55 6.13-26.93" fill="none" stroke="#035d15" stroke-width="1.74" stroke-linecap="round" stroke-linejoin="round" stroke-miterlimit="1.5"/>
  <path d="M342.51 213.9s13.84 12.52 28.02 10.41m-35-9s-2.82-8.69 2.54-20.8m-3.83 21.46s7.7 10.19 20.95 13" fill="none" stroke="#067d20" stroke-width="1.74" stroke-linecap="round" stroke-linejoin="round" stroke-miterlimit="1.5"/>
  <path d="M325.86 217.99s8.2 13.08 21.77 15.25" fill="none" stroke="#035d15" stroke-width="1.74" stroke-linecap="round" stroke-linejoin="round" stroke-miterlimit="1.5"/>
  <path d="M314.31 220.5s7.73 8.5 19.38 14.22m-10.14-15.82s-2.65-9.01-.16-19.08m-5.99 20.14c-1.79-1.73-4.33-9.04.14-17.59m2.34 16.28s-3.7-6.72 1.64-25.35m-10.3 27.73s2.34 6.26 17 13.16m-18.64-13.86s-3.41-9.22 3.47-25.05M307 222.02s8.22 12.7 23 16.76" fill="none" stroke="#067d20" stroke-width="1.74" stroke-linecap="round" stroke-linejoin="round" stroke-miterlimit="1.5"/>
  <path d="M305.38 221.31s-3.02-13.31 3.8-25.85" fill="none" stroke="#035d15" stroke-width="1.74" stroke-linecap="round" stroke-linejoin="round" stroke-miterlimit="1.5"/>
  <path d="M303.47 221.42s4.27 10.91 18.78 17.74m-20.37-18.43s-2.8-10.1.62-18.7" fill="none" stroke="#067d20" stroke-width="1.74" stroke-linecap="round" stroke-linejoin="round" stroke-miterlimit="1.5"/>
  <path d="M299.33 222.2s6.62 14.7 24.7 21.55" fill="none" stroke="#035d15" stroke-width="1.74" stroke-linecap="round" stroke-linejoin="round" stroke-miterlimit="1.5"/>
  <path d="M297.64 221.44s-4.24-6.26.96-17.1" fill="none" stroke="#08a027" stroke-width="1.74" stroke-linecap="round" stroke-linejoin="round" stroke-miterlimit="1.5"/>
  <path d="M295.35 222.6s4.09 10.45 16.84 17.84m-18.82-18.7s-3.1-12.05 1.37-19.33m-4.5 18.9s.77 13.52 18.27 23.21m-20.57-22.31s1.97-8.17.82-14.83" fill="none" stroke="#067d20" stroke-width="1.74" stroke-linecap="round" stroke-linejoin="round" stroke-miterlimit="1.5"/>
  <path d="M285.56 221.15s6.07 12.8 12.17 22.43" fill="none" stroke="#08a027" stroke-width="1.74" stroke-linecap="round" stroke-linejoin="round" stroke-miterlimit="1.5"/>
  <path d="M279.29 220.3s10.01 9.84 11.9 20.41m-15.78-20.23s5.21-4.04 4.2-9.54m-11.27 8.34s10.18 6.12 11.52 12.66" fill="none" stroke="#067d20" stroke-width="1.74" stroke-linecap="round" stroke-linejoin="round" stroke-miterlimit="1.5"/>
  <path d="M252.09 66.07s.37 6.18 7.33 5.8a9.96 9.96 0 0 0 5.94-2.3c4.41-3.31 7.02-17.73-8.82-19.86-21.3-2.87-31.45 36.55 1.58 46.46 11.2 3.37 22.59.5 27.44-3.83 13.08-11.69 15.34-28.4 15.74-35.21 1.37-23.3-27.24-58.57-65.1-39.1-37.84 19.46-57.23 71.65-19.97 130.7a2587.827 2587.827 0 0 0 33.16 51.5m92.44-110.48s-3.46 5.16-9.3 1.4a9.75 9.75 0 0 1-3.96-4.9c-2.14-5.05 2.92-18.82 17.72-12.87 19.9 8 8.67 47.14-24.96 39.47-11.42-2.6-19.82-10.7-21.82-16.83-5.4-16.56 1.13-32.15 4.25-38.25 10.64-20.84 53.34-37.3 76.23-1.82 22.9 35.5 13.18 90.24-49.08 123.02-31.9 16.8-49.83 25.85-59.72 30.67" fill="none" stroke="#d2a24f" stroke-width="4" stroke-linecap="round" stroke-linejoin="round" stroke-miterlimit="1.5"/>
  <path d="M244.07 225.87s.14-7.11 4.7-.96c3.14 4.26 3.54 2.58 8.27 2.22 2.81-.22.19 6.39-5.52 4.06-4.54-1.84-7.36-1.38-7.45-5.32Z" clip-rule="evenodd" fill="#5e4733" fill-rule="evenodd"/>
  <path d="M248.71 220.46s.74 1.3-.55 2.55c0 0 1.97 5.32 6.77 3.74s5.76-2.95 4.11-2.96c-1.4 0-7.61-2.76-9.84-4.66-.36-.31-1.1.35-.49 1.33Z" clip-rule="evenodd" fill="#5e4733" fill-rule="evenodd"/>
  <path d="M258.36 226.36s.01-1.79 2.62-1.52c2.6.27 4.46-.83 4.45-1.42 0-.58 2.54 3.49-.7 4.02-3.26.52-5.86 1.21-6.38-1.08Z" clip-rule="evenodd" fill="#7e6033" fill-rule="evenodd"/>
  <path d="M243.25 212.33s2.02-1.96 3.73-.1c1.71 1.84 2.27 3.75 4.27 3.35s-2.4 3.66-3.66 1.24c-1.26-2.41-7.14-.68-4.34-4.49Z" clip-rule="evenodd" fill="#5e4733" fill-rule="evenodd"/>
  <path d="M250.77 219.5s-3.08-1.26 1.24-2.6c4.32-1.36 3.84.88 3.9 1.98.07 1.1.63 1.9-2.64 1.6a7.73 7.73 0 0 1-2.5-.98Z" clip-rule="evenodd" fill="#7e6033" fill-rule="evenodd"/>
  <path d="M258.84 228.7s5.56-.9 5.17 1.38c-.38 2.29-3.55 1.27-6 1.73-2.46.46.33-3.06.83-3.12Zm5.9-5.44s-7.45 1.62-8.37-1.88c-.27-1.02.3-1.52.38-4.3.03-1.16 2.81 1.64 4.83 2.7 2.76 1.45 5.78 1.99 3.16 3.48Zm-12.85-13.04c1.59-3.65-9.3-4.59-7.81-.99 1.5 3.6 2.23.58 4.62 3.46.93 1.12 3.27 3.77 7.25 3.14 3.97-.62-5.65-1.97-4.06-5.61Z" clip-rule="evenodd" fill="#5e4733" fill-rule="evenodd"/>
  <path d="M269.88 220.6s-3.86 2.05-11.2-3.74c0 0 4.2 1.38 7.4.05 1.78-.74 2.2 2.3 3.18 1.89.61-.26 1.47 1.03.62 1.8Zm-7.07-6.99s2.16.9 5.8-2.52c0 0-2.17.92-3.94.37-.99-.31-1.07 1.33-1.61 1.15-.34-.1-.74.62-.25 1Z" clip-rule="evenodd" fill="#5e4733" fill-rule="evenodd"/>
  <path d="M257.17 214.24s1.95-2.17 4.47-.13c2.52 2.03 1.58 1.02 3.1.83 1.26-.16 3.31.8.75 1.36-.54.11-1.29.21-2.3.28-3.81.25-6.83.34-6.02-2.34Zm-13.8 9.22s.18.47.41.1c1-1.56 2.19-1.83 3.25-1.34 3.5 1.62-.29-9.2-4.06-5.52-3.78 3.68-.83 4.46.4 6.76Zm17-18.77s1.15-6.47 6-5.04c4.86 1.43 1.35 3.99-.74 2.75-2.09-1.25-4.12-.52-5.27 2.3Z" clip-rule="evenodd" fill="#7e6033" fill-rule="evenodd"/>
  <path d="M251.49 202.34c2.9 1.64 2.22.56 4.14 1.1 3.57 1.03-.55 4.63.76 10.2.37 1.55-1.18.39-2.07-.56-.76-.81-.8-1.24-.64-2.39.05-.34 1.77-3.79-2.08-5-3.85-1.2-1.56-4.17-.11-3.35Z" clip-rule="evenodd" fill="#5e4733" fill-rule="evenodd"/>
  <path d="M257.4 210.5s3.82-3.24 1.32-11.76c-.53-1.8-2.56-2-2.7-2.95-.62-3.77 1.59-2.39 3.81-1.2 2.78 1.5 5.12 2.25 2.81 5.2-2.3 2.95-1 8.26-5.25 10.7Z" clip-rule="evenodd" fill="#5e4733" fill-rule="evenodd"/>
  <path d="M256.83 211.54s-.82-3.02.84-3.1c1.65-.09 4.32 1.33 2.21 2.8-2.1 1.49-2.72 2.48-3.05.3Z" clip-rule="evenodd" fill="#7e6033" fill-rule="evenodd"/>
  <path d="M259.35 212.56s1.77-1.66 2.46-3.78c.68-2.13 4.27-4.53 5.98-.65 1.71 3.87.7 1.67-2.63 1.55-3.33-.13-.4 2.9-5.81 2.88Z" clip-rule="evenodd" fill="#5e4733" fill-rule="evenodd"/>
  <path d="M262.08 172.26c-5.83-6.56-14.05-27.73-16.54-34.44-.72-1.91.33-4.2 1.55-5.81 2.16-2.82 11.38-11.1 11.38-11.1s-5.03-5.5-5.72-7.77c-.6-1.95 1.56-5.8 1.56-5.8s3.74-2.78 5.6-3.03a8.22 8.22 0 0 1 5.6 1.5c1.68 1.2 4.47 5.72 4.47 5.72s11.95-1.33 17.36.12c5.4 1.45 15.1 8.58 15.1 8.58s4.67-2.52 6.72-2.73c1.91-.19 4.11.35 5.6 1.5 1.5 1.16 3.35 5.43 3.35 5.43s-.07 4.42-1.56 5.8c-1.73 1.62-8.83 3.87-8.83 3.87s3.84 11.79 4.3 15.3c.25 2-.03 4.47-1.56 5.82-5.25 4.63-21.88 19.14-29.94 21.98-5.89 2.08-14.29-.27-18.44-4.94Z" clip-rule="evenodd" fill="#fff" fill-rule="evenodd" stroke="#d2a24f" stroke-width="2"/>
  <g transform="translate(280.06 136.8)" style="animation:eQAkPH5bZpz72_ts__ts 2000ms linear infinite normal forwards">
    <path d="M269.65 131.18a2.06 2.06 0 0 0-.61-.56 1.75 1.75 0 0 0-1.98.1c-1.34.95-1.69 2.98-.15 4.84.443.54.893 1.073 1.35 1.6.097.112.197.222.3.33l.01.01h.01v.01l.3-.32-.3.32a.43.43 0 0 0 .5.07l-.2-.39.2.39.01-.01.02-.01.07-.04.3-.2c.3-.2.81-.56 1.71-1.21.55-.4.96-.84 1.24-1.3.73-1.21.59-2.54-.16-3.42m-2.62-.2c.21-.19.47-.32.74-.4.6-.18 1.33-.06 1.88.6m19.23 5.82c.25-.11.53-.18.81-.18.64 0 1.3.3 1.66 1.08.69 1.49-.03 3.42-2.29 4.26-.653.249-1.31.489-1.97.72l-.34.1-.08.03h-.03l-.1-.42-.37.23-.02-.03-.03-.07-.16-.32a75.557 75.557 0 0 1-.88-1.9 4.5 4.5 0 0 1-.42-1.75 2.9 2.9 0 0 1 1.85-2.88c.8-.3 1.49-.03 1.93.42.2.2.34.45.44.71Zm-2.34 5.6-.37.22a.43.43 0 0 0 .46.2l-.09-.43Z" transform="translate(-280.06 -136.8)" clip-rule="evenodd" fill="#d24f5c" fill-rule="evenodd"/>
  </g>
  <path d="M257.34 108s3-.38 4.31-.27c1.21.1 2.57.19 3.52.95 1.03.82 2.7 4.02 2.7 4.02l-7.4 6.5s-3.9-4.5-4.42-6.37c-.45-1.6 1.3-4.84 1.3-4.84Zm57.8 15.48s-2.41-1.82-3.6-2.38c-1.1-.51-2.31-1.12-3.51-.94-1.31.2-4.34 2.13-4.34 2.13l3.15 9.33s5.63-1.95 7.01-3.3c1.2-1.17 1.3-4.84 1.3-4.84Z" clip-rule="evenodd" fill="#fcc8c8" fill-rule="evenodd"/>
  <path d="m273.69 162.61-1.35 5.04s.94 2.05 1.78 2.28c.84.22 2.34-.26 3.25-.93 1-.73 2.73-3.47 2.73-3.47m-3.74-26.31-5.37 13.31m12.08-11.51-2.01 14.21m-7.37 7.38-1.35 5.04s-1.85 1.3-2.7 1.08c-.83-.23-1.89-1.4-2.34-2.43-.5-1.13-.63-4.37-.63-4.37" fill="none" stroke="#b8bdbd" stroke-width=".87" stroke-linecap="round" stroke-linejoin="round" stroke-miterlimit="1.5"/>
  <path d="m271 152.54 10.07 2.7s1.63 1.7 1.14 2.46c-.86 1.33-4.49 4.8-6.28 5.52a4.21 4.21 0 0 1-4.48-1.2c-1.2-1.52-2.6-6.34-2.68-7.92-.04-.9 2.22-1.56 2.22-1.56Z" clip-rule="evenodd" fill="#2b0609" fill-rule="evenodd"/>
  <path d="M270.63 180.46s25 1.8 26.15 5.85c1.13 4.04-.99 20.23-27.88.6l1.73-6.45Zm-2.4-.65s-22.55-10.94-25.56-8c-3 2.93-9.26 18 23.83 14.47l1.74-6.47Z" clip-rule="evenodd" fill="#067d20" fill-rule="evenodd"/>
  <path d="M267.39 179.57s-18-13.25-23.9-9.87c-5.92 3.39 4.85 5.68 6.66 5.25 2.06-.47 13.24 2.89 17.24 4.62Zm3.25.87s22.21-2.48 25.64 3.41c3.42 5.89-7.04 2.48-8.4 1.21-1.55-1.44-12.9-4.12-17.24-4.62Z" clip-rule="evenodd" fill="#09a027" fill-rule="evenodd"/>
  <path d="M271.65 181.01a1.4 1.4 0 0 0-.99-1.7l-2.7-.73a1.4 1.4 0 0 0-1.7.99l-1.59 5.92a1.4 1.4 0 0 0 .99 1.71l2.7.72a1.4 1.4 0 0 0 1.7-.98l1.59-5.93Z" clip-rule="evenodd" fill="#035d15" fill-rule="evenodd"/>
  <path d="m270.63 180.46.08-1-.83-.06-.21.8-1.73 6.46-.18.66.55.4c6.77 4.95 12.05 7.68 16.17 8.9 4.12 1.23 7.17.96 9.36-.26a8.15 8.15 0 0 0 3.81-5.24c.5-1.94.42-3.89.09-5.08-.26-.93-1.1-1.57-1.93-2.02-.89-.5-2.04-.92-3.32-1.3a71.25 71.25 0 0 0-9.06-1.85 180.1 180.1 0 0 0-8.77-1.06c-1.222-.12-2.446-.23-3.67-.33l-.21-.02h-.07l-.08 1Zm-1.43-.39.22-.8-.75-.36-.43.9.43-.9h-.01l-.05-.03c-1.17-.56-2.347-1.107-3.53-1.64-2.17-.99-5.1-2.27-8.13-3.46a71.27 71.27 0 0 0-8.78-2.93c-1.3-.32-2.5-.52-3.52-.54-.94-.02-2 .11-2.68.78a10.5 10.5 0 0 0-2.46 4.45c-.54 1.94-.6 4.29.68 6.44 1.28 2.16 3.8 3.92 7.97 4.92 4.18 1 10.12 1.26 18.45.37l.68-.07.18-.67 1.73-6.46Z" fill="#067d20" stroke="#d2a24f" stroke-width="2"/>
  <path d="M270.53 179.45v1.99a85.66 85.66 0 0 1 14.29 3.3c.65.23 1.2.45 1.63.64.46.2.67.35.74.41l-16.66-6.34Zm0 0 .1 1m-.1-1 .1 1m0 0-.1-1m.1 1-.1-1m0 0h.02m-.02 0h.02m0 0h.04m-.05 0h.05m0 0 .2-.03m-.2.02.2-.02m0 0 .72-.07m-.72.07.72-.07m0 0c.862-.078 1.726-.144 2.59-.2m-2.6.2 2.6-.2m0 0c2.15-.14 5.06-.27 8.1-.21m-8.1.2 8.1-.2m0 0c3.01.06 6.19.3 8.85.92m-8.86-.92 8.86.92m0 0c1.34.3 2.57.72 3.61 1.27m-3.6-1.27 3.6 1.27m0 0a6.05 6.05 0 0 1 2.48 2.22m-2.48-2.22 2.48 2.22m0 0c.47.8.76 1.53.81 2.21m-.8-2.21.8 2.21m0 0c.06.72-.15 1.39-.66 1.87m.66-1.87-.66 1.87m0 0a3 3 0 0 1-1.67.71m1.67-.71-1.67.71m0 0c-.58.09-1.23.07-1.86 0m1.86 0h-1.86m0 0a17.95 17.95 0 0 1-3.86-.96m3.86.95-3.86-.95m0 0a15.45 15.45 0 0 1-1.58-.67m1.58.67-1.58-.67m0 0a4.94 4.94 0 0 1-1.13-.72l1.13.72Zm-20.93-6.94.6-.8-1 1.72a85.5 85.5 0 0 0-14.03-4.28 18.84 18.84 0 0 0-1.74-.27c-.5-.05-.75-.03-.84-.01-.38.09-.87.09-1.34.06a15.7 15.7 0 0 1-1.7-.22 17.97 17.97 0 0 1-3.82-1.1 7.53 7.53 0 0 1-1.62-.92 3 3 0 0 1-1.08-1.45c-.2-.68-.06-1.36.35-1.95.4-.56 1.01-1.06 1.81-1.52a6.06 6.06 0 0 1 3.26-.67c1.17.04 2.45.3 3.76.7 2.62.8 5.49 2.17 8.13 3.63a96.88 96.88 0 0 1 9.64 6.13l.16.1.04.04h.01l-.59.81Z" fill="#09a027" stroke="#d2a24f" stroke-width="2"/>
  <path d="M272.5 181.24a2.27 2.27 0 0 0-1.61-2.79l-2.7-.72a2.27 2.27 0 0 0-2.78 1.61l-1.59 5.93a2.27 2.27 0 0 0 1.61 2.78l2.7.72a2.27 2.27 0 0 0 2.78-1.6l1.59-5.93Z" fill="#035d15" stroke="#d2a24f" stroke-width="1.76"/>
  <path d="M730.3 28v34.58M714 45.3h32.6m-28.78 9.86 24.96-19.73m-23.49-1.45 22.03 22.62M657.22 90v52.37M634 116.17h46.44m-41 14.96 35.55-29.89m-33.45-2.2 31.37 34.25m67.24 5.71v29.64M727 153.81h26.29m-22.78-8.92 19.27 17.88M57.69 131v34.58M74 148.3H41.4m28.78 9.86-24.96-19.73m23.48-1.45L46.69 159.6M117.78 48v52.37M141 74.17H94.56m41 14.96-35.55-29.89m33.45-2.2L102.1 91.3M24.85 31v29.64M38 45.81H11.71m22.78-8.92L15.22 54.77" fill="none" stroke="#d2a24f" stroke-width="2" stroke-linecap="round" stroke-linejoin="round" stroke-miterlimit="1.5"/>
</svg>