<svg width="776" height="256" viewBox="0 0 776 256" fill="none" xmlns="http://www.w3.org/2000/svg">
  <path stroke="#D2A24F" stroke-linecap="round" stroke-linejoin="round" stroke-miterlimit="1.5" stroke-width="2" d="M594.308 91v34.584M578 108.297l32.608-.006m-28.784 9.873 24.958-19.737m-23.487-1.444 22.024 22.616M564.219 154v52.371M541 180.175l46.442-.01m-41.002 14.967 35.547-29.888m-33.448-2.197 31.367 34.248M173.205 24.284l26.052 45.431m-33.174-11.174 40.283-23.11M178.243 68.81l15.969-43.61m-30.109 14.732 44.247 14.106M628.148 183v29.644M615 197.812l26.288-.005m-22.778-8.921 19.27 17.881M185.848 113.936v29.644M172.7 128.748l26.288-.005m-22.778-8.921 19.27 17.881M242.087 83.921l17.204 30.002m-22.746-6.884 28.284-16.227m-20.059 22.884 11.833-29.537m-21.093 10.43 30.357 8.664"/>
  <path stroke="#D2A24F" stroke-linecap="round" stroke-linejoin="round" stroke-width="4" d="m276.314 228 34.516-2.154c29.487-5.965 45.967-9.75 75.504-17.231 44.069-14.954 68.708-22.978 112.177-43.077 8.629-4.307 4.314-21.538-8.629-19.384l-7.66 2.447m-188.65 32.014c1.601-3.196 3.277-6.2 5.048-9.022M272 172c10.736 1.227 16.563 1.138 26.62-.407m0 0c17.32-27.603 43.758-37.805 98.5-40.516 10.786 0 10.786 15.077 4.315 19.385-26.969 7.846-31.963 11.212-40.988 17.23 29.48.197 46.054-.703 75.504-4.307l46.271-14.784m-70.001 16.937 36.673-17.23 21.573-12.923c6.471-2.154 10.786 2.153 11.755 13.216m-96.458-103.61c14.926-29.814 41.159 2.53 41.159 2.53s22.46-31.154 40.945-5.186c14.896 20.927-39.106 71.511-39.106 71.511s-54.468-45.944-42.998-68.855Z"/>
</svg>