<svg xmlns="http://www.w3.org/2000/svg" fill="none" viewBox="0 0 776 256">
  <path stroke="#D2A24F" stroke-linecap="round" stroke-linejoin="round" stroke-miterlimit="1.5" stroke-width="2" d="M521.308 32v34.584M505 49.297l32.608-.006m-28.784 9.873 24.958-19.737m-23.487-1.444L532.319 60.6M556.22 104v52.371M533 130.175l46.442-.01m-41.002 14.967 35.547-29.888m-33.448-2.198 31.368 34.248M206.22 91v52.371M183 117.175l46.442-.01m-41.002 14.967 35.547-29.888m-33.448-2.198 31.368 34.248M606.147 39v29.644M593 53.813l26.288-.006m-22.778-8.921 19.27 17.88M158.147 163v29.644M145 177.812l26.288-.005m-22.778-8.921 19.27 17.881M245.087 183.752l-17.292 29.951m-5.48-23.125 28.243 16.298m-29.865-5.841 31.484-4.614m-19.618-12.994 7.765 30.599"/>
  <path stroke="#D2A24F" stroke-linejoin="round" stroke-width="4" d="M350.731 70.168c-35.75 0-64.731 28.964-64.731 64.693s28.981 64.693 64.731 64.693c35.75 0 64.731-28.964 64.731-64.693s-28.981-64.693-64.731-64.693Zm0 0 35.307-23.524L374.269 29h-47.077l-11.769 17.644 35.308 23.524ZM490 162.307C490 198.036 461.019 227 425.269 227c-35.75 0-64.731-28.964-64.731-64.693s28.981-64.693 64.731-64.693c35.75 0 64.731 28.964 64.731 64.693Z"/>
</svg>