<svg width="776" height="256" viewBox="0 0 776 256" fill="none" xmlns="http://www.w3.org/2000/svg">
  <g stroke="#D2A24F" stroke-linecap="round" stroke-linejoin="round" stroke-miterlimit="1.5" stroke-width="2" clip-path="url(#a)">
    <path d="m556.583 78.344 7.562 33.748M544.452 98.79l31.818-7.138M550.341 107.581l20.038-24.718M547.145 86.59l26.437 17.254"/>
  </g>
  <path stroke="#D2A24F" stroke-linecap="round" stroke-linejoin="round" stroke-miterlimit="1.5" stroke-width="2" d="M540.22 144v52.371M517 170.175l46.442-.01M522.44 185.132l35.547-29.888M524.539 153.046l31.368 34.248"/>
  <g stroke="#D2A24F" stroke-linecap="round" stroke-linejoin="round" stroke-miterlimit="1.5" stroke-width="2" clip-path="url(#b)">
    <path d="m175.446 28.906 12.123 50.948M158.916 59.744l45.178-10.76M167.67 73.036l27.664-37.304M162.286 41.336l38.443 26.057"/>
  </g>
  <g stroke="#D2A24F" stroke-linecap="round" stroke-linejoin="round" stroke-miterlimit="1.5" stroke-width="2" clip-path="url(#c)">
    <path d="m609.655 194.8-28.897 6.609M592.285 185.286l5.865 25.625M601.769 186.717l-13.135 22.772"/>
  </g>
  <g stroke="#D2A24F" stroke-linecap="round" stroke-linejoin="round" stroke-miterlimit="1.5" stroke-width="2" clip-path="url(#d)">
    <path d="m242.869 100.966-16.833 24.401M223.636 105.693l21.641 14.923M231.593 100.339 237.301 126"/>
  </g>
  <path stroke="#D2A24F" stroke-linecap="round" stroke-linejoin="round" stroke-miterlimit="1.5" stroke-width="2" d="M180.308 143v34.584M164 160.297l32.608-.006M167.824 170.164l24.958-19.737M169.295 148.983l22.024 22.617"/>
  <path stroke="#D2A24F" stroke-linecap="round" stroke-linejoin="round" stroke-width="4" d="M402.584 188.621h-28.227m28.227 0c11.537-19.058 20.027-31.534 25.879-47.552m-25.879 47.552v19.439m-28.227-19.439c-11.769-18.983-20.106-31.49-25.759-47.552m25.759 47.552v19.439M339.073 52.707h98.795m-98.795 0-14.114-5.302m14.114 5.302c-1.76 36.592.347 62.288 9.525 88.362m89.27-88.362 14.113-5.302m-14.113 5.302c2.638 36.81.086 62.382-9.405 88.362m23.518-93.664-3.156-7.112a14.792 14.792 0 0 0-13.521-8.793h-93.669a14.792 14.792 0 0 0-13.521 8.793l-3.155 7.112m127.022 0c39.883-15.905 63.604 58.057-23.518 93.664M324.959 47.405c-37.456-23.301-68.475 54.359 23.639 93.664m53.986 66.991h17.642c9.743 0 17.642 7.913 17.642 17.673v1.767h-98.795v-1.767c0-9.76 7.898-17.673 17.642-17.673h17.642m28.227 0h-28.227m-.898-96.519 31.32-24.768M368.66 99.16l40.92-.008m-20.455-21.698v43.4m-13.82-35.892 27.638 28.381"/>
  <defs>
    <clipPath id="a">
      <path fill="#fff" d="m536.11 79.858 39.032-8.747 8.747 39.031-39.032 8.748z"/>
    </clipPath>
    <clipPath id="b">
      <path fill="#fff" d="m145.122 32.01 58.37-13.889 13.889 58.37-58.37 13.889z"/>
    </clipPath>
    <clipPath id="c">
      <path fill="#fff" d="m608.534 176.44 8.026 35.094-35.094 8.026-8.026-35.094z"/>
    </clipPath>
    <clipPath id="d">
      <path fill="#fff" d="m229.635 88.192 29.633 20.443-20.443 29.632-29.633-20.442z"/>
    </clipPath>
  </defs>
</svg>