<svg width="800" height="170" fill="none" xmlns="http://www.w3.org/2000/svg"><g clip-path="url(#a)"><path d="M69.44 76.948s7.102-.677 7.892 7.202c.328 3.28-.64 5.338-1.58 7.07-3.008 5.546-18.993 11.04-24.199-6.36-7-23.4 36.177-41.808 53.264-6.498 5.8 11.987 4.525 25.276.437 31.487-11.044 16.769-29.705 22.281-37.403 23.94-26.316 5.673-71.555-20.172-55.984-66.125 15.571-45.953 71.69-77.004 145.54-45.669 73.849 31.335 83.18 36.957 83.18 36.957M730.859 76.948s-7.103-.677-7.894 7.202c-.328 3.28.641 5.338 1.581 7.07 3.008 5.546 18.993 11.04 24.199-6.36 6.999-23.4-36.177-41.808-53.264-6.498-5.8 11.987-4.525 25.276-.437 31.487 11.044 16.769 29.705 22.281 37.403 23.94 26.316 5.673 71.555-20.172 55.984-66.125-15.571-45.953-71.69-77.004-145.54-45.669-73.849 31.335-83.18 36.957-83.18 36.957M240.58 58.845s170.584 88.662 319.125 0" stroke="#D2A24F" stroke-width="8" stroke-miterlimit="1.5" stroke-linecap="round" stroke-linejoin="round"/><path fill-rule="evenodd" clip-rule="evenodd" d="M412.302 98.042s29.964 9.28 25.692 36.363c0 0 41.495-8.721 45.453 25.691 0 0 20.838-14.241 45.454 5.378 0 0-28.385-28.84-17.786-55.013 0 0-39.272 3.018-43.478-24.44 0 0-23.715 17.537-55.335 7.353-1.48-.476-.689.714 0 4.668Z" fill="#006C1D"/><path fill-rule="evenodd" clip-rule="evenodd" d="M400.962 96.498s-29.964 9.281-25.691 36.363c0 0-41.495-8.721-45.454 25.691 0 0-20.837-14.241-45.453 5.378 0 0 28.384-28.84 17.786-55.013 0 0 39.272 3.018 43.477-24.44 0 0 23.715 17.537 55.335 7.353 1.481-.476.69.714 0 4.668Z" fill="#148D02"/><path d="M403.37 91.83c-19.727 7.539-57.26 19.41-92.285 46.408" stroke="#5B9140" stroke-width="1.976" stroke-miterlimit="1.5" stroke-linecap="round" stroke-linejoin="round"/><path d="M369.769 104.198s-16.126-2.879-19.762-12.375" stroke="#5A913F" stroke-width="1.976" stroke-miterlimit="1.5" stroke-linecap="round" stroke-linejoin="round"/><path d="M393.809 101.576a8.893 8.893 0 1 0-4.009-11.92 8.893 8.893 0 0 0 4.009 11.92Z" fill="#A00615"/><path d="M409.895 93.373c19.727 7.54 57.26 19.411 92.285 46.408" stroke="#1A7920" stroke-width="1.976" stroke-miterlimit="1.5" stroke-linecap="round" stroke-linejoin="round"/><path d="M419.573 101.055a8.893 8.893 0 0 0-8.97-15.358 8.892 8.892 0 0 0-3.194 12.164 8.892 8.892 0 0 0 12.164 3.194Z" fill="#D10818"/><path d="M402.24 115.713a8.893 8.893 0 1 0 7.912-15.93 8.893 8.893 0 0 0-7.912 15.93Z" fill="#F7132A"/><path d="M418.239 90.018a1.326 1.326 0 1 0-1.336-2.29 1.326 1.326 0 0 0 1.336 2.29ZM399.603 91.176a1.326 1.326 0 1 0-1.336-2.29 1.326 1.326 0 0 0 1.336 2.29ZM409.362 105.482a1.327 1.327 0 1 0-1.34-2.29 1.327 1.327 0 0 0 1.34 2.29Z" fill="#fff"/><path d="M369.769 104.202s-6.877 11.914 0 19.995M338.151 120.028s-15.067 3.116-27.068-5.812M324.621 149.648s-1.49-17.045 13.533-29.116" stroke="#5A913F" stroke-width="1.976" stroke-miterlimit="1.5" stroke-linecap="round" stroke-linejoin="round"/><path d="M443.495 105.742s16.127-2.879 19.763-12.375M443.495 105.745s6.878 11.915 0 19.996M475.113 121.548s15.067 3.116 27.069-5.813M488.644 151.192s1.49-17.045-13.534-29.116" stroke="#1A7920" stroke-width="1.976" stroke-miterlimit="1.5" stroke-linecap="round" stroke-linejoin="round"/></g><defs><clipPath id="a"><path fill="#fff" d="M0 0h800v170H0z"/></clipPath></defs></svg>