<svg width="288" height="576" fill="none" xmlns="http://www.w3.org/2000/svg"><path d="M92.509 75.084s2.254 6.77 9.779 4.305c3.131-1.027 4.623-2.745 5.825-4.305 3.856-4.995 2.413-21.836-15.604-19.558-24.233 3.066-23.6 49.997 15.604 51.34 13.31.454 24.947-6.088 28.973-12.339 10.867-16.883 8.359-36.18 6.762-43.89-5.459-26.362-47.396-57.278-83.12-24.448-35.726 32.83-41.42 96.714 17.112 151.574 58.532 54.86 67.448 61.119 67.448 61.119" stroke="#D2A24F" stroke-width="8" stroke-miterlimit="1.5" stroke-linecap="round" stroke-linejoin="round"/><path d="M198.072 75.084s-2.254 6.77-9.779 4.305c-3.132-1.027-4.623-2.745-5.826-4.305-3.855-4.995-2.413-21.836 15.605-19.558 24.232 3.066 23.599 49.997-15.605 51.34-13.309.454-24.946-6.088-28.972-12.339-10.867-16.883-8.359-36.18-6.763-43.89 5.46-26.362 47.397-57.278 83.122-24.448s41.418 96.714-17.114 151.574c-58.532 54.86-67.448 61.119-67.448 61.119" stroke="#D2A24F" stroke-width="8" stroke-miterlimit="1.5" stroke-linecap="round" stroke-linejoin="round"/><path d="M29.389 198.677s-9.279-3.832-9.454-9.881M73.282 239.65s-12.772 7.352-27.667 6.45" stroke="#067D20" stroke-width="1.976" stroke-miterlimit="1.5" stroke-linecap="round" stroke-linejoin="round"/><path d="M65.433 235.049s7.416-8.1 9.831-22.539" stroke="#09A027" stroke-width="1.976" stroke-miterlimit="1.5" stroke-linecap="round" stroke-linejoin="round"/><path d="M31.782 198.677s.413-4.037-2.403-9.881M31.814 202.615s-5.55 2.204-11.88-3.952" stroke="#067D20" stroke-width="1.976" stroke-miterlimit="1.5" stroke-linecap="round" stroke-linejoin="round"/><path d="M63.41 233.45s-8.348 6.012-21.74 5.528M43.648 214.704s3.933-3.913 1.977-14.063" stroke="#035F15" stroke-width="1.976" stroke-miterlimit="1.5" stroke-linecap="round" stroke-linejoin="round"/><path d="M79.22 244.212s7.792-8.128 7.691-22.076M56.475 226.84c-.542.533-22.211 8.498-34.575 1.48M120.718 261.916s-12.774 2.186-19.762 11.858M110.837 259.945s-.385-11.913 7.905-17.786M124.665 263.879s-5.174-10.389 0-15.81" stroke="#067D20" stroke-width="1.976" stroke-miterlimit="1.5" stroke-linecap="round" stroke-linejoin="round"/><path d="M29.379 198.663s37.786 54.32 99.286 65.32" stroke="#7D4F06" stroke-width="2.964" stroke-miterlimit="1.5" stroke-linecap="round" stroke-linejoin="round"/><path d="M61.524 232.273s7.884-7.87 7.809-19.763M43.644 216.47S25.037 220.254 14 212.1M35.736 204.6s6.103-12.288 0-21.738" stroke="#067D20" stroke-width="1.976" stroke-miterlimit="1.5" stroke-linecap="round" stroke-linejoin="round"/><path d="M37.094 208.544S20.903 211.663 14 198.663" stroke="#035F15" stroke-width="1.976" stroke-miterlimit="1.5" stroke-linecap="round" stroke-linejoin="round"/><path d="M38.45 210.54s4.353-5.305 3.217-16.798M41.853 212.508s-9.779 3.599-19.953-1.976M55.506 224.601s6.92-8.533 5.929-25.938M46.17 217.325s7.347-7.374 5.383-20.64M47.598 220.41s-18.051 4.178-31.62-3.075M51.887 222.389s3.245-.737 6.632-11.857M49.571 221.616s10.012-12.429 5.929-30.842" stroke="#067D20" stroke-width="1.976" stroke-miterlimit="1.5" stroke-linecap="round" stroke-linejoin="round"/><path d="M51.886 224.353s-20.134 6.708-33.93-1.976" stroke="#09A027" stroke-width="1.976" stroke-miterlimit="1.5" stroke-linecap="round" stroke-linejoin="round"/><path d="M58.509 229.015s6.907-7.756 6.867-22.825M59.556 230.29s-12.682 7.088-27.764 3.952M67.358 236.224s-14.516 9.881-29.644 5.929M78.229 244.137s-11.937 5.308-26.68 5.929M69.34 238.235s6.892-8.17 8.894-19.79M75.263 242.149c2.65-.976 8.64-7.43 7.905-18.373M73.285 239.656s6.925-5.3 9.881-27.146" stroke="#067D20" stroke-width="1.976" stroke-miterlimit="1.5" stroke-linecap="round" stroke-linejoin="round"/><path d="M81.187 246.091s-5.285 5.448-23.715 5.929" stroke="#09A027" stroke-width="1.976" stroke-miterlimit="1.5" stroke-linecap="round" stroke-linejoin="round"/><path d="M83.224 246.112s7.775-8.033 7.844-27.667" stroke="#035F15" stroke-width="1.976" stroke-miterlimit="1.5" stroke-linecap="round" stroke-linejoin="round"/><path d="M85.147 249.058s-14.369 9.466-31.62 6.917M87.156 249.054s9.243-12.476 7.874-28.655M89.096 250.047s-9.437 9.407-27.668 9.882M91.077 250.052s7.525-9.231 7.905-19.762" stroke="#067D20" stroke-width="1.976" stroke-miterlimit="1.5" stroke-linecap="round" stroke-linejoin="round"/><path d="M93.044 252.749s-13.62 12.287-35.572 11.146" stroke="#035F15" stroke-width="1.976" stroke-miterlimit="1.5" stroke-linecap="round" stroke-linejoin="round"/><path d="M95.165 252.734s11.803-14 7.767-28.379M96.998 254.993s-9.03 9.004-25.691 10.869M99.472 254.997s8.737-11.131 7.415-20.751" stroke="#067D20" stroke-width="1.976" stroke-miterlimit="1.5" stroke-linecap="round" stroke-linejoin="round"/><path d="M102.929 255.982s-6.986 13.723-29.644 15.81" stroke="#09A027" stroke-width="1.976" stroke-miterlimit="1.5" stroke-linecap="round" stroke-linejoin="round"/><path d="M104.912 257.969s1.684-9.403 5.929-15.81" stroke="#035F15" stroke-width="1.976" stroke-miterlimit="1.5" stroke-linecap="round" stroke-linejoin="round"/><path d="M107.877 257.96s-12.18 10.553-22.94 17.786M114.791 259.938s-14.93 5.674-21.736 15.81M118.745 261.905s-3.579-6.591 0-11.858M126.643 263.895s-13.399 1.713-17.787 7.905M258.378 198.677s9.279-3.832 9.455-9.881M214.473 239.65s12.772 7.351 27.667 6.45" stroke="#067D20" stroke-width="1.976" stroke-miterlimit="1.5" stroke-linecap="round" stroke-linejoin="round"/><path d="M222.334 235.049s-7.416-8.1-9.831-22.539" stroke="#08A027" stroke-width="1.976" stroke-miterlimit="1.5" stroke-linecap="round" stroke-linejoin="round"/><path d="M255.973 198.677s-.413-4.037 2.403-9.881" stroke="#067D20" stroke-width="1.976" stroke-miterlimit="1.5" stroke-linecap="round" stroke-linejoin="round"/><path d="M255.953 202.615s5.55 2.204 11.88-3.952" stroke="#035D15" stroke-width="1.976" stroke-miterlimit="1.5" stroke-linecap="round" stroke-linejoin="round"/><path d="M224.358 233.45s8.348 6.012 21.739 5.527M244.119 214.704s-3.933-3.913-1.977-14.063M208.548 244.212s-7.793-8.128-7.692-22.076" stroke="#067D20" stroke-width="1.976" stroke-miterlimit="1.5" stroke-linecap="round" stroke-linejoin="round"/><path d="M231.28 226.84c.542.533 22.211 8.498 34.574 1.48" stroke="#08A027" stroke-width="1.976" stroke-miterlimit="1.5" stroke-linecap="round" stroke-linejoin="round"/><path d="M167.049 261.916s12.775 2.186 19.763 11.858" stroke="#035D15" stroke-width="1.976" stroke-miterlimit="1.5" stroke-linecap="round" stroke-linejoin="round"/><path d="M176.93 259.945s.385-11.913-7.905-17.786M163.09 263.879s5.174-10.389 0-15.81" stroke="#067D20" stroke-width="1.976" stroke-miterlimit="1.5" stroke-linecap="round" stroke-linejoin="round"/><path d="M258.376 198.663S224.5 248.983 160 263.983" stroke="#7D4F06" stroke-width="2.964" stroke-miterlimit="1.5" stroke-linecap="round" stroke-linejoin="round"/><path d="M226.243 232.273s-7.884-7.87-7.808-19.763M244.123 216.47s18.607 3.784 29.644-4.37M252.031 204.6s-6.102-12.288 0-21.738M250.673 208.544s16.191 3.119 23.094-9.881M249.317 210.54s-4.353-5.305-3.217-16.798M245.902 212.508s9.779 3.599 19.952-1.976M232.262 224.601s-6.921-8.533-5.929-25.938M241.598 217.325s-7.348-7.374-5.384-20.64M240.169 220.41s18.051 4.178 31.62-3.075M235.88 222.389s-3.245-.737-6.632-11.857" stroke="#067D20" stroke-width="1.976" stroke-miterlimit="1.5" stroke-linecap="round" stroke-linejoin="round"/><path d="M238.196 221.616s-10.011-12.429-5.928-30.842" stroke="#035D15" stroke-width="1.976" stroke-miterlimit="1.5" stroke-linecap="round" stroke-linejoin="round"/><path d="M235.881 224.353s20.134 6.708 33.93-1.976M229.246 229.015s-6.907-7.756-6.867-22.825M228.211 230.29s12.682 7.088 27.765 3.952" stroke="#067D20" stroke-width="1.976" stroke-miterlimit="1.5" stroke-linecap="round" stroke-linejoin="round"/><path d="M220.409 236.224s14.516 9.881 29.644 5.929" stroke="#035D15" stroke-width="1.976" stroke-miterlimit="1.5" stroke-linecap="round" stroke-linejoin="round"/><path d="M209.539 244.137s11.936 5.308 26.679 5.929M218.426 238.235s-6.891-8.17-8.893-19.79M212.504 242.149c-2.65-.976-8.64-7.43-7.905-18.373M214.482 239.656s-6.925-5.3-9.881-27.146M206.568 246.091s5.285 5.448 23.715 5.929M204.531 246.112s-7.775-8.033-7.844-27.667M202.62 249.058s14.369 9.466 31.62 6.917" stroke="#067D20" stroke-width="1.976" stroke-miterlimit="1.5" stroke-linecap="round" stroke-linejoin="round"/><path d="M200.611 249.054s-9.243-12.476-7.874-28.655" stroke="#035D15" stroke-width="1.976" stroke-miterlimit="1.5" stroke-linecap="round" stroke-linejoin="round"/><path d="M198.672 250.047s9.436 9.407 27.667 9.882M196.69 250.052s-7.525-9.231-7.905-19.762" stroke="#067D20" stroke-width="1.976" stroke-miterlimit="1.5" stroke-linecap="round" stroke-linejoin="round"/><path d="M194.711 252.749s13.62 12.287 35.572 11.146" stroke="#035D15" stroke-width="1.976" stroke-miterlimit="1.5" stroke-linecap="round" stroke-linejoin="round"/><path d="M192.602 252.734s-11.803-14-7.767-28.379" stroke="#08A027" stroke-width="1.976" stroke-miterlimit="1.5" stroke-linecap="round" stroke-linejoin="round"/><path d="M190.757 254.993s9.029 9.004 25.691 10.869M188.295 254.997s-8.737-11.131-7.415-20.751M184.838 255.982s6.986 13.723 29.644 15.81M182.855 257.969s-1.683-9.403-5.928-15.81" stroke="#067D20" stroke-width="1.976" stroke-miterlimit="1.5" stroke-linecap="round" stroke-linejoin="round"/><path d="M179.89 257.96s12.179 10.553 22.94 17.786" stroke="#08A027" stroke-width="1.976" stroke-miterlimit="1.5" stroke-linecap="round" stroke-linejoin="round"/><path d="M172.976 259.938s14.93 5.674 21.736 15.81M169.022 261.905s3.579-6.591 0-11.858M161.113 263.895s13.399 1.713 17.786 7.905" stroke="#067D20" stroke-width="1.976" stroke-miterlimit="1.5" stroke-linecap="round" stroke-linejoin="round"/><path fill-rule="evenodd" clip-rule="evenodd" d="M136.598 278.693s-1.55-6.284 3.9-1.949c3.768 2.998 3.725 1.432 7.798 0 2.416-.85 1.668 5.57-3.899 4.874-4.424-.553-6.794.517-7.799-2.925Z" fill="#5E4733"/><path fill-rule="evenodd" clip-rule="evenodd" d="M139.404 272.845s.959.969.118 2.373c0 0 2.98 4.208 6.823 1.689 3.844-2.518 4.373-3.951 2.925-3.567-1.244.329-7.344-.635-9.748-1.783-.394-.188-.885.567-.118 1.288Z" fill="#5E4733"/><path fill-rule="evenodd" clip-rule="evenodd" d="M149.267 275.755s-.404-1.572 1.95-1.95c2.354-.378 3.723-1.782 3.577-2.292-.145-.509 3.056 2.464.322 3.691-2.734 1.228-4.854 2.445-5.849.551Z" fill="#7E6033"/><path fill-rule="evenodd" clip-rule="evenodd" d="M132.69 266.985s1.318-2.195 3.254-.974c1.935 1.22 2.879 2.769 4.544 1.949 1.665-.82-1.246 3.775-2.924 1.95-1.679-1.825-6.441 1.087-4.874-2.925Z" fill="#5E4733"/><path fill-rule="evenodd" clip-rule="evenodd" d="M140.986 271.516s-2.999-.379.478-2.582c3.477-2.203 3.583-.123 3.899.826.316.951.997 1.529-1.949 2.034-.928.159-2.428-.278-2.428-.278Z" fill="#7E6033"/><path fill-rule="evenodd" clip-rule="evenodd" d="M150.243 277.697s4.677-2.102 4.874 0c.197 2.101-2.824 1.948-4.874 2.932-2.05.983-.43-2.767 0-2.932ZM154.146 271.534s-6.165 3.176-7.799.312c-.472-.828-.085-1.403-.675-3.869-.245-1.024 2.855.785 4.877 1.24 2.768.624 5.547.385 3.597 2.317ZM139.783 263.095c.539-3.579-9.253-1.838-7.094.974 2.16 2.813 2.091-.019 4.874 1.95 1.085.767 3.762 2.545 7.109 1.057 3.346-1.489-5.428-.403-4.889-3.981Z" fill="#5E4733"/><path fill-rule="evenodd" clip-rule="evenodd" d="M158.046 267.99s-2.916 2.701-10.723-.655c0 0 4.001.221 6.502-1.695 1.398-1.071 2.476 1.503 3.246.905.476-.372 1.53.563.975 1.445Z" fill="#5E4733"/><path fill-rule="evenodd" clip-rule="evenodd" d="M145.37 265.389s1.205-2.365 3.9-1.173c2.694 1.193 1.631.525 2.924 0 1.067-.432 3.094-.07.976 1.019-.449.23-1.082.493-1.951.787-3.297 1.12-5.929 1.909-5.849-.633ZM135.418 276.738s.267.368.385 0c.516-1.612 1.488-2.132 2.539-1.95 3.455.6-2.423-8.026-4.874-3.899-2.45 4.127.324 4.118 1.95 5.849ZM145.928 256.245s-.51-5.964 4.094-5.848c4.604.116 2.13 3.188 0 2.588-2.13-.601-3.744.514-4.094 3.26Z" fill="#7E6033"/><path fill-rule="evenodd" clip-rule="evenodd" d="M137.575 256.264c2.943.759 2.088-.031 3.899 0 3.382.058.607 4.189 3.071 8.773.689 1.282-.944.624-1.949 0-.86-.534-.998-.901-1.122-1.949-.037-.309.663-3.744-3.007-3.899-3.67-.155-2.356-3.302-.892-2.925Z" fill="#5E4733"/><path fill-rule="evenodd" clip-rule="evenodd" d="M144.687 262.043s2.6-3.745-1.602-10.647c-.886-1.456-2.72-1.16-3.074-1.95-1.424-3.169.84-2.478 3.074-1.95 2.791.66 5.03.765 3.695 3.9-1.337 3.135 1.07 7.499-2.093 10.647Z" fill="#5E4733"/><path fill-rule="evenodd" clip-rule="evenodd" d="M144.44 263.093s-1.439-2.463 0-2.925c1.439-.462 4.111.152 2.613 1.95-1.499 1.797-1.81 2.811-2.613.975Z" fill="#7E6033"/><path fill-rule="evenodd" clip-rule="evenodd" d="M146.889 263.393s1.169-1.872 1.272-3.899c.102-2.028 2.694-4.984 5.109-1.981 2.414 3.002 1.011 1.307-1.95 1.981-2.96.673.328 2.649-4.431 3.899Z" fill="#5E4733"/><path fill-rule="evenodd" clip-rule="evenodd" d="M135.394 191.192c-8.336-5.493-23.593-26.329-28.312-32.964-1.347-1.893-.876-4.716 0-6.842 1.537-3.731 9.225-15.549 9.225-15.549s-7.138-4.561-8.566-6.842c-1.229-1.963 0-6.841 0-6.841s3.295-4.147 5.271-4.976c1.977-.829 4.55-.77 6.59 0 2.196.829 6.589 4.976 6.589 4.976s12.74-4.976 19.11-4.976c6.37 0 19.109 4.976 19.109 4.976s4.393-4.147 6.59-4.976c2.039-.77 4.612-.829 6.589 0 1.977.829 5.272 4.976 5.272 4.976s1.229 4.878 0 6.841c-1.428 2.281-8.567 6.842-8.567 6.842s7.688 11.818 9.226 15.549c.875 2.126 1.283 4.91 0 6.842-4.403 6.635-18.399 27.471-26.419 32.964-5.856 4.011-15.774 3.91-21.707 0Z" fill="#fff"/><path fill-rule="evenodd" clip-rule="evenodd" d="M131.749 144.813c-.281-.797-1.759-1.576-2.732-.405-.973 1.171-.882 3.181 1.169 4.641 2.05 1.46 2.354 1.618 2.354 1.618l-.791-5.854Zm0 0c.059-.843 1.278-1.986 2.527-1.115.897.626 1.38 1.815.99 3.16-.152.526-.439 1.076-.886 1.625-1.589 1.952-1.84 2.184-1.84 2.184l-.791-5.854ZM157.264 145.006c.28-.797 1.759-1.576 2.732-.405.973 1.171.882 3.181-1.169 4.641-2.05 1.46-2.354 1.618-2.354 1.618l.791-5.854Zm0 0c-.059-.843-1.278-1.986-2.527-1.115-.898.626-1.38 1.815-.99 3.16.152.526.438 1.076.885 1.625 1.59 1.952 1.841 2.184 1.841 2.184l.791-5.854Z" fill="#D24F5C" stroke="#D24F5C" stroke-width=".988" stroke-miterlimit="1.5" stroke-linecap="round" stroke-linejoin="round"/><path fill-rule="evenodd" clip-rule="evenodd" d="M107.739 122.494s4.063-1.648 5.93-1.977c1.73-.305 3.662-.705 5.272 0 1.757.769 5.271 4.612 5.271 4.612l-7.907 11.862s-7.138-4.833-8.566-7.249c-1.229-2.08 0-7.248 0-7.248ZM182.866 122.494s-4.064-1.648-5.931-1.977c-1.73-.305-3.661-.705-5.271 0-1.758.769-5.272 4.612-5.272 4.612l7.908 11.862s7.138-4.833 8.566-7.249c1.229-2.08 0-7.248 0-7.248Z" fill="#FCC8C8"/><path d="m141.351 150.69-1.977 16.209M149.254 150.69l1.977 16.209M145.303 177.178v5.931s-1.647 1.976-2.636 1.976c-.988 0-2.495-.976-3.295-1.976-.878-1.099-1.976-4.613-1.976-4.613" stroke="#B8BDBD" stroke-width=".988" stroke-miterlimit="1.5" stroke-linecap="round" stroke-linejoin="round"/><path d="M145.302 177.178v5.931s1.647 1.976 2.635 1.976c.989 0 2.495-.976 3.295-1.976.879-1.099 1.977-4.613 1.977-4.613" stroke="#B8BDBD" stroke-width=".988" stroke-miterlimit="1.5" stroke-linecap="round" stroke-linejoin="round"/><path fill-rule="evenodd" clip-rule="evenodd" d="M139.378 166.901h11.861s2.291 1.391 1.977 2.371c-.549 1.713-3.514 6.59-5.272 7.907-1.405 1.055-3.866 1.055-5.271 0-1.758-1.317-4.723-6.194-5.272-7.907-.314-.98 1.977-2.371 1.977-2.371Z" fill="#2B0609"/><path fill-rule="evenodd" clip-rule="evenodd" d="M147.202 197.677s27.998-5.379 30.439-1.268c2.442 4.11 4.877 22.512-30.439 8.878v-7.61Z" fill="#067D20"/><path fill-rule="evenodd" clip-rule="evenodd" d="M147.202 197.661s23.676-9.262 29.171-3.804c5.496 5.457-7.006 4.801-8.878 3.804-2.116-1.126-15.383-.728-20.293 0Z" fill="#09A027"/><path fill-rule="evenodd" clip-rule="evenodd" d="M143.378 197.677s-27.997-5.379-30.439-1.268c-2.441 4.11-4.876 22.512 30.439 8.878v-7.61Z" fill="#067D20"/><path fill-rule="evenodd" clip-rule="evenodd" d="M143.378 197.661s-23.675-9.262-29.171-3.804c-5.495 5.457 7.007 4.801 8.879 3.804 2.115-1.126 15.383-.728 20.292 0Z" fill="#09A027"/><path fill-rule="evenodd" clip-rule="evenodd" d="M148.477 197.99c0-.875-.71-1.585-1.585-1.585h-3.171c-.875 0-1.585.71-1.585 1.585v6.976c0 .875.71 1.585 1.585 1.585h3.171c.875 0 1.585-.71 1.585-1.585v-6.976Z" fill="#035D15"/><path d="M92.218 363.084s2.254 6.769 9.779 4.305c3.132-1.027 4.623-2.745 5.826-4.305 3.855-4.995 2.413-21.836-15.605-19.558-24.232 3.066-23.599 49.997 15.605 51.34 13.309.454 24.946-6.088 28.973-12.339 10.866-16.883 8.358-36.18 6.762-43.89-5.459-26.362-47.396-57.278-83.121-24.448-35.725 32.831-41.42 96.714 17.113 151.574 58.532 54.86 67.448 61.119 67.448 61.119" stroke="#D2A24F" stroke-width="8" stroke-miterlimit="1.5" stroke-linecap="round" stroke-linejoin="round"/><path d="M197.782 363.084s-2.254 6.769-9.779 4.305c-3.132-1.027-4.623-2.745-5.826-4.305-3.856-4.995-2.413-21.836 15.605-19.558 24.232 3.066 23.599 49.997-15.605 51.34-13.309.454-24.946-6.088-28.973-12.339-10.867-16.883-8.358-36.18-6.762-43.89 5.459-26.362 47.396-57.278 83.121-24.448 35.725 32.831 41.419 96.714-17.113 151.574-58.532 54.86-67.448 61.119-67.448 61.119" stroke="#D2A24F" stroke-width="8" stroke-miterlimit="1.5" stroke-linecap="round" stroke-linejoin="round"/><path fill-rule="evenodd" clip-rule="evenodd" d="M153.927 557.168s29.963-9.28 25.691-36.363c0 0 41.495 8.721 45.454-25.691 0 0 20.837 14.241 45.453-5.378 0 0-28.385 28.84-17.786 55.013 0 0-39.272-3.017-43.477 24.441 0 0-23.715-17.538-55.335-7.354-1.481.476-.69-.713 0-4.668Z" fill="#006C1D"/><path fill-rule="evenodd" clip-rule="evenodd" d="M142.599 558.712s-29.964-9.28-25.691-36.363c0 0-41.496 8.721-45.454-25.691 0 0-20.838 14.241-45.454-5.378 0 0 28.385 28.84 17.786 55.013 0 0 39.272-3.017 43.478 24.441 0 0 23.715-17.538 55.335-7.354 1.48.476.69-.714 0-4.668Z" fill="#148D02"/><path d="M144.994 563.357c-19.727-7.54-57.26-19.411-92.285-46.409" stroke="#5B9140" stroke-width="1.976" stroke-miterlimit="1.5" stroke-linecap="round" stroke-linejoin="round"/><path d="M111.406 550.988s-16.127 2.879-19.763 12.375" stroke="#5A913F" stroke-width="1.976" stroke-miterlimit="1.5" stroke-linecap="round" stroke-linejoin="round"/><path d="M134.163 558.349a8.893 8.893 0 0 0 10.838-6.379 8.894 8.894 0 1 0-10.838 6.379Z" fill="#A00615"/><path d="M151.531 561.837c19.727-7.539 57.26-19.411 92.285-46.408" stroke="#1A7920" stroke-width="1.976" stroke-miterlimit="1.5" stroke-linecap="round" stroke-linejoin="round"/><path d="M145.32 570.435a8.893 8.893 0 1 0-6.38-10.838 8.893 8.893 0 0 0 6.38 10.838Z" fill="#D10818"/><path d="M161.814 552.189a8.893 8.893 0 0 0-11.943-13.18 8.893 8.893 0 1 0 11.943 13.18Z" fill="#E55011"/><path d="M145.898 497.994a3.083 3.083 0 1 0 .13-6.166 3.083 3.083 0 0 0-.13 6.166ZM158.757 493.095a2.115 2.115 0 1 0 .089-4.231 2.115 2.115 0 1 0-.089 4.231ZM162.991 489.718a2.116 2.116 0 1 0 .089-4.231 2.116 2.116 0 0 0-.089 4.231ZM167.225 484.652a2.116 2.116 0 1 0 .089-4.231 2.116 2.116 0 0 0-.089 4.231ZM171.459 478.717a2.115 2.115 0 1 0 .088-4.231 2.116 2.116 0 1 0-.088 4.231ZM132.014 493.095a2.116 2.116 0 1 1-.088-4.232 2.116 2.116 0 0 1 .088 4.232ZM152.835 495.194a2.117 2.117 0 1 0 .087-4.233 2.117 2.117 0 0 0-.087 4.233ZM137.949 495.194a2.116 2.116 0 1 1-.09-4.23 2.116 2.116 0 0 1 .09 4.23ZM127.78 489.718a2.117 2.117 0 0 1-.088-4.232 2.117 2.117 0 0 1 .088 4.232ZM123.559 484.652a2.116 2.116 0 1 1-.089-4.231 2.116 2.116 0 0 1 .089 4.231ZM119.325 478.717a2.115 2.115 0 1 1-.089-4.231 2.115 2.115 0 1 1 .089 4.231ZM157.527 541.158a1.325 1.325 0 1 0-1.78-1.965 1.325 1.325 0 0 0 1.78 1.965ZM137.685 546.972a1.326 1.326 0 1 0-1.782-1.965 1.326 1.326 0 0 0 1.782 1.965ZM150.181 558.962a1.325 1.325 0 1 0-1.78-1.965 1.325 1.325 0 0 0 1.78 1.965Z" fill="#fff"/><path d="M111.406 550.984s-6.878-11.914 0-19.995M79.787 535.182s-15.067-3.116-27.068 5.812M66.245 505.538s-1.49 17.045 13.533 29.116" stroke="#5A913F" stroke-width="1.976" stroke-miterlimit="1.5" stroke-linecap="round" stroke-linejoin="round"/><path d="M185.12 549.444s16.126 2.879 19.762 12.375M185.119 549.44s6.878-11.914 0-19.995M216.738 533.638s15.067-3.116 27.068 5.813M230.28 503.994s1.49 17.045-13.533 29.116" stroke="#1A7920" stroke-width="1.976" stroke-miterlimit="1.5" stroke-linecap="round" stroke-linejoin="round"/><path fill-rule="evenodd" clip-rule="evenodd" d="M135.101 484.408c-8.336-5.354-21.617-25.659-26.336-32.124-1.347-1.845-.875-4.597 0-6.668 1.538-3.636 7.249-15.153 7.249-15.153s-7.138-4.445-8.566-6.667c-1.229-1.914 0-6.668 0-6.668s3.295-4.041 5.272-4.849c1.976-.808 4.55-.75 6.589 0 2.196.808 6.59 4.849 6.59 4.849s12.739-4.849 19.109-4.849c6.37 0 19.109 4.849 19.109 4.849s4.394-4.041 6.59-4.849c2.039-.75 4.613-.808 6.589 0 1.977.808 5.272 4.849 5.272 4.849s1.229 4.754 0 6.668c-1.428 2.222-8.566 6.667-8.566 6.667s5.711 11.517 7.249 15.153c.875 2.071 1.282 4.784 0 6.668-4.403 6.465-16.423 26.77-24.443 32.124-5.856 3.909-15.774 3.81-21.707 0Z" fill="#fff"/><path fill-rule="evenodd" clip-rule="evenodd" d="M130.073 438.831c-.331-.94-2.076-1.859-3.224-.478-1.148 1.382-1.04 3.754 1.379 5.477 2.42 1.723 2.778 1.909 2.778 1.909l-.933-6.908Zm0 0c.07-.994 1.508-2.344 2.982-1.316 1.059.739 1.628 2.143 1.168 3.729-.18.621-.517 1.27-1.045 1.918-1.876 2.303-2.172 2.577-2.172 2.577l-.933-6.908ZM160.192 439.072c.331-.94 2.076-1.859 3.224-.477 1.148 1.381 1.041 3.753-1.379 5.477-2.42 1.722-2.778 1.908-2.778 1.908l.933-6.908Zm0 0c-.07-.994-1.508-2.343-2.982-1.316-1.059.739-1.628 2.143-1.168 3.73.18.62.518 1.269 1.045 1.917 1.876 2.303 2.172 2.577 2.172 2.577l.933-6.908Z" fill="#D24F5C" stroke="#D24F5C" stroke-width=".99" stroke-miterlimit="1.5" stroke-linecap="round" stroke-linejoin="round"/><path fill-rule="evenodd" clip-rule="evenodd" d="M107.448 417.61s4.064-1.647 5.931-1.977c1.73-.305 3.661-.704 5.271 0 1.758.769 5.272 4.613 5.272 4.613l-7.908 11.861s-7.138-4.832-8.566-7.248c-1.229-2.081 0-7.249 0-7.249ZM182.576 417.61s-4.064-1.647-5.931-1.977c-1.73-.305-3.661-.704-5.271 0-1.758.769-5.272 4.613-5.272 4.613l7.908 11.861s7.138-4.832 8.566-7.248c1.229-2.081 0-7.249 0-7.249Z" fill="#FCC8C8"/><path d="m141.06 445.806-1.977 16.209M148.964 445.806l1.976 16.209M145.012 472.295v5.93s-1.647 1.977-2.635 1.977c-.989 0-2.495-.977-3.295-1.977-.879-1.098-1.977-4.612-1.977-4.612" stroke="#B8BDBD" stroke-width=".988" stroke-miterlimit="1.5" stroke-linecap="round" stroke-linejoin="round"/><path d="M145.011 472.295v5.93s1.647 1.977 2.636 1.977c.988 0 2.495-.977 3.295-1.977.878-1.098 1.976-4.612 1.976-4.612" stroke="#B8BDBD" stroke-width=".988" stroke-miterlimit="1.5" stroke-linecap="round" stroke-linejoin="round"/><path fill-rule="evenodd" clip-rule="evenodd" d="M139.088 462.018h11.861s2.291 1.391 1.976 2.371c-.549 1.713-3.514 6.589-5.271 7.907-1.406 1.054-3.866 1.054-5.272 0-1.757-1.318-4.722-6.194-5.271-7.907-.315-.98 1.977-2.371 1.977-2.371Z" fill="#2B0609"/></svg>