<?xml version="1.0" standalone="no"?>
<!DOCTYPE svg PUBLIC "-//W3C//DTD SVG 20010904//EN"
 "http://www.w3.org/TR/2001/REC-SVG-20010904/DTD/svg10.dtd">
<svg version="1.0" xmlns="http://www.w3.org/2000/svg"
 width="700.000000pt" height="700.000000pt" viewBox="0 0 700.000000 700.000000"
 preserveAspectRatio="xMidYMid meet">
<metadata>
Created by potrace 1.14, written by Peter Selinger 2001-2017
</metadata>
<g transform="translate(0.000000,700.000000) scale(0.100000,-0.100000)"
fill="#000000" stroke="none">
<path d="M3462 6630 c-18 -11 -37 -32 -42 -46 -7 -17 -10 -526 -11 -1412 l0
-1387 -72 75 c-57 60 -188 202 -262 284 -39 43 -128 141 -174 191 -31 33 -103
112 -161 175 -58 63 -107 117 -110 120 -3 3 -48 52 -100 110 -52 58 -100 110
-106 115 -5 6 -55 59 -110 119 -54 61 -106 117 -114 126 -8 9 -53 58 -100 110
-277 307 -341 370 -381 379 -70 16 -139 -38 -139 -108 1 -48 10 -63 112 -172
47 -52 95 -103 105 -115 10 -12 59 -66 110 -120 50 -54 101 -110 112 -123 12
-14 63 -70 115 -125 51 -56 104 -113 117 -128 80 -89 196 -215 283 -308 76
-82 223 -244 247 -271 11 -13 44 -49 72 -79 56 -60 109 -117 257 -279 52 -58
106 -115 119 -128 13 -13 20 -27 17 -30 -3 -3 -558 -7 -1233 -7 -959 -1 -1233
-4 -1250 -13 -59 -34 -77 -95 -48 -157 32 -67 -43 -63 1262 -62 650 1 1191 -1
1202 -4 16 -4 -11 -30 -132 -132 -282 -235 -372 -311 -428 -359 -31 -27 -69
-59 -85 -71 -16 -12 -31 -25 -34 -28 -3 -3 -75 -64 -160 -135 -85 -71 -187
-156 -226 -190 -39 -33 -82 -69 -95 -80 -95 -79 -395 -331 -399 -335 -3 -3
-63 -54 -134 -114 -76 -65 -133 -121 -141 -140 -32 -76 23 -156 108 -156 31 0
93 35 135 76 7 7 34 30 60 51 26 21 49 40 52 43 3 4 75 64 160 136 85 71 166
139 180 151 14 12 59 50 100 84 41 34 77 65 80 68 3 3 30 26 60 51 82 67 97
79 174 146 39 33 125 105 191 160 66 54 125 103 131 109 6 5 35 30 64 55 30
25 84 70 120 100 240 204 440 370 444 370 3 0 6 -476 6 -1057 0 -582 0 -1222
0 -1422 l0 -363 34 -34 c29 -29 41 -34 79 -34 50 0 92 26 109 69 6 17 10 505
10 1414 0 1327 1 1387 18 1367 16 -18 122 -134 256 -279 28 -31 62 -68 76 -83
78 -86 259 -284 328 -358 8 -9 56 -61 105 -116 50 -54 95 -104 100 -110 32
-35 212 -230 225 -244 8 -9 58 -63 110 -120 52 -58 118 -130 147 -160 28 -30
61 -66 73 -80 108 -126 216 -231 243 -238 70 -19 147 38 147 108 -1 48 -10 62
-120 181 -180 196 -215 235 -302 329 -47 52 -98 109 -113 125 -16 17 -71 77
-124 134 -53 57 -104 113 -114 125 -10 11 -55 61 -100 110 -45 48 -91 98 -102
110 -49 55 -202 222 -225 246 -48 52 -195 213 -210 230 -8 9 -57 63 -109 118
-102 110 -146 161 -146 170 0 3 554 6 1230 6 1207 1 1231 2 1263 21 64 38 66
145 4 190 -27 20 -43 20 -1239 20 -667 0 -1213 1 -1213 2 0 1 39 35 88 75 48
40 92 78 98 83 6 6 32 28 59 50 27 22 80 67 119 100 39 33 98 83 131 110 33
27 62 52 65 55 3 3 46 39 95 80 50 42 162 136 250 210 88 74 201 168 250 209
50 42 95 80 101 86 6 5 33 28 59 50 309 256 523 443 536 468 17 31 16 76 -2
109 -17 32 -78 61 -116 55 -28 -5 -106 -56 -133 -87 -3 -3 -149 -127 -325
-274 -176 -148 -331 -278 -345 -290 -14 -12 -95 -80 -180 -151 -165 -138 -181
-151 -220 -186 -14 -11 -45 -38 -70 -58 -25 -20 -47 -38 -50 -41 -5 -5 -117
-101 -155 -132 -61 -51 -163 -136 -185 -155 -103 -89 -266 -223 -272 -223 -3
0 -6 634 -6 1409 0 1277 -2 1411 -16 1439 -31 60 -104 78 -164 42z"/>
</g>
</svg>
